<ttFont>
<head>
    <!-- Most of this table will be recalculated by the compiler -->
    <tableVersion value="1.0"/>
    <fontRevision value="3.001"/>
    <checkSumAdjustment value="0xb7bd21e0"/>
    <magicNumber value="0x5f0f3cf5"/>
    <flags value="00000000 00001011"/>
    <unitsPerEm value="2048"/>
    <created value="Wed Oct 16 12:52:07 2019"/>
    <modified value="Mon Sep 27 07:42:09 2021"/>
    <xMin value="-1124"/>
    <yMin value="-557"/>
    <xMax value="2460"/>
    <yMax value="2146"/>
    <macStyle value="00000000 00000000"/>
    <lowestRecPPEM value="6"/>
    <fontDirectionHint value="2"/>
    <indexToLocFormat value="0"/>
    <glyphDataFormat value="0"/>
  </head>
    <TTGlyph name="A" xMin="0" yMin="0" xMax="1293" yMax="1468">
      <contour>
        <pt x="1117" y="0" on="1" overlap="1"/>
        <pt x="937" y="464" on="1"/>
        <pt x="351" y="464" on="1"/>
        <pt x="172" y="0" on="1"/>
        <pt x="0" y="0" on="1"/>
        <pt x="572" y="1468" on="1"/>
        <pt x="725" y="1468" on="1"/>
        <pt x="1293" y="0" on="1"/>
      </contour>
      <contour>
        <pt x="886" y="615" on="1"/>
        <pt x="715" y="1076" on="1"/>
        <pt x="709" y="1094" on="0"/>
        <pt x="682" y="1176" on="0"/>
        <pt x="654" y="1264" on="0"/>
        <pt x="645" y="1291" on="1"/>
        <pt x="635" y="1250" on="0"/>
        <pt x="612" y="1169" on="0"/>
        <pt x="590" y="1100" on="0"/>
        <pt x="582" y="1076" on="1"/>
        <pt x="408" y="615" on="1"/>
      </contour>
    </TTGlyph>
    <TTGlyph name="AE" xMin="-2" yMin="0" xMax="1665" yMax="1462">
      <contour>
        <pt x="1665" y="0" on="1" overlap="1"/>
        <pt x="901" y="0" on="1"/>
        <pt x="901" y="464" on="1"/>
        <pt x="396" y="464" on="1"/>
        <pt x="174" y="0" on="1"/>
        <pt x="-2" y="0" on="1"/>
        <pt x="685" y="1462" on="1"/>
        <pt x="1665" y="1462" on="1"/>
        <pt x="1665" y="1312" on="1"/>
        <pt x="1071" y="1312" on="1"/>
        <pt x="1071" y="839" on="1"/>
        <pt x="1626" y="839" on="1"/>
        <pt x="1626" y="691" on="1"/>
        <pt x="1071" y="691" on="1"/>
        <pt x="1071" y="150" on="1"/>
        <pt x="1665" y="150" on="1"/>
      </contour>
      <contour>
        <pt x="462" y="615" on="1"/>
        <pt x="901" y="615" on="1"/>
        <pt x="901" y="1310" on="1"/>
        <pt x="786" y="1310" on="1"/>
      </contour>
    </TTGlyph>
    <TTGlyph name="AEacute" xMin="-2" yMin="0" xMax="1665" yMax="1936">
      <component glyphName="AE" x="0" y="0" flags="0x604"/>
      <component glyphName="acute" x="792" y="367" flags="0x4"/>
    </TTGlyph>
    <TTGlyph name="Aacute" xMin="0" yMin="0" xMax="1293" yMax="1936">
      <component glyphName="A" x="0" y="0" flags="0x604"/>
      <component glyphName="acute" x="448" y="367" flags="0x4"/>
    </TTGlyph>
    <TTGlyph name="Abreve" xMin="0" yMin="0" xMax="1293" yMax="1878">
      <component glyphName="A" x="0" y="0" flags="0x604"/>
      <component glyphName="breve" x="260" y="367" flags="0x4"/>
    </TTGlyph>
    <TTGlyph name="Acircumflex" xMin="0" yMin="0" xMax="1293" yMax="1935">
      <component glyphName="A" x="0" y="0" flags="0x604"/>
      <component glyphName="circumflex" x="231" y="367" flags="0x4"/>
    </TTGlyph>
    <TTGlyph name="Adieresis" xMin="0" yMin="0" xMax="1293" yMax="1857">
      <component glyphName="A" x="0" y="0" flags="0x604"/>
      <component glyphName="dieresis" x="52" y="367" flags="0x4"/>
    </TTGlyph>
    <TTGlyph name="Agrave" xMin="0" yMin="0" xMax="1293" yMax="1936">
      <component glyphName="A" x="0" y="0" flags="0x604"/>
      <component glyphName="grave" x="297" y="367" flags="0x4"/>
    </TTGlyph>
    <TTGlyph name="Alpha" xMin="0" yMin="0" xMax="1293" yMax="1468">
      <component glyphName="A" x="0" y="0" flags="0x604"/>
    </TTGlyph>
    <TTGlyph name="Alphatonos" xMin="0" yMin="0" xMax="1293" yMax="1540">
      <component glyphName="A" x="0" y="0" flags="0x604"/>
      <component glyphName="tonos" x="-493" y="-109" flags="0x4"/>
    </TTGlyph>
    <TTGlyph name="Amacron" xMin="0" yMin="0" xMax="1293" yMax="1744">
      <component glyphName="A" x="0" y="0" flags="0x604"/>
      <component glyphName="macron" x="263" y="367" flags="0x4"/>
    </TTGlyph>
    <TTGlyph name="Aogonek" xMin="0" yMin="-450" xMax="1293" yMax="1468">
      <component glyphName="A" x="0" y="0" flags="0x604"/>
      <component glyphName="ogonek" x="880" y="0" flags="0x4"/>
    </TTGlyph>
    <TTGlyph name="Aogonek.loclNAV" xMin="0" yMin="-450" xMax="1293" yMax="1468">
      <component glyphName="A" x="0" y="0" flags="0x604"/>
      <component glyphName="ogonek" x="407" y="0" flags="0x4"/>
    </TTGlyph>
    <TTGlyph name="Aring" xMin="0" yMin="0" xMax="1293" yMax="1802">
      <component glyphName="A" x="0" y="0" flags="0x604"/>
      <component glyphName="ring" x="340" y="130" flags="0x4"/>
    </TTGlyph>
    <TTGlyph name="Aringacute" xMin="-2" yMin="0" xMax="1298" yMax="1964">
      <contour>
        <pt x="-2" y="0" on="1" overlap="1"/>
        <pt x="532" y="1238" on="1"/>
        <pt x="482" y="1263" on="0"/>
        <pt x="424" y="1358" on="0"/>
        <pt x="424" y="1427" on="1"/>
        <pt x="424" y="1528" on="0"/>
        <pt x="548" y="1643" on="0"/>
        <pt x="645" y="1643" on="1"/>
        <pt x="742" y="1643" on="0"/>
        <pt x="873" y="1529" on="0"/>
        <pt x="873" y="1428" on="1"/>
        <pt x="873" y="1361" on="0"/>
        <pt x="815" y="1265" on="0"/>
        <pt x="765" y="1240" on="1"/>
        <pt x="1298" y="0" on="1"/>
        <pt x="1121" y="0" on="1"/>
        <pt x="947" y="402" on="1"/>
        <pt x="340" y="402" on="1"/>
        <pt x="172" y="0" on="1"/>
      </contour>
      <contour>
        <pt x="400" y="554" on="1"/>
        <pt x="897" y="554" on="1"/>
        <pt x="719" y="985" on="1"/>
        <pt x="709" y="1009" on="0"/>
        <pt x="684" y="1074" on="0"/>
        <pt x="658" y="1148" on="0"/>
        <pt x="647" y="1183" on="1"/>
        <pt x="639" y="1156" on="0"/>
        <pt x="620" y="1100" on="0"/>
        <pt x="602" y="1046" on="0"/>
        <pt x="585" y="999" on="0"/>
        <pt x="578" y="982" on="1"/>
      </contour>
      <contour>
        <pt x="645" y="1305" on="1"/>
        <pt x="699" y="1305" on="0"/>
        <pt x="766" y="1369" on="0"/>
        <pt x="766" y="1427" on="1"/>
        <pt x="766" y="1484" on="0"/>
        <pt x="699" y="1546" on="0"/>
        <pt x="645" y="1546" on="1"/>
        <pt x="593" y="1546" on="0"/>
        <pt x="525" y="1484" on="0"/>
        <pt x="525" y="1427" on="1"/>
        <pt x="525" y="1370" on="0"/>
        <pt x="589" y="1305" on="0"/>
      </contour>
      <contour>
        <pt x="557" y="1696" on="1"/>
        <pt x="557" y="1714" on="1"/>
        <pt x="587" y="1748" on="0"/>
        <pt x="654" y="1835" on="0"/>
        <pt x="716" y="1925" on="0"/>
        <pt x="738" y="1964" on="1"/>
        <pt x="938" y="1964" on="1"/>
        <pt x="938" y="1948" on="1"/>
        <pt x="921" y="1924" on="0"/>
        <pt x="859" y="1858" on="0"/>
        <pt x="783" y="1787" on="0"/>
        <pt x="704" y="1720" on="0"/>
        <pt x="669" y="1696" on="1"/>
      </contour>
    </TTGlyph>
    <TTGlyph name="Atilde" xMin="0" yMin="0" xMax="1293" yMax="1868">
      <component glyphName="A" x="0" y="0" flags="0x604"/>
      <component glyphName="tilde" x="187" y="367" flags="0x4"/>
    </TTGlyph>
    <TTGlyph name="B" xMin="200" yMin="0" xMax="1212" yMax="1462">
      <contour>
        <pt x="200" y="1462" on="1" overlap="1"/>
        <pt x="614" y="1462" on="1"/>
        <pt x="888" y="1462" on="0"/>
        <pt x="1164" y="1298" on="0"/>
        <pt x="1164" y="1101" on="1"/>
        <pt x="1164" y="1016" on="0"/>
        <pt x="1099" y="881" on="0"/>
        <pt x="975" y="793" on="0"/>
        <pt x="884" y="776" on="1"/>
        <pt x="884" y="766" on="1"/>
        <pt x="980" y="751" on="0"/>
        <pt x="1128" y="671" on="0"/>
        <pt x="1212" y="527" on="0"/>
        <pt x="1212" y="416" on="1"/>
        <pt x="1212" y="281" on="0"/>
        <pt x="1087" y="95" on="0"/>
        <pt x="859" y="0" on="0"/>
        <pt x="703" y="0" on="1"/>
        <pt x="200" y="0" on="1"/>
      </contour>
      <contour>
        <pt x="370" y="835" on="1"/>
        <pt x="650" y="835" on="1"/>
        <pt x="841" y="835" on="0"/>
        <pt x="988" y="961" on="0"/>
        <pt x="988" y="1082" on="1"/>
        <pt x="988" y="1207" on="0"/>
        <pt x="813" y="1317" on="0"/>
        <pt x="622" y="1317" on="1"/>
        <pt x="370" y="1317" on="1"/>
      </contour>
      <contour>
        <pt x="370" y="692" on="1"/>
        <pt x="370" y="145" on="1"/>
        <pt x="674" y="145" on="1"/>
        <pt x="869" y="145" on="0"/>
        <pt x="1031" y="298" on="0"/>
        <pt x="1031" y="428" on="1"/>
        <pt x="1031" y="511" on="0"/>
        <pt x="958" y="629" on="0"/>
        <pt x="795" y="692" on="0"/>
        <pt x="659" y="692" on="1"/>
      </contour>
    </TTGlyph>
    <TTGlyph name="Beta" xMin="200" yMin="0" xMax="1212" yMax="1462">
      <component glyphName="B" x="0" y="0" flags="0x604"/>
    </TTGlyph>
    <TTGlyph name="C" xMin="125" yMin="-20" xMax="1227" yMax="1483">
      <contour>
        <pt x="825" y="1333" on="1" overlap="1"/>
        <pt x="704" y="1333" on="0"/>
        <pt x="511" y="1250" on="0"/>
        <pt x="376" y="1093" on="0"/>
        <pt x="304" y="871" on="0"/>
        <pt x="304" y="732" on="1"/>
        <pt x="304" y="548" on="0"/>
        <pt x="419" y="277" on="0"/>
        <pt x="648" y="129" on="0"/>
        <pt x="820" y="129" on="1"/>
        <pt x="918" y="129" on="0"/>
        <pt x="1091" y="162" on="0"/>
        <pt x="1173" y="187" on="1"/>
        <pt x="1173" y="39" on="1"/>
        <pt x="1093" y="9" on="0"/>
        <pt x="917" y="-20" on="0"/>
        <pt x="796" y="-20" on="1"/>
        <pt x="573" y="-20" on="0"/>
        <pt x="274" y="165" on="0"/>
        <pt x="125" y="503" on="0"/>
        <pt x="125" y="733" on="1"/>
        <pt x="125" y="899" on="0"/>
        <pt x="218" y="1174" on="0"/>
        <pt x="397" y="1374" on="0"/>
        <pt x="658" y="1483" on="0"/>
        <pt x="827" y="1483" on="1"/>
        <pt x="938" y="1483" on="0"/>
        <pt x="1144" y="1439" on="0"/>
        <pt x="1227" y="1398" on="1"/>
        <pt x="1159" y="1254" on="1"/>
        <pt x="1089" y="1286" on="0"/>
        <pt x="922" y="1333" on="0"/>
      </contour>
    </TTGlyph>
    <TTGlyph name="Cacute" xMin="125" yMin="-20" xMax="1227" yMax="1936">
      <component glyphName="C" x="0" y="0" flags="0x604"/>
      <component glyphName="acute" x="579" y="367" flags="0x4"/>
    </TTGlyph>
    <TTGlyph name="Ccaron" xMin="125" yMin="-20" xMax="1227" yMax="1935">
      <component glyphName="C" x="0" y="0" flags="0x604"/>
      <component glyphName="caron" x="358" y="367" flags="0x4"/>
    </TTGlyph>
    <TTGlyph name="Ccedilla" xMin="125" yMin="-492" xMax="1227" yMax="1483">
      <component glyphName="C" x="0" y="0" flags="0x604"/>
      <component glyphName="cedilla" x="534" y="0" flags="0x4"/>
    </TTGlyph>
    <TTGlyph name="Ccircumflex" xMin="125" yMin="-20" xMax="1227" yMax="1935">
      <component glyphName="C" x="0" y="0" flags="0x604"/>
      <component glyphName="circumflex" x="361" y="367" flags="0x4"/>
    </TTGlyph>
    <TTGlyph name="Cdot" xMin="125" yMin="-20" xMax="1227" yMax="1873">
      <component glyphName="C" x="0" y="0" flags="0x604"/>
      <component glyphName="dotaccent" x="598" y="367" flags="0x4"/>
    </TTGlyph>
    <TTGlyph name="Chi" xMin="6" yMin="0" xMax="1176" yMax="1462">
      <component glyphName="X" x="0" y="0" flags="0x604"/>
    </TTGlyph>
    <TTGlyph name="D" xMin="200" yMin="0" xMax="1361" yMax="1462">
      <contour>
        <pt x="1361" y="745" on="1" overlap="1"/>
        <pt x="1361" y="498" on="0"/>
        <pt x="1181" y="167" on="0"/>
        <pt x="840" y="0" on="0"/>
        <pt x="597" y="0" on="1"/>
        <pt x="200" y="0" on="1"/>
        <pt x="200" y="1462" on="1"/>
        <pt x="641" y="1462" on="1"/>
        <pt x="864" y="1462" on="0"/>
        <pt x="1186" y="1299" on="0"/>
        <pt x="1361" y="980" on="0"/>
      </contour>
      <contour>
        <pt x="1182" y="739" on="1"/>
        <pt x="1182" y="936" on="0"/>
        <pt x="1051" y="1192" on="0"/>
        <pt x="798" y="1317" on="0"/>
        <pt x="615" y="1317" on="1"/>
        <pt x="370" y="1317" on="1"/>
        <pt x="370" y="146" on="1"/>
        <pt x="577" y="146" on="1"/>
        <pt x="879" y="146" on="0"/>
        <pt x="1182" y="444" on="0"/>
      </contour>
    </TTGlyph>
    <TTGlyph name="Dcaron" xMin="200" yMin="0" xMax="1361" yMax="1935">
      <component glyphName="D" x="0" y="0" flags="0x604"/>
      <component glyphName="caron" x="318" y="367" flags="0x4"/>
    </TTGlyph>
    <TTGlyph name="Dcroat" xMin="58" yMin="0" xMax="1361" yMax="1462">
      <component glyphName="Eth" x="0" y="0" flags="0x604"/>
    </TTGlyph>
    <TTGlyph name="E" xMin="200" yMin="0" xMax="1014" yMax="1462">
      <contour>
        <pt x="1014" y="0" on="1" overlap="1"/>
        <pt x="200" y="0" on="1"/>
        <pt x="200" y="1462" on="1"/>
        <pt x="1014" y="1462" on="1"/>
        <pt x="1014" y="1312" on="1"/>
        <pt x="370" y="1312" on="1"/>
        <pt x="370" y="839" on="1"/>
        <pt x="977" y="839" on="1"/>
        <pt x="977" y="691" on="1"/>
        <pt x="370" y="691" on="1"/>
        <pt x="370" y="150" on="1"/>
        <pt x="1014" y="150" on="1"/>
      </contour>
    </TTGlyph>
    <TTGlyph name="Eacute" xMin="200" yMin="0" xMax="1014" yMax="1936">
      <component glyphName="E" x="0" y="0" flags="0x604"/>
      <component glyphName="acute" x="429" y="367" flags="0x4"/>
    </TTGlyph>
    <TTGlyph name="Ebreve" xMin="200" yMin="0" xMax="1014" yMax="1878">
      <component glyphName="E" x="0" y="0" flags="0x604"/>
      <component glyphName="breve" x="240" y="367" flags="0x4"/>
    </TTGlyph>
    <TTGlyph name="Ecaron" xMin="200" yMin="0" xMax="1014" yMax="1935">
      <component glyphName="E" x="0" y="0" flags="0x604"/>
      <component glyphName="caron" x="208" y="367" flags="0x4"/>
    </TTGlyph>
    <TTGlyph name="Ecircumflex" xMin="200" yMin="0" xMax="1014" yMax="1935">
      <component glyphName="E" x="0" y="0" flags="0x604"/>
      <component glyphName="circumflex" x="211" y="367" flags="0x4"/>
    </TTGlyph>
    <TTGlyph name="Edieresis" xMin="200" yMin="0" xMax="1014" yMax="1857">
      <component glyphName="E" x="0" y="0" flags="0x604"/>
      <component glyphName="dieresis" x="33" y="367" flags="0x4"/>
    </TTGlyph>
    <TTGlyph name="Edotaccent" xMin="200" yMin="0" xMax="1014" yMax="1873">
      <component glyphName="E" x="0" y="0" flags="0x604"/>
      <component glyphName="dotaccent" x="446" y="367" flags="0x4"/>
    </TTGlyph>
    <TTGlyph name="Egrave" xMin="200" yMin="0" xMax="1014" yMax="1936">
      <component glyphName="E" x="0" y="0" flags="0x604"/>
      <component glyphName="grave" x="277" y="367" flags="0x4"/>
    </TTGlyph>
    <TTGlyph name="Emacron" xMin="200" yMin="0" xMax="1014" yMax="1744">
      <component glyphName="E" x="0" y="0" flags="0x604"/>
      <component glyphName="macron" x="244" y="367" flags="0x4"/>
    </TTGlyph>
    <TTGlyph name="Eng" xMin="200" yMin="-385" xMax="1343" yMax="1462">
      <contour>
        <pt x="966" y="-385" on="1" overlap="1"/>
        <pt x="916" y="-385" on="0"/>
        <pt x="837" y="-371" on="0"/>
        <pt x="809" y="-358" on="1"/>
        <pt x="809" y="-215" on="1"/>
        <pt x="841" y="-224" on="0"/>
        <pt x="921" y="-235" on="0"/>
        <pt x="966" y="-235" on="1"/>
        <pt x="1022" y="-235" on="0"/>
        <pt x="1120" y="-193" on="0"/>
        <pt x="1183" y="-89" on="0"/>
        <pt x="1183" y="2" on="1"/>
        <pt x="350" y="1228" on="1"/>
        <pt x="342" y="1228" on="1"/>
        <pt x="345" y="1187" on="0"/>
        <pt x="353" y="1049" on="0"/>
        <pt x="358" y="891" on="0"/>
        <pt x="358" y="819" on="1"/>
        <pt x="358" y="0" on="1"/>
        <pt x="200" y="0" on="1"/>
        <pt x="200" y="1462" on="1"/>
        <pt x="395" y="1462" on="1"/>
        <pt x="1189" y="273" on="1"/>
        <pt x="1196" y="273" on="1"/>
        <pt x="1193" y="318" on="0"/>
        <pt x="1187" y="449" on="0"/>
        <pt x="1183" y="599" on="0"/>
        <pt x="1183" y="671" on="1"/>
        <pt x="1183" y="1462" on="1"/>
        <pt x="1343" y="1462" on="1"/>
        <pt x="1343" y="11" on="1"/>
        <pt x="1343" y="-123" on="0"/>
        <pt x="1251" y="-299" on="0"/>
        <pt x="1082" y="-385" on="0"/>
      </contour>
    </TTGlyph>
    <TTGlyph name="Eng.alt1" xMin="199" yMin="-389" xMax="1281" yMax="1483">
      <contour>
        <pt x="899" y="-389" on="1" overlap="1"/>
        <pt x="847" y="-389" on="0"/>
        <pt x="770" y="-375" on="0"/>
        <pt x="742" y="-362" on="1"/>
        <pt x="742" y="-218" on="1"/>
        <pt x="774" y="-227" on="0"/>
        <pt x="853" y="-239" on="0"/>
        <pt x="899" y="-239" on="1"/>
        <pt x="953" y="-239" on="0"/>
        <pt x="1050" y="-198" on="0"/>
        <pt x="1111" y="-98" on="0"/>
        <pt x="1111" y="-10" on="1"/>
        <pt x="1111" y="967" on="1"/>
        <pt x="1111" y="1164" on="0"/>
        <pt x="947" y="1335" on="0"/>
        <pt x="762" y="1335" on="1"/>
        <pt x="615" y="1335" on="0"/>
        <pt x="443" y="1225" on="0"/>
        <pt x="369" y="1023" on="0"/>
        <pt x="369" y="886" on="1"/>
        <pt x="369" y="0" on="1"/>
        <pt x="199" y="0" on="1"/>
        <pt x="199" y="1462" on="1"/>
        <pt x="333" y="1462" on="1"/>
        <pt x="362" y="1261" on="1"/>
        <pt x="371" y="1261" on="1"/>
        <pt x="408" y="1326" on="0"/>
        <pt x="535" y="1426" on="0"/>
        <pt x="694" y="1483" on="0"/>
        <pt x="778" y="1483" on="1"/>
        <pt x="932" y="1483" on="0"/>
        <pt x="1157" y="1376" on="0"/>
        <pt x="1281" y="1157" on="0"/>
        <pt x="1281" y="987" on="1"/>
        <pt x="1281" y="0" on="1"/>
        <pt x="1281" y="-99" on="0"/>
        <pt x="1226" y="-246" on="0"/>
        <pt x="1124" y="-342" on="0"/>
        <pt x="984" y="-389" on="0"/>
      </contour>
    </TTGlyph>
    <TTGlyph name="Eng.alt2" xMin="200" yMin="-385" xMax="1343" yMax="1462">
      <component glyphName="Eng" x="0" y="0" flags="0x604"/>
    </TTGlyph>
    <TTGlyph name="Eng.alt3" xMin="186" yMin="-20" xMax="1268" yMax="1483">
      <contour>
        <pt x="720" y="-20" on="1" overlap="1"/>
        <pt x="547" y="-20" on="0"/>
        <pt x="309" y="112" on="0"/>
        <pt x="186" y="353" on="0"/>
        <pt x="186" y="516" on="1"/>
        <pt x="186" y="541" on="1"/>
        <pt x="356" y="541" on="1"/>
        <pt x="356" y="510" on="1"/>
        <pt x="356" y="387" on="0"/>
        <pt x="440" y="217" on="0"/>
        <pt x="607" y="128" on="0"/>
        <pt x="729" y="128" on="1"/>
        <pt x="924" y="128" on="0"/>
        <pt x="1098" y="343" on="0"/>
        <pt x="1098" y="519" on="1"/>
        <pt x="1098" y="967" on="1"/>
        <pt x="1098" y="1164" on="0"/>
        <pt x="934" y="1335" on="0"/>
        <pt x="749" y="1335" on="1"/>
        <pt x="602" y="1335" on="0"/>
        <pt x="430" y="1225" on="0"/>
        <pt x="356" y="1023" on="0"/>
        <pt x="356" y="886" on="1"/>
        <pt x="356" y="737" on="1"/>
        <pt x="186" y="737" on="1"/>
        <pt x="186" y="1462" on="1"/>
        <pt x="321" y="1462" on="1"/>
        <pt x="348" y="1261" on="1"/>
        <pt x="359" y="1261" on="1"/>
        <pt x="396" y="1326" on="0"/>
        <pt x="522" y="1426" on="0"/>
        <pt x="681" y="1483" on="0"/>
        <pt x="766" y="1483" on="1"/>
        <pt x="919" y="1483" on="0"/>
        <pt x="1144" y="1376" on="0"/>
        <pt x="1268" y="1157" on="0"/>
        <pt x="1268" y="987" on="1"/>
        <pt x="1268" y="519" on="1"/>
        <pt x="1268" y="363" on="0"/>
        <pt x="1149" y="120" on="0"/>
        <pt x="907" y="-20" on="0"/>
      </contour>
    </TTGlyph>
    <TTGlyph name="Eogonek" xMin="200" yMin="-450" xMax="1014" yMax="1462">
      <component glyphName="E" x="0" y="0" flags="0x604"/>
      <component glyphName="ogonek" x="591" y="0" flags="0x4"/>
    </TTGlyph>
    <TTGlyph name="Eogonek.loclNAV" xMin="200" yMin="-450" xMax="1014" yMax="1462">
      <component glyphName="E" x="0" y="0" flags="0x604"/>
      <component glyphName="ogonek" x="363" y="0" flags="0x4"/>
    </TTGlyph>
    <TTGlyph name="Epsilon" xMin="200" yMin="0" xMax="1014" yMax="1462">
      <component glyphName="E" x="0" y="0" flags="0x604"/>
    </TTGlyph>
    <TTGlyph name="Epsilontonos" xMin="-2" yMin="0" xMax="1177" yMax="1540">
      <component glyphName="E" x="163" y="0" flags="0x404"/>
      <component glyphName="tonos" x="-522" y="-109" flags="0x4"/>
    </TTGlyph>
    <TTGlyph name="Eta" xMin="200" yMin="0" xMax="1308" yMax="1462">
      <component glyphName="H" x="0" y="0" flags="0x604"/>
    </TTGlyph>
    <TTGlyph name="Etatonos" xMin="-2" yMin="0" xMax="1471" yMax="1540">
      <component glyphName="H" x="163" y="0" flags="0x404"/>
      <component glyphName="tonos" x="-522" y="-109" flags="0x4"/>
    </TTGlyph>
    <TTGlyph name="Eth" xMin="58" yMin="0" xMax="1361" yMax="1462">
      <contour>
        <pt x="641" y="1462" on="1" overlap="1"/>
        <pt x="863" y="1462" on="0"/>
        <pt x="1186" y="1299" on="0"/>
        <pt x="1361" y="980" on="0"/>
        <pt x="1361" y="745" on="1"/>
        <pt x="1361" y="498" on="0"/>
        <pt x="1181" y="167" on="0"/>
        <pt x="839" y="0" on="0"/>
        <pt x="595" y="0" on="1"/>
        <pt x="213" y="0" on="1"/>
        <pt x="213" y="649" on="1"/>
        <pt x="58" y="649" on="1"/>
        <pt x="58" y="798" on="1"/>
        <pt x="213" y="798" on="1"/>
        <pt x="213" y="1462" on="1"/>
      </contour>
      <contour>
        <pt x="615" y="1317" on="1"/>
        <pt x="382" y="1317" on="1"/>
        <pt x="382" y="798" on="1"/>
        <pt x="754" y="798" on="1"/>
        <pt x="754" y="649" on="1"/>
        <pt x="382" y="649" on="1"/>
        <pt x="382" y="146" on="1"/>
        <pt x="577" y="146" on="1"/>
        <pt x="880" y="146" on="0"/>
        <pt x="1182" y="444" on="0"/>
        <pt x="1182" y="739" on="1"/>
        <pt x="1182" y="936" on="0"/>
        <pt x="1050" y="1192" on="0"/>
        <pt x="797" y="1317" on="0"/>
      </contour>
    </TTGlyph>
    <TTGlyph name="Euro" xMin="52" yMin="-20" xMax="1141" yMax="1482">
      <contour>
        <pt x="782" y="1482" on="1" overlap="1"/>
        <pt x="884" y="1482" on="0"/>
        <pt x="1059" y="1437" on="0"/>
        <pt x="1141" y="1390" on="1"/>
        <pt x="1071" y="1254" on="1"/>
        <pt x="1014" y="1285" on="0"/>
        <pt x="862" y="1335" on="0"/>
        <pt x="782" y="1335" on="1"/>
        <pt x="704" y="1335" on="0"/>
        <pt x="574" y="1285" on="0"/>
        <pt x="474" y="1183" on="0"/>
        <pt x="404" y="1030" on="0"/>
        <pt x="385" y="928" on="1"/>
        <pt x="889" y="928" on="1"/>
        <pt x="889" y="804" on="1"/>
        <pt x="372" y="804" on="1"/>
        <pt x="371" y="784" on="0"/>
        <pt x="370" y="743" on="0"/>
        <pt x="370" y="721" on="1"/>
        <pt x="370" y="700" on="0"/>
        <pt x="371" y="654" on="0"/>
        <pt x="372" y="632" on="1"/>
        <pt x="834" y="632" on="1"/>
        <pt x="834" y="508" on="1"/>
        <pt x="387" y="508" on="1"/>
        <pt x="410" y="387" on="0"/>
        <pt x="515" y="217" on="0"/>
        <pt x="683" y="127" on="0"/>
        <pt x="798" y="127" on="1"/>
        <pt x="877" y="127" on="0"/>
        <pt x="1035" y="165" on="0"/>
        <pt x="1099" y="193" on="1"/>
        <pt x="1099" y="44" on="1"/>
        <pt x="1037" y="17" on="0"/>
        <pt x="884" y="-20" on="0"/>
        <pt x="787" y="-20" on="1"/>
        <pt x="624" y="-20" on="0"/>
        <pt x="391" y="106" on="0"/>
        <pt x="248" y="342" on="0"/>
        <pt x="219" y="508" on="1"/>
        <pt x="52" y="508" on="1"/>
        <pt x="52" y="632" on="1"/>
        <pt x="204" y="632" on="1"/>
        <pt x="203" y="657" on="0"/>
        <pt x="202" y="693" on="0"/>
        <pt x="202" y="720" on="1"/>
        <pt x="202" y="743" on="0"/>
        <pt x="204" y="790" on="0"/>
        <pt x="204" y="804" on="1"/>
        <pt x="52" y="804" on="1"/>
        <pt x="52" y="928" on="1"/>
        <pt x="217" y="928" on="1"/>
        <pt x="242" y="1097" on="0"/>
        <pt x="386" y="1346" on="0"/>
        <pt x="621" y="1482" on="0"/>
      </contour>
    </TTGlyph>
    <TTGlyph name="F" xMin="200" yMin="0" xMax="1014" yMax="1462">
      <contour>
        <pt x="370" y="0" on="1" overlap="1"/>
        <pt x="200" y="0" on="1"/>
        <pt x="200" y="1462" on="1"/>
        <pt x="1014" y="1462" on="1"/>
        <pt x="1014" y="1312" on="1"/>
        <pt x="370" y="1312" on="1"/>
        <pt x="370" y="776" on="1"/>
        <pt x="975" y="776" on="1"/>
        <pt x="975" y="627" on="1"/>
        <pt x="370" y="627" on="1"/>
      </contour>
    </TTGlyph>
    <TTGlyph name="G" xMin="125" yMin="-20" xMax="1336" yMax="1483">
      <contour>
        <pt x="825" y="766" on="1" overlap="1"/>
        <pt x="1336" y="766" on="1"/>
        <pt x="1336" y="57" on="1"/>
        <pt x="1221" y="18" on="0"/>
        <pt x="978" y="-20" on="0"/>
        <pt x="828" y="-20" on="1"/>
        <pt x="600" y="-20" on="0"/>
        <pt x="287" y="162" on="0"/>
        <pt x="125" y="499" on="0"/>
        <pt x="125" y="731" on="1"/>
        <pt x="125" y="958" on="0"/>
        <pt x="304" y="1296" on="0"/>
        <pt x="643" y="1483" on="0"/>
        <pt x="881" y="1483" on="1"/>
        <pt x="1003" y="1483" on="0"/>
        <pt x="1222" y="1438" on="0"/>
        <pt x="1316" y="1397" on="1"/>
        <pt x="1251" y="1249" on="1"/>
        <pt x="1170" y="1284" on="0"/>
        <pt x="975" y="1334" on="0"/>
        <pt x="871" y="1334" on="1"/>
        <pt x="692" y="1334" on="0"/>
        <pt x="437" y="1186" on="0"/>
        <pt x="302" y="916" on="0"/>
        <pt x="302" y="731" on="1"/>
        <pt x="302" y="548" on="0"/>
        <pt x="420" y="277" on="0"/>
        <pt x="670" y="127" on="0"/>
        <pt x="867" y="127" on="1"/>
        <pt x="966" y="127" on="0"/>
        <pt x="1108" y="150" on="0"/>
        <pt x="1166" y="166" on="1"/>
        <pt x="1166" y="614" on="1"/>
        <pt x="825" y="614" on="1"/>
      </contour>
    </TTGlyph>
    <TTGlyph name="Gamma" xMin="200" yMin="0" xMax="1021" yMax="1462">
      <contour>
        <pt x="1021" y="1462" on="1" overlap="1"/>
        <pt x="1021" y="1310" on="1"/>
        <pt x="370" y="1310" on="1"/>
        <pt x="370" y="0" on="1"/>
        <pt x="200" y="0" on="1"/>
        <pt x="200" y="1462" on="1"/>
      </contour>
    </TTGlyph>
    <TTGlyph name="Gbreve" xMin="125" yMin="-20" xMax="1336" yMax="1878">
      <component glyphName="G" x="0" y="0" flags="0x604"/>
      <component glyphName="breve" x="442" y="367" flags="0x4"/>
    </TTGlyph>
    <TTGlyph name="Gcircumflex" xMin="125" yMin="-20" xMax="1336" yMax="1935">
      <component glyphName="G" x="0" y="0" flags="0x604"/>
      <component glyphName="circumflex" x="413" y="367" flags="0x4"/>
    </TTGlyph>
    <TTGlyph name="Gdot" xMin="125" yMin="-20" xMax="1336" yMax="1873">
      <component glyphName="G" x="0" y="0" flags="0x604"/>
      <component glyphName="dotaccent" x="649" y="367" flags="0x4"/>
    </TTGlyph>
    <TTGlyph name="H" xMin="200" yMin="0" xMax="1308" yMax="1462">
      <contour>
        <pt x="1308" y="0" on="1" overlap="1"/>
        <pt x="1138" y="0" on="1"/>
        <pt x="1138" y="689" on="1"/>
        <pt x="370" y="689" on="1"/>
        <pt x="370" y="0" on="1"/>
        <pt x="200" y="0" on="1"/>
        <pt x="200" y="1462" on="1"/>
        <pt x="370" y="1462" on="1"/>
        <pt x="370" y="839" on="1"/>
        <pt x="1138" y="839" on="1"/>
        <pt x="1138" y="1462" on="1"/>
        <pt x="1308" y="1462" on="1"/>
      </contour>
    </TTGlyph>
    <TTGlyph name="Hbar" xMin="0" yMin="0" xMax="1508" yMax="1462">
      <contour>
        <pt x="200" y="0" on="1" overlap="1"/>
        <pt x="200" y="1077" on="1"/>
        <pt x="0" y="1077" on="1"/>
        <pt x="0" y="1214" on="1"/>
        <pt x="200" y="1214" on="1"/>
        <pt x="200" y="1462" on="1"/>
        <pt x="370" y="1462" on="1"/>
        <pt x="370" y="1214" on="1"/>
        <pt x="1138" y="1214" on="1"/>
        <pt x="1138" y="1462" on="1"/>
        <pt x="1308" y="1462" on="1"/>
        <pt x="1308" y="1214" on="1"/>
        <pt x="1508" y="1214" on="1"/>
        <pt x="1508" y="1077" on="1"/>
        <pt x="1308" y="1077" on="1"/>
        <pt x="1308" y="0" on="1"/>
        <pt x="1138" y="0" on="1"/>
        <pt x="1138" y="689" on="1"/>
        <pt x="370" y="689" on="1"/>
        <pt x="370" y="0" on="1"/>
      </contour>
      <contour>
        <pt x="370" y="839" on="1"/>
        <pt x="1138" y="839" on="1"/>
        <pt x="1138" y="1077" on="1"/>
        <pt x="370" y="1077" on="1"/>
      </contour>
    </TTGlyph>
    <TTGlyph name="Hcircumflex" xMin="200" yMin="0" xMax="1308" yMax="1935">
      <component glyphName="H" x="0" y="0" flags="0x604"/>
      <component glyphName="circumflex" x="342" y="367" flags="0x4"/>
    </TTGlyph>
    <TTGlyph name="I" xMin="200" yMin="0" xMax="370" yMax="1462">
      <contour>
        <pt x="200" y="0" on="1" overlap="1"/>
        <pt x="200" y="1462" on="1"/>
        <pt x="370" y="1462" on="1"/>
        <pt x="370" y="0" on="1"/>
      </contour>
    </TTGlyph>
    <TTGlyph name="I.salt" xMin="87" yMin="0" xMax="593" yMax="1462">
      <contour>
        <pt x="593" y="0" on="1" overlap="1"/>
        <pt x="87" y="0" on="1"/>
        <pt x="87" y="99" on="1"/>
        <pt x="255" y="134" on="1"/>
        <pt x="255" y="1326" on="1"/>
        <pt x="87" y="1363" on="1"/>
        <pt x="87" y="1462" on="1"/>
        <pt x="593" y="1462" on="1"/>
        <pt x="593" y="1363" on="1"/>
        <pt x="425" y="1326" on="1"/>
        <pt x="425" y="134" on="1"/>
        <pt x="593" y="99" on="1"/>
      </contour>
    </TTGlyph>
    <TTGlyph name="IJ" xMin="200" yMin="-385" xMax="934" yMax="1462">
      <component glyphName="I" x="0" y="0" flags="0x404"/>
      <component glyphName="J" x="572" y="0" flags="0x4"/>
    </TTGlyph>
    <TTGlyph name="IJ.salt" xMin="87" yMin="-385" xMax="1044" yMax="1462">
      <component glyphName="I.salt" x="0" y="0" flags="0x404"/>
      <component glyphName="J" x="682" y="0" flags="0x4"/>
    </TTGlyph>
    <TTGlyph name="Iacute" xMin="180" yMin="0" xMax="585" yMax="1936">
      <component glyphName="I" x="0" y="0" flags="0x604"/>
      <component glyphName="acute" x="98" y="367" flags="0x4"/>
    </TTGlyph>
    <TTGlyph name="Iacute.salt" xMin="87" yMin="0" xMax="631" yMax="1936">
      <component glyphName="I.salt" x="0" y="0" flags="0x604"/>
      <component glyphName="acute" x="144" y="367" flags="0x4"/>
    </TTGlyph>
    <TTGlyph name="Ibreve" xMin="-25" yMin="0" xMax="597" yMax="1878">
      <component glyphName="I" x="0" y="0" flags="0x604"/>
      <component glyphName="breve" x="-107" y="367" flags="0x4"/>
    </TTGlyph>
    <TTGlyph name="Ibreve.salt" xMin="38" yMin="0" xMax="660" yMax="1878">
      <component glyphName="I.salt" x="0" y="0" flags="0x604"/>
      <component glyphName="breve" x="-44" y="367" flags="0x4"/>
    </TTGlyph>
    <TTGlyph name="Icircumflex" xMin="-50" yMin="0" xMax="623" yMax="1935">
      <component glyphName="I" x="0" y="0" flags="0x604"/>
      <component glyphName="circumflex" x="-132" y="367" flags="0x4"/>
    </TTGlyph>
    <TTGlyph name="Icircumflex.salt" xMin="9" yMin="0" xMax="682" yMax="1935">
      <component glyphName="I.salt" x="0" y="0" flags="0x604"/>
      <component glyphName="circumflex" x="-73" y="367" flags="0x4"/>
    </TTGlyph>
    <TTGlyph name="Idieresis" xMin="6" yMin="0" xMax="571" yMax="1857">
      <component glyphName="I" x="0" y="0" flags="0x604"/>
      <component glyphName="dieresis" x="-304" y="367" flags="0x4"/>
    </TTGlyph>
    <TTGlyph name="Idieresis.salt" xMin="58" yMin="0" xMax="623" yMax="1857">
      <component glyphName="I.salt" x="0" y="0" flags="0x604"/>
      <component glyphName="dieresis" x="-252" y="367" flags="0x4"/>
    </TTGlyph>
    <TTGlyph name="Idotaccent" xMin="189" yMin="0" xMax="389" yMax="1873">
      <component glyphName="I" x="0" y="0" flags="0x604"/>
      <component glyphName="dotaccent" x="107" y="367" flags="0x4"/>
    </TTGlyph>
    <TTGlyph name="Idotaccent.salt" xMin="87" yMin="0" xMax="593" yMax="1873">
      <component glyphName="I.salt" x="0" y="0" flags="0x604"/>
      <component glyphName="dotaccent" x="163" y="367" flags="0x4"/>
    </TTGlyph>
    <TTGlyph name="Igrave" xMin="-12" yMin="0" xMax="393" yMax="1936">
      <component glyphName="I" x="0" y="0" flags="0x604"/>
      <component glyphName="grave" x="-94" y="367" flags="0x4"/>
    </TTGlyph>
    <TTGlyph name="Igrave.salt" xMin="76" yMin="0" xMax="593" yMax="1936">
      <component glyphName="I.salt" x="0" y="0" flags="0x604"/>
      <component glyphName="grave" x="-6" y="367" flags="0x4"/>
    </TTGlyph>
    <TTGlyph name="Imacron" xMin="-13" yMin="0" xMax="586" yMax="1744">
      <component glyphName="I" x="0" y="0" flags="0x604"/>
      <component glyphName="macron" x="-95" y="367" flags="0x4"/>
    </TTGlyph>
    <TTGlyph name="Imacron.salt" xMin="41" yMin="0" xMax="640" yMax="1744">
      <component glyphName="I.salt" x="0" y="0" flags="0x604"/>
      <component glyphName="macron" x="-41" y="367" flags="0x4"/>
    </TTGlyph>
    <TTGlyph name="Iogonek" xMin="88" yMin="-450" xMax="419" yMax="1462">
      <component glyphName="I" x="0" y="0" flags="0x604"/>
      <component glyphName="ogonek" x="6" y="0" flags="0x4"/>
    </TTGlyph>
    <TTGlyph name="Iogonek.loclNAV" xMin="88" yMin="-450" xMax="419" yMax="1462">
      <component glyphName="I" x="0" y="0" flags="0x604"/>
      <component glyphName="ogonek" x="6" y="0" flags="0x4"/>
    </TTGlyph>
    <TTGlyph name="Iogonek.salt" xMin="87" yMin="-450" xMax="593" yMax="1462">
      <component glyphName="I.salt" x="0" y="0" flags="0x604"/>
      <component glyphName="ogonek" x="176" y="0" flags="0x4"/>
    </TTGlyph>
    <TTGlyph name="Iogonek_loclNAV.salt" xMin="87" yMin="-450" xMax="593" yMax="1462">
      <component glyphName="I.salt" x="0" y="0" flags="0x604"/>
      <component glyphName="ogonek" x="93" y="0" flags="0x4"/>
    </TTGlyph>
    <TTGlyph name="Iota" xMin="200" yMin="0" xMax="370" yMax="1462">
      <component glyphName="I" x="0" y="0" flags="0x604"/>
    </TTGlyph>
    <TTGlyph name="Iota.salt" xMin="87" yMin="0" xMax="593" yMax="1462">
      <component glyphName="I.salt" x="0" y="0" flags="0x604"/>
    </TTGlyph>
    <TTGlyph name="Iotadieresis" xMin="6" yMin="0" xMax="571" yMax="1857">
      <component glyphName="I" x="0" y="0" flags="0x604"/>
      <component glyphName="dieresis" x="-304" y="367" flags="0x4"/>
    </TTGlyph>
    <TTGlyph name="Iotadieresis.salt" xMin="58" yMin="0" xMax="623" yMax="1857">
      <component glyphName="I.salt" x="0" y="0" flags="0x604"/>
      <component glyphName="dieresis" x="-252" y="367" flags="0x4"/>
    </TTGlyph>
    <TTGlyph name="Iotatonos" xMin="-2" yMin="0" xMax="537" yMax="1540">
      <component glyphName="I" x="167" y="0" flags="0x404"/>
      <component glyphName="tonos" x="-522" y="-109" flags="0x4"/>
    </TTGlyph>
    <TTGlyph name="Iotatonos.salt" xMin="-2" yMin="0" xMax="835" yMax="1540">
      <component glyphName="I.salt" x="242" y="0" flags="0x404"/>
      <component glyphName="tonos" x="-522" y="-109" flags="0x4"/>
    </TTGlyph>
    <TTGlyph name="Itilde" xMin="-83" yMin="0" xMax="660" yMax="1868">
      <component glyphName="I" x="0" y="0" flags="0x604"/>
      <component glyphName="tilde" x="-165" y="367" flags="0x4"/>
    </TTGlyph>
    <TTGlyph name="Itilde.salt" xMin="-36" yMin="0" xMax="707" yMax="1868">
      <component glyphName="I.salt" x="0" y="0" flags="0x604"/>
      <component glyphName="tilde" x="-118" y="367" flags="0x4"/>
    </TTGlyph>
    <TTGlyph name="J" xMin="-164" yMin="-385" xMax="362" yMax="1462">
      <contour>
        <pt x="-11" y="-385" on="1" overlap="1"/>
        <pt x="-61" y="-385" on="0"/>
        <pt x="-137" y="-371" on="0"/>
        <pt x="-164" y="-359" on="1"/>
        <pt x="-164" y="-214" on="1"/>
        <pt x="-132" y="-224" on="0"/>
        <pt x="-58" y="-235" on="0"/>
        <pt x="-15" y="-235" on="1"/>
        <pt x="41" y="-235" on="0"/>
        <pt x="135" y="-191" on="0"/>
        <pt x="191" y="-85" on="0"/>
        <pt x="191" y="8" on="1"/>
        <pt x="191" y="1462" on="1"/>
        <pt x="362" y="1462" on="1"/>
        <pt x="362" y="21" on="1"/>
        <pt x="362" y="-116" on="0"/>
        <pt x="271" y="-296" on="0"/>
        <pt x="104" y="-385" on="0"/>
      </contour>
    </TTGlyph>
    <TTGlyph name="J.salt" xMin="56" yMin="-23" xMax="650" yMax="1462">
      <contour>
        <pt x="278" y="-23" on="1" overlap="1"/>
        <pt x="207" y="-23" on="0"/>
        <pt x="97" y="6" on="0"/>
        <pt x="56" y="29" on="1"/>
        <pt x="56" y="173" on="1"/>
        <pt x="105" y="153" on="0"/>
        <pt x="214" y="127" on="0"/>
        <pt x="273" y="127" on="1"/>
        <pt x="330" y="127" on="0"/>
        <pt x="424" y="172" on="0"/>
        <pt x="480" y="279" on="0"/>
        <pt x="480" y="372" on="1"/>
        <pt x="480" y="1462" on="1"/>
        <pt x="650" y="1462" on="1"/>
        <pt x="650" y="384" on="1"/>
        <pt x="650" y="246" on="0"/>
        <pt x="559" y="66" on="0"/>
        <pt x="393" y="-23" on="0"/>
      </contour>
    </TTGlyph>
    <TTGlyph name="Jcircumflex" xMin="-164" yMin="-385" xMax="617" yMax="1935">
      <component glyphName="J" x="0" y="0" flags="0x604"/>
      <component glyphName="circumflex" x="-138" y="367" flags="0x4"/>
    </TTGlyph>
    <TTGlyph name="Jcircumflex.salt" xMin="56" yMin="-23" xMax="902" yMax="1935">
      <component glyphName="J.salt" x="0" y="0" flags="0x604"/>
      <component glyphName="circumflex" x="147" y="367" flags="0x4"/>
    </TTGlyph>
    <TTGlyph name="K" xMin="200" yMin="0" xMax="1254" yMax="1462">
      <contour>
        <pt x="1254" y="0" on="1" overlap="1"/>
        <pt x="1053" y="0" on="1"/>
        <pt x="526" y="711" on="1"/>
        <pt x="370" y="571" on="1"/>
        <pt x="370" y="0" on="1"/>
        <pt x="200" y="0" on="1"/>
        <pt x="200" y="1462" on="1"/>
        <pt x="370" y="1462" on="1"/>
        <pt x="370" y="733" on="1"/>
        <pt x="427" y="798" on="0"/>
        <pt x="547" y="927" on="0"/>
        <pt x="606" y="993" on="1"/>
        <pt x="1033" y="1462" on="1"/>
        <pt x="1232" y="1462" on="1"/>
        <pt x="650" y="828" on="1"/>
      </contour>
    </TTGlyph>
    <TTGlyph name="Kappa" xMin="200" yMin="0" xMax="1254" yMax="1462">
      <component glyphName="K" x="0" y="0" flags="0x604"/>
    </TTGlyph>
    <TTGlyph name="L" xMin="200" yMin="0" xMax="1019" yMax="1462">
      <contour>
        <pt x="200" y="0" on="1" overlap="1"/>
        <pt x="200" y="1462" on="1"/>
        <pt x="370" y="1462" on="1"/>
        <pt x="370" y="152" on="1"/>
        <pt x="1019" y="152" on="1"/>
        <pt x="1019" y="0" on="1"/>
      </contour>
    </TTGlyph>
    <TTGlyph name="Lacute" xMin="167" yMin="0" xMax="1019" yMax="1936">
      <component glyphName="L" x="0" y="0" flags="0x604"/>
      <component glyphName="acute" x="85" y="367" flags="0x4"/>
    </TTGlyph>
    <TTGlyph name="Lambda" xMin="0" yMin="0" xMax="1233" yMax="1462">
      <contour>
        <pt x="704" y="1462" on="1" overlap="1"/>
        <pt x="1233" y="0" on="1"/>
        <pt x="1054" y="0" on="1"/>
        <pt x="717" y="949" on="1"/>
        <pt x="696" y="1010" on="0"/>
        <pt x="658" y="1124" on="0"/>
        <pt x="626" y="1229" on="0"/>
        <pt x="613" y="1276" on="1"/>
        <pt x="603" y="1229" on="0"/>
        <pt x="573" y="1124" on="0"/>
        <pt x="535" y="1011" on="0"/>
        <pt x="514" y="951" on="1"/>
        <pt x="180" y="0" on="1"/>
        <pt x="0" y="0" on="1"/>
        <pt x="527" y="1462" on="1"/>
      </contour>
    </TTGlyph>
    <TTGlyph name="Lcaron" xMin="200" yMin="0" xMax="1019" yMax="1462">
      <component glyphName="L" x="0" y="0" flags="0x604"/>
      <component glyphName="caroncommaaccent" x="387" y="-94" flags="0x4"/>
    </TTGlyph>
    <TTGlyph name="Ldot" xMin="200" yMin="0" xMax="1019" yMax="1462">
      <component glyphName="L" x="0" y="0" flags="0x604"/>
      <component glyphName="dotaccent" x="596" y="-658" flags="0x4"/>
    </TTGlyph>
    <TTGlyph name="Lslash" xMin="26" yMin="0" xMax="1019" yMax="1462">
      <contour>
        <pt x="200" y="0" on="1" overlap="1"/>
        <pt x="200" y="514" on="1"/>
        <pt x="93" y="452" on="1"/>
        <pt x="26" y="565" on="1"/>
        <pt x="200" y="671" on="1"/>
        <pt x="200" y="1462" on="1"/>
        <pt x="370" y="1462" on="1"/>
        <pt x="370" y="771" on="1"/>
        <pt x="659" y="943" on="1"/>
        <pt x="727" y="823" on="1"/>
        <pt x="370" y="614" on="1"/>
        <pt x="370" y="152" on="1"/>
        <pt x="1019" y="152" on="1"/>
        <pt x="1019" y="0" on="1"/>
      </contour>
    </TTGlyph>
    <TTGlyph name="M" xMin="200" yMin="0" xMax="1642" yMax="1462">
      <contour>
        <pt x="843" y="0" on="1" overlap="1"/>
        <pt x="352" y="1294" on="1"/>
        <pt x="344" y="1294" on="1"/>
        <pt x="348" y="1253" on="0"/>
        <pt x="354" y="1135" on="0"/>
        <pt x="358" y="996" on="0"/>
        <pt x="358" y="924" on="1"/>
        <pt x="358" y="0" on="1"/>
        <pt x="200" y="0" on="1"/>
        <pt x="200" y="1462" on="1"/>
        <pt x="452" y="1462" on="1"/>
        <pt x="915" y="246" on="1"/>
        <pt x="922" y="246" on="1"/>
        <pt x="1392" y="1462" on="1"/>
        <pt x="1642" y="1462" on="1"/>
        <pt x="1642" y="0" on="1"/>
        <pt x="1474" y="0" on="1"/>
        <pt x="1474" y="936" on="1"/>
        <pt x="1474" y="1001" on="0"/>
        <pt x="1478" y="1132" on="0"/>
        <pt x="1484" y="1249" on="0"/>
        <pt x="1487" y="1292" on="1"/>
        <pt x="1479" y="1292" on="1"/>
        <pt x="982" y="0" on="1"/>
      </contour>
    </TTGlyph>
    <TTGlyph name="Mu" xMin="200" yMin="0" xMax="1642" yMax="1462">
      <component glyphName="M" x="0" y="0" flags="0x604"/>
    </TTGlyph>
    <TTGlyph name="N" xMin="200" yMin="0" xMax="1343" yMax="1462">
      <contour>
        <pt x="1343" y="0" on="1" overlap="1"/>
        <pt x="1147" y="0" on="1"/>
        <pt x="350" y="1228" on="1"/>
        <pt x="342" y="1228" on="1"/>
        <pt x="345" y="1179" on="0"/>
        <pt x="353" y="1054" on="0"/>
        <pt x="358" y="913" on="0"/>
        <pt x="358" y="840" on="1"/>
        <pt x="358" y="0" on="1"/>
        <pt x="200" y="0" on="1"/>
        <pt x="200" y="1462" on="1"/>
        <pt x="395" y="1462" on="1"/>
        <pt x="1189" y="238" on="1"/>
        <pt x="1196" y="238" on="1"/>
        <pt x="1194" y="273" on="0"/>
        <pt x="1188" y="402" on="0"/>
        <pt x="1183" y="551" on="0"/>
        <pt x="1183" y="615" on="1"/>
        <pt x="1183" y="1462" on="1"/>
        <pt x="1343" y="1462" on="1"/>
      </contour>
    </TTGlyph>
    <TTGlyph name="Nacute" xMin="200" yMin="0" xMax="1343" yMax="1936">
      <component glyphName="N" x="0" y="0" flags="0x604"/>
      <component glyphName="acute" x="574" y="367" flags="0x4"/>
    </TTGlyph>
    <TTGlyph name="Ncaron" xMin="200" yMin="0" xMax="1343" yMax="1935">
      <component glyphName="N" x="0" y="0" flags="0x604"/>
      <component glyphName="caron" x="353" y="367" flags="0x4"/>
    </TTGlyph>
    <TTGlyph name="Ntilde" xMin="200" yMin="0" xMax="1343" yMax="1868">
      <component glyphName="N" x="0" y="0" flags="0x604"/>
      <component glyphName="tilde" x="316" y="367" flags="0x4"/>
    </TTGlyph>
    <TTGlyph name="Nu" xMin="200" yMin="0" xMax="1343" yMax="1462">
      <component glyphName="N" x="0" y="0" flags="0x604"/>
    </TTGlyph>
    <TTGlyph name="O" xMin="125" yMin="-20" xMax="1468" yMax="1485">
      <contour>
        <pt x="1468" y="733" on="1" overlap="1"/>
        <pt x="1468" y="564" on="0"/>
        <pt x="1382" y="287" on="0"/>
        <pt x="1213" y="88" on="0"/>
        <pt x="963" y="-20" on="0"/>
        <pt x="798" y="-20" on="1"/>
        <pt x="628" y="-20" on="0"/>
        <pt x="375" y="88" on="0"/>
        <pt x="208" y="288" on="0"/>
        <pt x="125" y="566" on="0"/>
        <pt x="125" y="735" on="1"/>
        <pt x="125" y="959" on="0"/>
        <pt x="273" y="1297" on="0"/>
        <pt x="574" y="1485" on="0"/>
        <pt x="801" y="1485" on="1"/>
        <pt x="1018" y="1485" on="0"/>
        <pt x="1315" y="1299" on="0"/>
        <pt x="1468" y="962" on="0"/>
      </contour>
      <contour>
        <pt x="304" y="733" on="1"/>
        <pt x="304" y="547" on="0"/>
        <pt x="410" y="275" on="0"/>
        <pt x="629" y="127" on="0"/>
        <pt x="798" y="127" on="1"/>
        <pt x="968" y="127" on="0"/>
        <pt x="1185" y="275" on="0"/>
        <pt x="1289" y="547" on="0"/>
        <pt x="1289" y="733" on="1"/>
        <pt x="1289" y="1016" on="0"/>
        <pt x="1052" y="1335" on="0"/>
        <pt x="801" y="1335" on="1"/>
        <pt x="631" y="1335" on="0"/>
        <pt x="411" y="1189" on="0"/>
        <pt x="304" y="920" on="0"/>
      </contour>
    </TTGlyph>
    <TTGlyph name="OE" xMin="125" yMin="-18" xMax="1771" yMax="1483">
      <contour>
        <pt x="789" y="1483" on="1" overlap="1"/>
        <pt x="841" y="1483" on="0"/>
        <pt x="938" y="1473" on="0"/>
        <pt x="983" y="1462" on="1"/>
        <pt x="1771" y="1462" on="1"/>
        <pt x="1771" y="1312" on="1"/>
        <pt x="1167" y="1312" on="1"/>
        <pt x="1167" y="839" on="1"/>
        <pt x="1732" y="839" on="1"/>
        <pt x="1732" y="691" on="1"/>
        <pt x="1167" y="691" on="1"/>
        <pt x="1167" y="150" on="1"/>
        <pt x="1771" y="150" on="1"/>
        <pt x="1771" y="0" on="1"/>
        <pt x="992" y="0" on="1"/>
        <pt x="948" y="-8" on="0"/>
        <pt x="850" y="-18" on="0"/>
        <pt x="798" y="-18" on="1"/>
        <pt x="571" y="-18" on="0"/>
        <pt x="272" y="170" on="0"/>
        <pt x="125" y="509" on="0"/>
        <pt x="125" y="735" on="1"/>
        <pt x="125" y="961" on="0"/>
        <pt x="272" y="1297" on="0"/>
        <pt x="567" y="1483" on="0"/>
      </contour>
      <contour>
        <pt x="804" y="1333" on="1"/>
        <pt x="675" y="1333" on="0"/>
        <pt x="486" y="1251" on="0"/>
        <pt x="363" y="1095" on="0"/>
        <pt x="302" y="873" on="0"/>
        <pt x="302" y="733" on="1"/>
        <pt x="302" y="547" on="0"/>
        <pt x="409" y="276" on="0"/>
        <pt x="631" y="129" on="0"/>
        <pt x="801" y="129" on="1"/>
        <pt x="857" y="129" on="0"/>
        <pt x="959" y="146" on="0"/>
        <pt x="999" y="161" on="1"/>
        <pt x="999" y="1303" on="1"/>
        <pt x="958" y="1319" on="0"/>
        <pt x="860" y="1333" on="0"/>
      </contour>
    </TTGlyph>
    <TTGlyph name="Oacute" xMin="125" yMin="-20" xMax="1468" yMax="1936">
      <component glyphName="O" x="0" y="0" flags="0x604"/>
      <component glyphName="acute" x="600" y="367" flags="0x4"/>
    </TTGlyph>
    <TTGlyph name="Obreve" xMin="125" yMin="-20" xMax="1468" yMax="1878">
      <component glyphName="O" x="0" y="0" flags="0x604"/>
      <component glyphName="breve" x="412" y="367" flags="0x4"/>
    </TTGlyph>
    <TTGlyph name="Ocircumflex" xMin="125" yMin="-20" xMax="1468" yMax="1935">
      <component glyphName="O" x="0" y="0" flags="0x604"/>
      <component glyphName="circumflex" x="383" y="367" flags="0x4"/>
    </TTGlyph>
    <TTGlyph name="Odieresis" xMin="125" yMin="-20" xMax="1468" yMax="1857">
      <component glyphName="O" x="0" y="0" flags="0x604"/>
      <component glyphName="dieresis" x="204" y="367" flags="0x4"/>
    </TTGlyph>
    <TTGlyph name="Ograve" xMin="125" yMin="-20" xMax="1468" yMax="1936">
      <component glyphName="O" x="0" y="0" flags="0x604"/>
      <component glyphName="grave" x="450" y="367" flags="0x4"/>
    </TTGlyph>
    <TTGlyph name="Ohorn" xMin="125" yMin="-20" xMax="1634" yMax="1556">
      <contour>
        <pt x="1466" y="733" on="1" overlap="1"/>
        <pt x="1466" y="564" on="0"/>
        <pt x="1381" y="287" on="0"/>
        <pt x="1212" y="88" on="0"/>
        <pt x="963" y="-20" on="0"/>
        <pt x="798" y="-20" on="1"/>
        <pt x="627" y="-20" on="0"/>
        <pt x="374" y="88" on="0"/>
        <pt x="207" y="288" on="0"/>
        <pt x="125" y="566" on="0"/>
        <pt x="125" y="735" on="1"/>
        <pt x="125" y="959" on="0"/>
        <pt x="273" y="1297" on="0"/>
        <pt x="573" y="1485" on="0"/>
        <pt x="801" y="1485" on="1"/>
        <pt x="968" y="1485" on="0"/>
        <pt x="1221" y="1371" on="0"/>
        <pt x="1306" y="1269" on="1"/>
        <pt x="1362" y="1285" on="0"/>
        <pt x="1420" y="1364" on="0"/>
        <pt x="1442" y="1482" on="0"/>
        <pt x="1442" y="1556" on="1"/>
        <pt x="1620" y="1556" on="1"/>
        <pt x="1634" y="1535" on="1"/>
        <pt x="1613" y="1410" on="0"/>
        <pt x="1497" y="1212" on="0"/>
        <pt x="1372" y="1165" on="1"/>
        <pt x="1419" y="1077" on="0"/>
        <pt x="1466" y="860" on="0"/>
      </contour>
      <contour>
        <pt x="304" y="733" on="1"/>
        <pt x="304" y="547" on="0"/>
        <pt x="409" y="275" on="0"/>
        <pt x="628" y="127" on="0"/>
        <pt x="798" y="127" on="1"/>
        <pt x="969" y="127" on="0"/>
        <pt x="1185" y="275" on="0"/>
        <pt x="1287" y="547" on="0"/>
        <pt x="1287" y="733" on="1"/>
        <pt x="1287" y="1015" on="0"/>
        <pt x="1053" y="1335" on="0"/>
        <pt x="801" y="1335" on="1"/>
        <pt x="630" y="1335" on="0"/>
        <pt x="410" y="1189" on="0"/>
        <pt x="304" y="919" on="0"/>
      </contour>
    </TTGlyph>
    <TTGlyph name="Ohungarumlaut" xMin="125" yMin="-20" xMax="1468" yMax="1936">
      <component glyphName="O" x="0" y="0" flags="0x604"/>
      <component glyphName="hungarumlaut" x="466" y="367" flags="0x4"/>
    </TTGlyph>
    <TTGlyph name="Omacron" xMin="125" yMin="-20" xMax="1468" yMax="1744">
      <component glyphName="O" x="0" y="0" flags="0x604"/>
      <component glyphName="macron" x="415" y="367" flags="0x4"/>
    </TTGlyph>
    <TTGlyph name="Omegatonos" xMin="-14" yMin="0" xMax="1592" yMax="1542">
      <component glyphName="uni03A9" x="70" y="0" flags="0x404"/>
      <component glyphName="tonos" x="-534" y="-107" flags="0x4"/>
    </TTGlyph>
    <TTGlyph name="Omicron" xMin="125" yMin="-20" xMax="1468" yMax="1485">
      <component glyphName="O" x="0" y="0" flags="0x604"/>
    </TTGlyph>
    <TTGlyph name="Omicrontonos" xMin="-2" yMin="-20" xMax="1553" yMax="1540">
      <component glyphName="O" x="85" y="0" flags="0x404"/>
      <component glyphName="tonos" x="-522" y="-109" flags="0x4"/>
    </TTGlyph>
    <TTGlyph name="Oslash" xMin="125" yMin="-62" xMax="1468" yMax="1527">
      <contour>
        <pt x="1468" y="733" on="1" overlap="1"/>
        <pt x="1468" y="564" on="0"/>
        <pt x="1382" y="287" on="0"/>
        <pt x="1213" y="88" on="0"/>
        <pt x="963" y="-20" on="0"/>
        <pt x="798" y="-20" on="1"/>
        <pt x="680" y="-20" on="0"/>
        <pt x="488" y="31" on="0"/>
        <pt x="414" y="82" on="1"/>
        <pt x="312" y="-62" on="1"/>
        <pt x="196" y="14" on="1"/>
        <pt x="306" y="170" on="1"/>
        <pt x="215" y="270" on="0"/>
        <pt x="125" y="557" on="0"/>
        <pt x="125" y="735" on="1"/>
        <pt x="125" y="959" on="0"/>
        <pt x="273" y="1297" on="0"/>
        <pt x="574" y="1485" on="0"/>
        <pt x="801" y="1485" on="1"/>
        <pt x="908" y="1485" on="0"/>
        <pt x="1094" y="1434" on="0"/>
        <pt x="1169" y="1388" on="1"/>
        <pt x="1267" y="1527" on="1"/>
        <pt x="1382" y="1448" on="1"/>
        <pt x="1276" y="1300" on="1"/>
        <pt x="1369" y="1202" on="0"/>
        <pt x="1468" y="915" on="0"/>
      </contour>
      <contour>
        <pt x="1289" y="733" on="1"/>
        <pt x="1289" y="867" on="0"/>
        <pt x="1233" y="1084" on="0"/>
        <pt x="1178" y="1160" on="1"/>
        <pt x="505" y="212" on="1"/>
        <pt x="561" y="172" on="0"/>
        <pt x="707" y="127" on="0"/>
        <pt x="798" y="127" on="1"/>
        <pt x="968" y="127" on="0"/>
        <pt x="1185" y="275" on="0"/>
        <pt x="1289" y="547" on="0"/>
      </contour>
      <contour>
        <pt x="304" y="733" on="1"/>
        <pt x="304" y="603" on="0"/>
        <pt x="356" y="392" on="0"/>
        <pt x="408" y="315" on="1"/>
        <pt x="1078" y="1257" on="1"/>
        <pt x="1024" y="1295" on="0"/>
        <pt x="886" y="1335" on="0"/>
        <pt x="801" y="1335" on="1"/>
        <pt x="631" y="1335" on="0"/>
        <pt x="411" y="1189" on="0"/>
        <pt x="304" y="920" on="0"/>
      </contour>
    </TTGlyph>
    <TTGlyph name="Oslashacute" xMin="125" yMin="-62" xMax="1468" yMax="1936">
      <component glyphName="Oslash" x="0" y="0" flags="0x604"/>
      <component glyphName="acute" x="602" y="367" flags="0x4"/>
    </TTGlyph>
    <TTGlyph name="Otilde" xMin="125" yMin="-20" xMax="1468" yMax="1868">
      <component glyphName="O" x="0" y="0" flags="0x604"/>
      <component glyphName="tilde" x="338" y="367" flags="0x4"/>
    </TTGlyph>
    <TTGlyph name="P" xMin="200" yMin="0" xMax="1126" yMax="1462">
      <contour>
        <pt x="582" y="1462" on="1" overlap="1"/>
        <pt x="865" y="1462" on="0"/>
        <pt x="1126" y="1241" on="0"/>
        <pt x="1126" y="1035" on="1"/>
        <pt x="1126" y="942" on="0"/>
        <pt x="1065" y="775" on="0"/>
        <pt x="929" y="648" on="0"/>
        <pt x="708" y="575" on="0"/>
        <pt x="548" y="575" on="1"/>
        <pt x="370" y="575" on="1"/>
        <pt x="370" y="0" on="1"/>
        <pt x="200" y="0" on="1"/>
        <pt x="200" y="1462" on="1"/>
      </contour>
      <contour>
        <pt x="566" y="1317" on="1"/>
        <pt x="370" y="1317" on="1"/>
        <pt x="370" y="721" on="1"/>
        <pt x="529" y="721" on="1"/>
        <pt x="669" y="721" on="0"/>
        <pt x="856" y="781" on="0"/>
        <pt x="950" y="916" on="0"/>
        <pt x="950" y="1028" on="1"/>
        <pt x="950" y="1174" on="0"/>
        <pt x="764" y="1317" on="0"/>
      </contour>
    </TTGlyph>
    <TTGlyph name="Phi" xMin="105" yMin="-20" xMax="1525" yMax="1483">
      <contour>
        <pt x="899" y="1483" on="1" overlap="1"/>
        <pt x="899" y="1303" on="1"/>
        <pt x="1131" y="1299" on="0"/>
        <pt x="1405" y="1155" on="0"/>
        <pt x="1525" y="913" on="0"/>
        <pt x="1525" y="760" on="1"/>
        <pt x="1525" y="656" on="0"/>
        <pt x="1461" y="460" on="0"/>
        <pt x="1317" y="303" on="0"/>
        <pt x="1076" y="208" on="0"/>
        <pt x="899" y="205" on="1"/>
        <pt x="899" y="-20" on="1"/>
        <pt x="731" y="-20" on="1"/>
        <pt x="731" y="205" on="1"/>
        <pt x="550" y="208" on="0"/>
        <pt x="308" y="306" on="0"/>
        <pt x="166" y="464" on="0"/>
        <pt x="105" y="658" on="0"/>
        <pt x="105" y="758" on="1"/>
        <pt x="105" y="869" on="0"/>
        <pt x="171" y="1064" on="0"/>
        <pt x="318" y="1213" on="0"/>
        <pt x="558" y="1300" on="0"/>
        <pt x="731" y="1303" on="1"/>
        <pt x="731" y="1483" on="1"/>
      </contour>
      <contour>
        <pt x="731" y="1159" on="1"/>
        <pt x="565" y="1155" on="0"/>
        <pt x="366" y="1056" on="0"/>
        <pt x="278" y="880" on="0"/>
        <pt x="278" y="760" on="1"/>
        <pt x="278" y="634" on="0"/>
        <pt x="375" y="451" on="0"/>
        <pt x="576" y="350" on="0"/>
        <pt x="731" y="345" on="1"/>
      </contour>
      <contour>
        <pt x="899" y="1159" on="1"/>
        <pt x="899" y="345" on="1"/>
        <pt x="1059" y="350" on="0"/>
        <pt x="1259" y="454" on="0"/>
        <pt x="1353" y="638" on="0"/>
        <pt x="1353" y="762" on="1"/>
        <pt x="1353" y="883" on="0"/>
        <pt x="1265" y="1058" on="0"/>
        <pt x="1066" y="1155" on="0"/>
      </contour>
    </TTGlyph>
    <TTGlyph name="Pi" xMin="200" yMin="0" xMax="1289" yMax="1462">
      <contour>
        <pt x="200" y="0" on="1" overlap="1"/>
        <pt x="200" y="1462" on="1"/>
        <pt x="1289" y="1462" on="1"/>
        <pt x="1289" y="0" on="1"/>
        <pt x="1121" y="0" on="1"/>
        <pt x="1121" y="1312" on="1"/>
        <pt x="370" y="1312" on="1"/>
        <pt x="370" y="0" on="1"/>
      </contour>
    </TTGlyph>
    <TTGlyph name="Psi" xMin="111" yMin="0" xMax="1518" yMax="1462">
      <contour>
        <pt x="1518" y="1462" on="1" overlap="1"/>
        <pt x="1518" y="981" on="1"/>
        <pt x="1518" y="871" on="0"/>
        <pt x="1457" y="677" on="0"/>
        <pt x="1314" y="530" on="0"/>
        <pt x="1074" y="445" on="0"/>
        <pt x="895" y="445" on="1"/>
        <pt x="895" y="0" on="1"/>
        <pt x="729" y="0" on="1"/>
        <pt x="729" y="445" on="1"/>
        <pt x="550" y="445" on="0"/>
        <pt x="311" y="531" on="0"/>
        <pt x="171" y="679" on="0"/>
        <pt x="111" y="872" on="0"/>
        <pt x="111" y="979" on="1"/>
        <pt x="111" y="1462" on="1"/>
        <pt x="281" y="1462" on="1"/>
        <pt x="281" y="983" on="1"/>
        <pt x="281" y="851" on="0"/>
        <pt x="375" y="678" on="0"/>
        <pt x="573" y="593" on="0"/>
        <pt x="729" y="592" on="1"/>
        <pt x="729" y="1462" on="1"/>
        <pt x="895" y="1462" on="1"/>
        <pt x="895" y="592" on="1"/>
        <pt x="1054" y="593" on="0"/>
        <pt x="1252" y="679" on="0"/>
        <pt x="1344" y="851" on="0"/>
        <pt x="1344" y="980" on="1"/>
        <pt x="1344" y="1462" on="1"/>
      </contour>
    </TTGlyph>
    <TTGlyph name="Q" xMin="125" yMin="-348" xMax="1468" yMax="1485">
      <contour>
        <pt x="1468" y="733" on="1" overlap="1"/>
        <pt x="1468" y="553" on="0"/>
        <pt x="1370" y="261" on="0"/>
        <pt x="1177" y="59" on="0"/>
        <pt x="1033" y="13" on="1"/>
        <pt x="1377" y="-348" on="1"/>
        <pt x="1134" y="-348" on="1"/>
        <pt x="851" y="-18" on="1"/>
        <pt x="838" y="-18" on="0"/>
        <pt x="811" y="-20" on="0"/>
        <pt x="798" y="-20" on="1"/>
        <pt x="628" y="-20" on="0"/>
        <pt x="375" y="88" on="0"/>
        <pt x="208" y="288" on="0"/>
        <pt x="125" y="566" on="0"/>
        <pt x="125" y="735" on="1"/>
        <pt x="125" y="959" on="0"/>
        <pt x="273" y="1297" on="0"/>
        <pt x="574" y="1485" on="0"/>
        <pt x="801" y="1485" on="1"/>
        <pt x="1018" y="1485" on="0"/>
        <pt x="1315" y="1299" on="0"/>
        <pt x="1468" y="962" on="0"/>
      </contour>
      <contour>
        <pt x="304" y="733" on="1"/>
        <pt x="304" y="547" on="0"/>
        <pt x="410" y="275" on="0"/>
        <pt x="629" y="127" on="0"/>
        <pt x="798" y="127" on="1"/>
        <pt x="968" y="127" on="0"/>
        <pt x="1185" y="275" on="0"/>
        <pt x="1289" y="547" on="0"/>
        <pt x="1289" y="733" on="1"/>
        <pt x="1289" y="1016" on="0"/>
        <pt x="1052" y="1335" on="0"/>
        <pt x="801" y="1335" on="1"/>
        <pt x="631" y="1335" on="0"/>
        <pt x="411" y="1189" on="0"/>
        <pt x="304" y="920" on="0"/>
      </contour>
    </TTGlyph>
    <TTGlyph name="R" xMin="200" yMin="0" xMax="1230" yMax="1462">
      <contour>
        <pt x="595" y="1462" on="1" overlap="1"/>
        <pt x="775" y="1462" on="0"/>
        <pt x="1010" y="1373" on="0"/>
        <pt x="1126" y="1191" on="0"/>
        <pt x="1126" y="1050" on="1"/>
        <pt x="1126" y="934" on="0"/>
        <pt x="1042" y="779" on="0"/>
        <pt x="906" y="683" on="0"/>
        <pt x="829" y="657" on="1"/>
        <pt x="1230" y="0" on="1"/>
        <pt x="1032" y="0" on="1"/>
        <pt x="674" y="610" on="1"/>
        <pt x="370" y="610" on="1"/>
        <pt x="370" y="0" on="1"/>
        <pt x="200" y="0" on="1"/>
        <pt x="200" y="1462" on="1"/>
      </contour>
      <contour>
        <pt x="585" y="1315" on="1"/>
        <pt x="370" y="1315" on="1"/>
        <pt x="370" y="754" on="1"/>
        <pt x="602" y="754" on="1"/>
        <pt x="781" y="754" on="0"/>
        <pt x="950" y="900" on="0"/>
        <pt x="950" y="1042" on="1"/>
        <pt x="950" y="1191" on="0"/>
        <pt x="771" y="1315" on="0"/>
      </contour>
    </TTGlyph>
    <TTGlyph name="Racute" xMin="200" yMin="0" xMax="1230" yMax="1936">
      <component glyphName="R" x="0" y="0" flags="0x604"/>
      <component glyphName="acute" x="439" y="367" flags="0x4"/>
    </TTGlyph>
    <TTGlyph name="Rcaron" xMin="200" yMin="0" xMax="1230" yMax="1935">
      <component glyphName="R" x="0" y="0" flags="0x604"/>
      <component glyphName="caron" x="218" y="367" flags="0x4"/>
    </TTGlyph>
    <TTGlyph name="Rho" xMin="200" yMin="0" xMax="1126" yMax="1462">
      <component glyphName="P" x="0" y="0" flags="0x604"/>
    </TTGlyph>
    <TTGlyph name="S" xMin="105" yMin="-20" xMax="1025" yMax="1483">
      <contour>
        <pt x="1025" y="389" on="1" overlap="1"/>
        <pt x="1025" y="259" on="0"/>
        <pt x="896" y="76" on="0"/>
        <pt x="664" y="-20" on="0"/>
        <pt x="507" y="-20" on="1"/>
        <pt x="424" y="-20" on="0"/>
        <pt x="276" y="-4" on="0"/>
        <pt x="152" y="26" on="0"/>
        <pt x="105" y="48" on="1"/>
        <pt x="105" y="211" on="1"/>
        <pt x="180" y="180" on="0"/>
        <pt x="396" y="127" on="0"/>
        <pt x="514" y="127" on="1"/>
        <pt x="624" y="127" on="0"/>
        <pt x="776" y="186" on="0"/>
        <pt x="855" y="297" on="0"/>
        <pt x="855" y="375" on="1"/>
        <pt x="855" y="450" on="0"/>
        <pt x="789" y="551" on="0"/>
        <pt x="636" y="634" on="0"/>
        <pt x="504" y="681" on="1"/>
        <pt x="411" y="714" on="0"/>
        <pt x="269" y="793" on="0"/>
        <pt x="173" y="893" on="0"/>
        <pt x="124" y="1025" on="0"/>
        <pt x="124" y="1110" on="1"/>
        <pt x="124" y="1227" on="0"/>
        <pt x="243" y="1394" on="0"/>
        <pt x="454" y="1483" on="0"/>
        <pt x="591" y="1483" on="1"/>
        <pt x="708" y="1483" on="0"/>
        <pt x="907" y="1439" on="0"/>
        <pt x="990" y="1402" on="1"/>
        <pt x="937" y="1256" on="1"/>
        <pt x="858" y="1289" on="0"/>
        <pt x="681" y="1333" on="0"/>
        <pt x="587" y="1333" on="1"/>
        <pt x="493" y="1333" on="0"/>
        <pt x="364" y="1278" on="0"/>
        <pt x="296" y="1178" on="0"/>
        <pt x="296" y="1109" on="1"/>
        <pt x="296" y="1032" on="0"/>
        <pt x="361" y="930" on="0"/>
        <pt x="504" y="851" on="0"/>
        <pt x="622" y="808" on="1"/>
        <pt x="751" y="761" on="0"/>
        <pt x="931" y="656" on="0"/>
        <pt x="1025" y="505" on="0"/>
      </contour>
    </TTGlyph>
    <TTGlyph name="Sacute" xMin="105" yMin="-20" xMax="1025" yMax="1936">
      <component glyphName="S" x="0" y="0" flags="0x604"/>
      <component glyphName="acute" x="386" y="367" flags="0x4"/>
    </TTGlyph>
    <TTGlyph name="Scaron" xMin="105" yMin="-20" xMax="1025" yMax="1935">
      <component glyphName="S" x="0" y="0" flags="0x604"/>
      <component glyphName="caron" x="165" y="367" flags="0x4"/>
    </TTGlyph>
    <TTGlyph name="Scedilla" xMin="105" yMin="-492" xMax="1025" yMax="1483">
      <component glyphName="S" x="0" y="0" flags="0x604"/>
      <component glyphName="cedilla" x="303" y="0" flags="0x4"/>
    </TTGlyph>
    <TTGlyph name="Scircumflex" xMin="105" yMin="-20" xMax="1025" yMax="1935">
      <component glyphName="S" x="0" y="0" flags="0x604"/>
      <component glyphName="circumflex" x="169" y="367" flags="0x4"/>
    </TTGlyph>
    <TTGlyph name="Sigma" xMin="72" yMin="0" xMax="1114" yMax="1462">
      <contour>
        <pt x="72" y="0" on="1" overlap="1"/>
        <pt x="72" y="140" on="1"/>
        <pt x="562" y="764" on="1"/>
        <pt x="84" y="1321" on="1"/>
        <pt x="84" y="1462" on="1"/>
        <pt x="1055" y="1462" on="1"/>
        <pt x="1055" y="1310" on="1"/>
        <pt x="517" y="1310" on="1"/>
        <pt x="486" y="1310" on="0"/>
        <pt x="393" y="1310" on="0"/>
        <pt x="305" y="1311" on="0"/>
        <pt x="281" y="1312" on="1"/>
        <pt x="752" y="766" on="1"/>
        <pt x="260" y="148" on="1"/>
        <pt x="335" y="148" on="0"/>
        <pt x="485" y="150" on="0"/>
        <pt x="564" y="150" on="1"/>
        <pt x="1114" y="150" on="1"/>
        <pt x="1114" y="0" on="1"/>
      </contour>
    </TTGlyph>
    <TTGlyph name="T" xMin="18" yMin="0" xMax="1107" yMax="1462">
      <contour>
        <pt x="649" y="0" on="1" overlap="1"/>
        <pt x="478" y="0" on="1"/>
        <pt x="478" y="1312" on="1"/>
        <pt x="18" y="1312" on="1"/>
        <pt x="18" y="1462" on="1"/>
        <pt x="1107" y="1462" on="1"/>
        <pt x="1107" y="1312" on="1"/>
        <pt x="649" y="1312" on="1"/>
      </contour>
    </TTGlyph>
    <TTGlyph name="Tau" xMin="18" yMin="0" xMax="1107" yMax="1462">
      <component glyphName="T" x="0" y="0" flags="0x604"/>
    </TTGlyph>
    <TTGlyph name="Tbar" xMin="18" yMin="0" xMax="1107" yMax="1462">
      <contour>
        <pt x="477" y="0" on="1" overlap="1"/>
        <pt x="477" y="673" on="1"/>
        <pt x="162" y="673" on="1"/>
        <pt x="162" y="813" on="1"/>
        <pt x="477" y="813" on="1"/>
        <pt x="477" y="1310" on="1"/>
        <pt x="18" y="1310" on="1"/>
        <pt x="18" y="1462" on="1"/>
        <pt x="1107" y="1462" on="1"/>
        <pt x="1107" y="1310" on="1"/>
        <pt x="646" y="1310" on="1"/>
        <pt x="646" y="813" on="1"/>
        <pt x="959" y="813" on="1"/>
        <pt x="959" y="673" on="1"/>
        <pt x="646" y="673" on="1"/>
        <pt x="646" y="0" on="1"/>
      </contour>
    </TTGlyph>
    <TTGlyph name="Tcaron" xMin="18" yMin="0" xMax="1107" yMax="1935">
      <component glyphName="T" x="0" y="0" flags="0x604"/>
      <component glyphName="caron" x="145" y="367" flags="0x4"/>
    </TTGlyph>
    <TTGlyph name="Theta" xMin="125" yMin="-20" xMax="1468" yMax="1485">
      <contour>
        <pt x="1109" y="817" on="1" overlap="1"/>
        <pt x="1109" y="669" on="1"/>
        <pt x="482" y="669" on="1"/>
        <pt x="482" y="817" on="1"/>
      </contour>
      <contour>
        <pt x="1468" y="733" on="1"/>
        <pt x="1468" y="564" on="0"/>
        <pt x="1382" y="287" on="0"/>
        <pt x="1213" y="88" on="0"/>
        <pt x="963" y="-20" on="0"/>
        <pt x="798" y="-20" on="1"/>
        <pt x="628" y="-20" on="0"/>
        <pt x="375" y="88" on="0"/>
        <pt x="208" y="288" on="0"/>
        <pt x="125" y="566" on="0"/>
        <pt x="125" y="735" on="1"/>
        <pt x="125" y="959" on="0"/>
        <pt x="273" y="1297" on="0"/>
        <pt x="574" y="1485" on="0"/>
        <pt x="801" y="1485" on="1"/>
        <pt x="1018" y="1485" on="0"/>
        <pt x="1315" y="1299" on="0"/>
        <pt x="1468" y="962" on="0"/>
      </contour>
      <contour>
        <pt x="304" y="733" on="1"/>
        <pt x="304" y="547" on="0"/>
        <pt x="410" y="275" on="0"/>
        <pt x="629" y="127" on="0"/>
        <pt x="798" y="127" on="1"/>
        <pt x="968" y="127" on="0"/>
        <pt x="1185" y="275" on="0"/>
        <pt x="1289" y="547" on="0"/>
        <pt x="1289" y="733" on="1"/>
        <pt x="1289" y="1016" on="0"/>
        <pt x="1052" y="1335" on="0"/>
        <pt x="801" y="1335" on="1"/>
        <pt x="631" y="1335" on="0"/>
        <pt x="411" y="1189" on="0"/>
        <pt x="304" y="920" on="0"/>
      </contour>
    </TTGlyph>
    <TTGlyph name="Thorn" xMin="200" yMin="0" xMax="1127" yMax="1462">
      <contour>
        <pt x="1127" y="782" on="1" overlap="1"/>
        <pt x="1127" y="688" on="0"/>
        <pt x="1067" y="521" on="0"/>
        <pt x="932" y="394" on="0"/>
        <pt x="709" y="321" on="0"/>
        <pt x="546" y="321" on="1"/>
        <pt x="370" y="321" on="1"/>
        <pt x="370" y="0" on="1"/>
        <pt x="200" y="0" on="1"/>
        <pt x="200" y="1462" on="1"/>
        <pt x="370" y="1462" on="1"/>
        <pt x="370" y="1206" on="1"/>
        <pt x="579" y="1206" on="1"/>
        <pt x="869" y="1206" on="0"/>
        <pt x="1127" y="985" on="0"/>
      </contour>
      <contour>
        <pt x="370" y="466" on="1"/>
        <pt x="528" y="466" on="1"/>
        <pt x="672" y="466" on="0"/>
        <pt x="859" y="527" on="0"/>
        <pt x="951" y="662" on="0"/>
        <pt x="951" y="773" on="1"/>
        <pt x="951" y="920" on="0"/>
        <pt x="768" y="1061" on="0"/>
        <pt x="565" y="1061" on="1"/>
        <pt x="370" y="1061" on="1"/>
      </contour>
    </TTGlyph>
    <TTGlyph name="U" xMin="185" yMin="-20" xMax="1306" yMax="1462">
      <contour>
        <pt x="1306" y="1462" on="1" overlap="1"/>
        <pt x="1306" y="516" on="1"/>
        <pt x="1306" y="361" on="0"/>
        <pt x="1181" y="119" on="0"/>
        <pt x="929" y="-20" on="0"/>
        <pt x="739" y="-20" on="1"/>
        <pt x="468" y="-20" on="0"/>
        <pt x="185" y="274" on="0"/>
        <pt x="185" y="520" on="1"/>
        <pt x="185" y="1462" on="1"/>
        <pt x="356" y="1462" on="1"/>
        <pt x="356" y="515" on="1"/>
        <pt x="356" y="329" on="0"/>
        <pt x="553" y="127" on="0"/>
        <pt x="749" y="127" on="1"/>
        <pt x="883" y="127" on="0"/>
        <pt x="1054" y="224" on="0"/>
        <pt x="1137" y="399" on="0"/>
        <pt x="1137" y="514" on="1"/>
        <pt x="1137" y="1462" on="1"/>
      </contour>
    </TTGlyph>
    <TTGlyph name="Uacute" xMin="185" yMin="-20" xMax="1306" yMax="1936">
      <component glyphName="U" x="0" y="0" flags="0x604"/>
      <component glyphName="acute" x="550" y="367" flags="0x4"/>
    </TTGlyph>
    <TTGlyph name="Ubreve" xMin="185" yMin="-20" xMax="1306" yMax="1878">
      <component glyphName="U" x="0" y="0" flags="0x604"/>
      <component glyphName="breve" x="362" y="367" flags="0x4"/>
    </TTGlyph>
    <TTGlyph name="Ucircumflex" xMin="185" yMin="-20" xMax="1306" yMax="1935">
      <component glyphName="U" x="0" y="0" flags="0x604"/>
      <component glyphName="circumflex" x="333" y="367" flags="0x4"/>
    </TTGlyph>
    <TTGlyph name="Udieresis" xMin="185" yMin="-20" xMax="1306" yMax="1857">
      <component glyphName="U" x="0" y="0" flags="0x604"/>
      <component glyphName="dieresis" x="155" y="367" flags="0x4"/>
    </TTGlyph>
    <TTGlyph name="Ugrave" xMin="185" yMin="-20" xMax="1306" yMax="1936">
      <component glyphName="U" x="0" y="0" flags="0x604"/>
      <component glyphName="grave" x="399" y="367" flags="0x4"/>
    </TTGlyph>
    <TTGlyph name="Uhorn" xMin="185" yMin="-20" xMax="1656" yMax="1556">
      <contour>
        <pt x="1306" y="1462" on="1" overlap="1"/>
        <pt x="1306" y="1262" on="1"/>
        <pt x="1371" y="1273" on="0"/>
        <pt x="1440" y="1349" on="0"/>
        <pt x="1467" y="1473" on="0"/>
        <pt x="1467" y="1556" on="1"/>
        <pt x="1642" y="1556" on="1"/>
        <pt x="1656" y="1535" on="1"/>
        <pt x="1644" y="1462" on="0"/>
        <pt x="1599" y="1333" on="0"/>
        <pt x="1520" y="1230" on="0"/>
        <pt x="1396" y="1160" on="0"/>
        <pt x="1306" y="1144" on="1"/>
        <pt x="1306" y="516" on="1"/>
        <pt x="1306" y="361" on="0"/>
        <pt x="1189" y="119" on="0"/>
        <pt x="945" y="-20" on="0"/>
        <pt x="753" y="-20" on="1"/>
        <pt x="476" y="-20" on="0"/>
        <pt x="185" y="274" on="0"/>
        <pt x="185" y="520" on="1"/>
        <pt x="185" y="1462" on="1"/>
        <pt x="356" y="1462" on="1"/>
        <pt x="356" y="513" on="1"/>
        <pt x="356" y="329" on="0"/>
        <pt x="557" y="127" on="0"/>
        <pt x="757" y="127" on="1"/>
        <pt x="891" y="127" on="0"/>
        <pt x="1059" y="224" on="0"/>
        <pt x="1137" y="398" on="0"/>
        <pt x="1137" y="512" on="1"/>
        <pt x="1137" y="1462" on="1"/>
      </contour>
    </TTGlyph>
    <TTGlyph name="Uhungarumlaut" xMin="185" yMin="-20" xMax="1306" yMax="1936">
      <component glyphName="U" x="0" y="0" flags="0x604"/>
      <component glyphName="hungarumlaut" x="416" y="367" flags="0x4"/>
    </TTGlyph>
    <TTGlyph name="Umacron" xMin="185" yMin="-20" xMax="1306" yMax="1744">
      <component glyphName="U" x="0" y="0" flags="0x604"/>
      <component glyphName="macron" x="365" y="367" flags="0x4"/>
    </TTGlyph>
    <TTGlyph name="Uogonek" xMin="185" yMin="-450" xMax="1306" yMax="1462">
      <contour>
        <pt x="946" y="-222" on="1" overlap="1"/>
        <pt x="946" y="-284" on="0"/>
        <pt x="997" y="-337" on="0"/>
        <pt x="1042" y="-337" on="1"/>
        <pt x="1075" y="-337" on="0"/>
        <pt x="1123" y="-328" on="0"/>
        <pt x="1140" y="-324" on="1"/>
        <pt x="1140" y="-432" on="1"/>
        <pt x="1112" y="-439" on="0"/>
        <pt x="1055" y="-450" on="0"/>
        <pt x="1016" y="-450" on="1"/>
        <pt x="910" y="-450" on="0"/>
        <pt x="810" y="-345" on="0"/>
        <pt x="810" y="-242" on="1"/>
        <pt x="810" y="-177" on="0"/>
        <pt x="875" y="-51" on="0"/>
        <pt x="969" y="53" on="0"/>
        <pt x="1012" y="84" on="1"/>
        <pt x="1130" y="102" on="1"/>
        <pt x="1070" y="35" on="0"/>
        <pt x="988" y="-74" on="0"/>
        <pt x="946" y="-171" on="0"/>
      </contour>
      <contour>
        <pt x="1306" y="1462" on="1"/>
        <pt x="1306" y="516" on="1"/>
        <pt x="1306" y="361" on="0"/>
        <pt x="1181" y="119" on="0"/>
        <pt x="929" y="-20" on="0"/>
        <pt x="739" y="-20" on="1"/>
        <pt x="468" y="-20" on="0"/>
        <pt x="185" y="274" on="0"/>
        <pt x="185" y="520" on="1"/>
        <pt x="185" y="1462" on="1"/>
        <pt x="356" y="1462" on="1"/>
        <pt x="356" y="515" on="1"/>
        <pt x="356" y="329" on="0"/>
        <pt x="553" y="127" on="0"/>
        <pt x="749" y="127" on="1"/>
        <pt x="883" y="127" on="0"/>
        <pt x="1054" y="224" on="0"/>
        <pt x="1137" y="399" on="0"/>
        <pt x="1137" y="514" on="1"/>
        <pt x="1137" y="1462" on="1"/>
      </contour>
    </TTGlyph>
    <TTGlyph name="Uogonek.loclNAV" xMin="185" yMin="-450" xMax="1306" yMax="1462">
      <component glyphName="U" x="0" y="0" flags="0x604"/>
      <component glyphName="ogonek" x="495" y="0" flags="0x4"/>
    </TTGlyph>
    <TTGlyph name="Upsilon" xMin="0" yMin="0" xMax="1145" yMax="1462">
      <component glyphName="Y" x="0" y="0" flags="0x604"/>
    </TTGlyph>
    <TTGlyph name="Upsilondieresis" xMin="0" yMin="0" xMax="1145" yMax="1857">
      <component glyphName="Y" x="0" y="0" flags="0x604"/>
      <component glyphName="dieresis" x="-20" y="367" flags="0x4"/>
    </TTGlyph>
    <TTGlyph name="Upsilontonos" xMin="-2" yMin="0" xMax="1454" yMax="1540">
      <component glyphName="Y" x="309" y="0" flags="0x404"/>
      <component glyphName="tonos" x="-522" y="-109" flags="0x4"/>
    </TTGlyph>
    <TTGlyph name="Uring" xMin="185" yMin="-20" xMax="1306" yMax="2039">
      <component glyphName="U" x="0" y="0" flags="0x604"/>
      <component glyphName="ring" x="445" y="367" flags="0x4"/>
    </TTGlyph>
    <TTGlyph name="Utilde" xMin="185" yMin="-20" xMax="1306" yMax="1868">
      <component glyphName="U" x="0" y="0" flags="0x604"/>
      <component glyphName="tilde" x="294" y="367" flags="0x4"/>
    </TTGlyph>
    <TTGlyph name="V" xMin="0" yMin="0" xMax="1221" yMax="1462">
      <contour>
        <pt x="1221" y="1462" on="1" overlap="1"/>
        <pt x="696" y="0" on="1"/>
        <pt x="525" y="0" on="1"/>
        <pt x="0" y="1462" on="1"/>
        <pt x="178" y="1462" on="1"/>
        <pt x="520" y="499" on="1"/>
        <pt x="541" y="441" on="0"/>
        <pt x="574" y="335" on="0"/>
        <pt x="600" y="237" on="0"/>
        <pt x="610" y="191" on="1"/>
        <pt x="620" y="237" on="0"/>
        <pt x="646" y="336" on="0"/>
        <pt x="680" y="443" on="0"/>
        <pt x="701" y="502" on="1"/>
        <pt x="1041" y="1462" on="1"/>
      </contour>
    </TTGlyph>
    <TTGlyph name="W" xMin="30" yMin="0" xMax="1861" yMax="1462">
      <contour>
        <pt x="1861" y="1462" on="1" overlap="1"/>
        <pt x="1470" y="0" on="1"/>
        <pt x="1299" y="0" on="1"/>
        <pt x="1009" y="984" on="1"/>
        <pt x="996" y="1026" on="0"/>
        <pt x="973" y="1111" on="0"/>
        <pt x="953" y="1188" on="0"/>
        <pt x="940" y="1247" on="0"/>
        <pt x="937" y="1262" on="1"/>
        <pt x="935" y="1247" on="0"/>
        <pt x="924" y="1189" on="0"/>
        <pt x="907" y="1113" on="0"/>
        <pt x="884" y="1027" on="0"/>
        <pt x="871" y="983" on="1"/>
        <pt x="589" y="0" on="1"/>
        <pt x="418" y="0" on="1"/>
        <pt x="30" y="1462" on="1"/>
        <pt x="207" y="1462" on="1"/>
        <pt x="442" y="545" on="1"/>
        <pt x="454" y="499" on="0"/>
        <pt x="475" y="410" on="0"/>
        <pt x="492" y="326" on="0"/>
        <pt x="506" y="246" on="0"/>
        <pt x="512" y="208" on="1"/>
        <pt x="517" y="247" on="0"/>
        <pt x="533" y="332" on="0"/>
        <pt x="552" y="420" on="0"/>
        <pt x="575" y="510" on="0"/>
        <pt x="588" y="555" on="1"/>
        <pt x="851" y="1462" on="1"/>
        <pt x="1026" y="1462" on="1"/>
        <pt x="1300" y="548" on="1"/>
        <pt x="1314" y="501" on="0"/>
        <pt x="1338" y="409" on="0"/>
        <pt x="1357" y="322" on="0"/>
        <pt x="1372" y="243" on="0"/>
        <pt x="1378" y="208" on="1"/>
        <pt x="1385" y="257" on="0"/>
        <pt x="1405" y="365" on="0"/>
        <pt x="1432" y="483" on="0"/>
        <pt x="1448" y="546" on="1"/>
        <pt x="1683" y="1462" on="1"/>
      </contour>
    </TTGlyph>
    <TTGlyph name="Wacute" xMin="30" yMin="0" xMax="1861" yMax="1936">
      <component glyphName="W" x="0" y="0" flags="0x604"/>
      <component glyphName="acute" x="749" y="367" flags="0x4"/>
    </TTGlyph>
    <TTGlyph name="Wcircumflex" xMin="30" yMin="0" xMax="1861" yMax="1935">
      <component glyphName="W" x="0" y="0" flags="0x604"/>
      <component glyphName="circumflex" x="530" y="367" flags="0x4"/>
    </TTGlyph>
    <TTGlyph name="Wdieresis" xMin="30" yMin="0" xMax="1861" yMax="1857">
      <component glyphName="W" x="0" y="0" flags="0x604"/>
      <component glyphName="dieresis" x="352" y="367" flags="0x4"/>
    </TTGlyph>
    <TTGlyph name="Wgrave" xMin="30" yMin="0" xMax="1861" yMax="1936">
      <component glyphName="W" x="0" y="0" flags="0x604"/>
      <component glyphName="grave" x="597" y="367" flags="0x4"/>
    </TTGlyph>
    <TTGlyph name="X" xMin="6" yMin="0" xMax="1176" yMax="1462">
      <contour>
        <pt x="1176" y="0" on="1" overlap="1"/>
        <pt x="983" y="0" on="1"/>
        <pt x="588" y="644" on="1"/>
        <pt x="187" y="0" on="1"/>
        <pt x="6" y="0" on="1"/>
        <pt x="493" y="762" on="1"/>
        <pt x="40" y="1462" on="1"/>
        <pt x="229" y="1462" on="1"/>
        <pt x="594" y="879" on="1"/>
        <pt x="961" y="1462" on="1"/>
        <pt x="1141" y="1462" on="1"/>
        <pt x="689" y="765" on="1"/>
      </contour>
    </TTGlyph>
    <TTGlyph name="Xi" xMin="67" yMin="0" xMax="1060" yMax="1462">
      <contour>
        <pt x="67" y="0" on="1" overlap="1"/>
        <pt x="67" y="150" on="1"/>
        <pt x="1060" y="150" on="1"/>
        <pt x="1060" y="0" on="1"/>
      </contour>
      <contour>
        <pt x="190" y="690" on="1"/>
        <pt x="190" y="839" on="1"/>
        <pt x="937" y="839" on="1"/>
        <pt x="937" y="690" on="1"/>
      </contour>
      <contour>
        <pt x="108" y="1312" on="1"/>
        <pt x="108" y="1462" on="1"/>
        <pt x="1019" y="1462" on="1"/>
        <pt x="1019" y="1312" on="1"/>
      </contour>
    </TTGlyph>
    <TTGlyph name="Y" xMin="0" yMin="0" xMax="1145" yMax="1462">
      <contour>
        <pt x="573" y="729" on="1" overlap="1"/>
        <pt x="962" y="1462" on="1"/>
        <pt x="1145" y="1462" on="1"/>
        <pt x="658" y="567" on="1"/>
        <pt x="658" y="0" on="1"/>
        <pt x="488" y="0" on="1"/>
        <pt x="488" y="559" on="1"/>
        <pt x="0" y="1462" on="1"/>
        <pt x="186" y="1462" on="1"/>
      </contour>
    </TTGlyph>
    <TTGlyph name="Yacute" xMin="0" yMin="0" xMax="1145" yMax="1936">
      <component glyphName="Y" x="0" y="0" flags="0x604"/>
      <component glyphName="acute" x="376" y="367" flags="0x4"/>
    </TTGlyph>
    <TTGlyph name="Ycircumflex" xMin="0" yMin="0" xMax="1145" yMax="1935">
      <component glyphName="Y" x="0" y="0" flags="0x604"/>
      <component glyphName="circumflex" x="158" y="367" flags="0x4"/>
    </TTGlyph>
    <TTGlyph name="Ydieresis" xMin="0" yMin="0" xMax="1145" yMax="1857">
      <component glyphName="Y" x="0" y="0" flags="0x604"/>
      <component glyphName="dieresis" x="-20" y="367" flags="0x4"/>
    </TTGlyph>
    <TTGlyph name="Ygrave" xMin="0" yMin="0" xMax="1145" yMax="1936">
      <component glyphName="Y" x="0" y="0" flags="0x604"/>
      <component glyphName="grave" x="224" y="367" flags="0x4"/>
    </TTGlyph>
    <TTGlyph name="Z" xMin="78" yMin="0" xMax="1093" yMax="1462">
      <contour>
        <pt x="1093" y="0" on="1" overlap="1"/>
        <pt x="78" y="0" on="1"/>
        <pt x="78" y="128" on="1"/>
        <pt x="865" y="1310" on="1"/>
        <pt x="105" y="1310" on="1"/>
        <pt x="105" y="1462" on="1"/>
        <pt x="1072" y="1462" on="1"/>
        <pt x="1072" y="1334" on="1"/>
        <pt x="284" y="152" on="1"/>
        <pt x="1093" y="152" on="1"/>
      </contour>
    </TTGlyph>
    <TTGlyph name="Zacute" xMin="78" yMin="0" xMax="1093" yMax="1936">
      <component glyphName="Z" x="0" y="0" flags="0x604"/>
      <component glyphName="acute" x="397" y="367" flags="0x4"/>
    </TTGlyph>
    <TTGlyph name="Zcaron" xMin="78" yMin="0" xMax="1093" yMax="1935">
      <component glyphName="Z" x="0" y="0" flags="0x604"/>
      <component glyphName="caron" x="175" y="367" flags="0x4"/>
    </TTGlyph>
    <TTGlyph name="Zdotaccent" xMin="78" yMin="0" xMax="1093" yMax="1873">
      <component glyphName="Z" x="0" y="0" flags="0x604"/>
      <component glyphName="dotaccent" x="415" y="367" flags="0x4"/>
    </TTGlyph>
    <TTGlyph name="Zeta" xMin="78" yMin="0" xMax="1093" yMax="1462">
      <component glyphName="Z" x="0" y="0" flags="0x604"/>
    </TTGlyph>
    <TTGlyph name="a" xMin="94" yMin="-20" xMax="971" yMax="1114">
      <contour>
        <pt x="585" y="1114" on="1" overlap="1"/>
        <pt x="781" y="1114" on="0"/>
        <pt x="971" y="938" on="0"/>
        <pt x="971" y="745" on="1"/>
        <pt x="971" y="0" on="1"/>
        <pt x="850" y="0" on="1"/>
        <pt x="818" y="162" on="1"/>
        <pt x="810" y="162" on="1"/>
        <pt x="764" y="102" on="0"/>
        <pt x="664" y="21" on="0"/>
        <pt x="533" y="-20" on="0"/>
        <pt x="438" y="-20" on="1"/>
        <pt x="338" y="-20" on="0"/>
        <pt x="183" y="50" on="0"/>
        <pt x="94" y="192" on="0"/>
        <pt x="94" y="301" on="1"/>
        <pt x="94" y="465" on="0"/>
        <pt x="354" y="641" on="0"/>
        <pt x="620" y="649" on="1"/>
        <pt x="809" y="657" on="1"/>
        <pt x="809" y="724" on="1"/>
        <pt x="809" y="866" on="0"/>
        <pt x="687" y="980" on="0"/>
        <pt x="576" y="980" on="1"/>
        <pt x="490" y="980" on="0"/>
        <pt x="334" y="930" on="0"/>
        <pt x="264" y="896" on="1"/>
        <pt x="213" y="1022" on="1"/>
        <pt x="287" y="1060" on="0"/>
        <pt x="479" y="1114" on="0"/>
      </contour>
      <contour>
        <pt x="807" y="540" on="1"/>
        <pt x="640" y="533" on="1"/>
        <pt x="435" y="525" on="0"/>
        <pt x="267" y="407" on="0"/>
        <pt x="267" y="299" on="1"/>
        <pt x="267" y="205" on="0"/>
        <pt x="381" y="115" on="0"/>
        <pt x="475" y="115" on="1"/>
        <pt x="621" y="115" on="0"/>
        <pt x="807" y="277" on="0"/>
        <pt x="807" y="439" on="1"/>
      </contour>
    </TTGlyph>
    <TTGlyph name="aacute" xMin="94" yMin="-20" xMax="971" yMax="1569">
      <component glyphName="a" x="0" y="0" flags="0x604"/>
      <component glyphName="acute" x="372" y="0" flags="0x4"/>
    </TTGlyph>
    <TTGlyph name="abreve" xMin="94" yMin="-20" xMax="971" yMax="1511">
      <component glyphName="a" x="0" y="0" flags="0x604"/>
      <component glyphName="breve" x="183" y="0" flags="0x4"/>
    </TTGlyph>
    <TTGlyph name="acircumflex" xMin="94" yMin="-20" xMax="971" yMax="1568">
      <component glyphName="a" x="0" y="0" flags="0x604"/>
      <component glyphName="circumflex" x="154" y="0" flags="0x4"/>
    </TTGlyph>
    <TTGlyph name="acute" xMin="82" yMin="1241" xMax="487" yMax="1569">
      <contour>
        <pt x="487" y="1569" on="1" overlap="1"/>
        <pt x="487" y="1549" on="1"/>
        <pt x="467" y="1520" on="0"/>
        <pt x="398" y="1439" on="0"/>
        <pt x="314" y="1350" on="0"/>
        <pt x="229" y="1270" on="0"/>
        <pt x="193" y="1241" on="1"/>
        <pt x="82" y="1241" on="1"/>
        <pt x="82" y="1265" on="1"/>
        <pt x="114" y="1303" on="0"/>
        <pt x="190" y="1410" on="0"/>
        <pt x="262" y="1523" on="0"/>
        <pt x="286" y="1569" on="1"/>
      </contour>
    </TTGlyph>
    <TTGlyph name="acutecomb" xMin="-640" yMin="1241" xMax="-235" yMax="1569">
      <component glyphName="acute" x="-722" y="0" flags="0x404"/>
    </TTGlyph>
    <TTGlyph name="adieresis" xMin="94" yMin="-20" xMax="971" yMax="1490">
      <component glyphName="a" x="0" y="0" flags="0x604"/>
      <component glyphName="dieresis" x="-24" y="0" flags="0x4"/>
    </TTGlyph>
    <TTGlyph name="ae" xMin="94" yMin="-20" xMax="1661" yMax="1116">
      <contour>
        <pt x="1235" y="1116" on="1" overlap="1"/>
        <pt x="1368" y="1116" on="0"/>
        <pt x="1559" y="992" on="0"/>
        <pt x="1661" y="770" on="0"/>
        <pt x="1660" y="624" on="1"/>
        <pt x="1660" y="519" on="1"/>
        <pt x="951" y="519" on="1"/>
        <pt x="955" y="317" on="0"/>
        <pt x="1121" y="122" on="0"/>
        <pt x="1277" y="122" on="1"/>
        <pt x="1377" y="122" on="0"/>
        <pt x="1531" y="160" on="0"/>
        <pt x="1612" y="197" on="1"/>
        <pt x="1612" y="51" on="1"/>
        <pt x="1530" y="14" on="0"/>
        <pt x="1373" y="-20" on="0"/>
        <pt x="1272" y="-20" on="1"/>
        <pt x="1176" y="-20" on="0"/>
        <pt x="1017" y="35" on="0"/>
        <pt x="896" y="142" on="0"/>
        <pt x="856" y="220" on="1"/>
        <pt x="811" y="147" on="0"/>
        <pt x="700" y="39" on="0"/>
        <pt x="548" y="-20" on="0"/>
        <pt x="441" y="-20" on="1"/>
        <pt x="341" y="-20" on="0"/>
        <pt x="184" y="50" on="0"/>
        <pt x="94" y="192" on="0"/>
        <pt x="94" y="301" on="1"/>
        <pt x="94" y="410" on="0"/>
        <pt x="205" y="561" on="0"/>
        <pt x="428" y="644" on="0"/>
        <pt x="595" y="649" on="1"/>
        <pt x="781" y="657" on="1"/>
        <pt x="781" y="728" on="1"/>
        <pt x="781" y="867" on="0"/>
        <pt x="655" y="980" on="0"/>
        <pt x="547" y="980" on="1"/>
        <pt x="466" y="980" on="0"/>
        <pt x="309" y="931" on="0"/>
        <pt x="239" y="896" on="1"/>
        <pt x="187" y="1022" on="1"/>
        <pt x="261" y="1061" on="0"/>
        <pt x="460" y="1114" on="0"/>
        <pt x="560" y="1114" on="1"/>
        <pt x="689" y="1114" on="0"/>
        <pt x="854" y="1024" on="0"/>
        <pt x="893" y="923" on="1"/>
        <pt x="946" y="1014" on="0"/>
        <pt x="1120" y="1116" on="0"/>
      </contour>
      <contour>
        <pt x="777" y="540" on="1"/>
        <pt x="620" y="533" on="1"/>
        <pt x="427" y="525" on="0"/>
        <pt x="267" y="407" on="0"/>
        <pt x="267" y="299" on="1"/>
        <pt x="267" y="205" on="0"/>
        <pt x="376" y="115" on="0"/>
        <pt x="467" y="115" on="1"/>
        <pt x="557" y="115" on="0"/>
        <pt x="697" y="187" on="0"/>
        <pt x="777" y="331" on="0"/>
        <pt x="777" y="439" on="1"/>
      </contour>
      <contour>
        <pt x="1233" y="980" on="1"/>
        <pt x="1112" y="980" on="0"/>
        <pt x="966" y="811" on="0"/>
        <pt x="955" y="650" on="1"/>
        <pt x="1484" y="650" on="1"/>
        <pt x="1485" y="749" on="0"/>
        <pt x="1431" y="898" on="0"/>
        <pt x="1319" y="980" on="0"/>
      </contour>
    </TTGlyph>
    <TTGlyph name="aeacute" xMin="94" yMin="-20" xMax="1661" yMax="1569">
      <component glyphName="ae" x="0" y="0" flags="0x604"/>
      <component glyphName="acute" x="698" y="0" flags="0x4"/>
    </TTGlyph>
    <TTGlyph name="afii08941" xMin="70" yMin="0" xMax="1094" yMax="1481">
      <contour>
        <pt x="690" y="1481" on="1" overlap="1"/>
        <pt x="802" y="1481" on="0"/>
        <pt x="978" y="1436" on="0"/>
        <pt x="1046" y="1403" on="1"/>
        <pt x="987" y="1272" on="1"/>
        <pt x="923" y="1301" on="0"/>
        <pt x="775" y="1340" on="0"/>
        <pt x="692" y="1340" on="1"/>
        <pt x="577" y="1340" on="0"/>
        <pt x="446" y="1214" on="0"/>
        <pt x="446" y="1072" on="1"/>
        <pt x="446" y="894" on="1"/>
        <pt x="858" y="894" on="1"/>
        <pt x="858" y="770" on="1"/>
        <pt x="446" y="770" on="1"/>
        <pt x="446" y="593" on="1"/>
        <pt x="858" y="593" on="1"/>
        <pt x="858" y="467" on="1"/>
        <pt x="444" y="467" on="1"/>
        <pt x="444" y="375" on="0"/>
        <pt x="408" y="251" on="0"/>
        <pt x="345" y="174" on="0"/>
        <pt x="302" y="152" on="1"/>
        <pt x="1094" y="152" on="1"/>
        <pt x="1094" y="0" on="1"/>
        <pt x="70" y="0" on="1"/>
        <pt x="70" y="141" on="1"/>
        <pt x="137" y="154" on="0"/>
        <pt x="230" y="231" on="0"/>
        <pt x="279" y="367" on="0"/>
        <pt x="279" y="467" on="1"/>
        <pt x="79" y="467" on="1"/>
        <pt x="79" y="593" on="1"/>
        <pt x="279" y="593" on="1"/>
        <pt x="279" y="770" on="1"/>
        <pt x="79" y="770" on="1"/>
        <pt x="79" y="894" on="1"/>
        <pt x="279" y="894" on="1"/>
        <pt x="279" y="1033" on="1"/>
        <pt x="279" y="1174" on="0"/>
        <pt x="364" y="1374" on="0"/>
        <pt x="546" y="1481" on="0"/>
      </contour>
    </TTGlyph>
    <TTGlyph name="afii10103dotless" xMin="175" yMin="0" xMax="341" yMax="1096">
      <component glyphName="dotlessi" x="0" y="0" flags="0x604"/>
    </TTGlyph>
    <TTGlyph name="afii10105dotless" xMin="-112" yMin="-492" xMax="341" yMax="1096">
      <component glyphName="uni0237" x="0" y="0" flags="0x604"/>
    </TTGlyph>
    <TTGlyph name="agrave" xMin="94" yMin="-20" xMax="971" yMax="1569">
      <component glyphName="a" x="0" y="0" flags="0x604"/>
      <component glyphName="grave" x="220" y="0" flags="0x4"/>
    </TTGlyph>
    <TTGlyph name="alpha" xMin="114" yMin="-20" xMax="1223" yMax="1116">
      <contour>
        <pt x="591" y="118" on="1" overlap="1"/>
        <pt x="706" y="118" on="0"/>
        <pt x="845" y="208" on="0"/>
        <pt x="909" y="393" on="0"/>
        <pt x="909" y="534" on="1"/>
        <pt x="909" y="550" on="1"/>
        <pt x="909" y="760" on="0"/>
        <pt x="770" y="976" on="0"/>
        <pt x="591" y="976" on="1"/>
        <pt x="436" y="976" on="0"/>
        <pt x="286" y="754" on="0"/>
        <pt x="286" y="542" on="1"/>
        <pt x="286" y="332" on="0"/>
        <pt x="433" y="118" on="0"/>
      </contour>
      <contour>
        <pt x="564" y="-20" on="1"/>
        <pt x="360" y="-20" on="0"/>
        <pt x="114" y="264" on="0"/>
        <pt x="114" y="544" on="1"/>
        <pt x="114" y="821" on="0"/>
        <pt x="360" y="1116" on="0"/>
        <pt x="581" y="1116" on="1"/>
        <pt x="703" y="1116" on="0"/>
        <pt x="866" y="1028" on="0"/>
        <pt x="918" y="942" on="1"/>
        <pt x="930" y="942" on="1"/>
        <pt x="938" y="980" on="0"/>
        <pt x="970" y="1064" on="0"/>
        <pt x="992" y="1096" on="1"/>
        <pt x="1124" y="1096" on="1"/>
        <pt x="1109" y="1050" on="0"/>
        <pt x="1086" y="908" on="0"/>
        <pt x="1073" y="748" on="0"/>
        <pt x="1073" y="673" on="1"/>
        <pt x="1073" y="242" on="1"/>
        <pt x="1073" y="172" on="0"/>
        <pt x="1123" y="116" on="0"/>
        <pt x="1160" y="116" on="1"/>
        <pt x="1176" y="116" on="0"/>
        <pt x="1213" y="123" on="0"/>
        <pt x="1223" y="127" on="1"/>
        <pt x="1223" y="5" on="1"/>
        <pt x="1213" y="-1" on="0"/>
        <pt x="1177" y="-12" on="0"/>
        <pt x="1134" y="-20" on="0"/>
        <pt x="1112" y="-20" on="1"/>
        <pt x="1036" y="-20" on="0"/>
        <pt x="941" y="56" on="0"/>
        <pt x="922" y="156" on="1"/>
        <pt x="909" y="156" on="1"/>
        <pt x="878" y="108" on="0"/>
        <pt x="789" y="28" on="0"/>
        <pt x="658" y="-20" on="0"/>
      </contour>
    </TTGlyph>
    <TTGlyph name="alphatonos" xMin="114" yMin="-20" xMax="1223" yMax="1649">
      <component glyphName="alpha" x="0" y="0" flags="0x604"/>
      <component glyphName="tonos" x="35" y="0" flags="0x4"/>
    </TTGlyph>
    <TTGlyph name="amacron" xMin="94" yMin="-20" xMax="971" yMax="1377">
      <component glyphName="a" x="0" y="0" flags="0x604"/>
      <component glyphName="macron" x="186" y="0" flags="0x4"/>
    </TTGlyph>
    <TTGlyph name="ampersand" xMin="111" yMin="-20" xMax="1481" yMax="1485">
      <contour>
        <pt x="623" y="1485" on="1" overlap="1"/>
        <pt x="731" y="1485" on="0"/>
        <pt x="888" y="1410" on="0"/>
        <pt x="973" y="1270" on="0"/>
        <pt x="973" y="1171" on="1"/>
        <pt x="973" y="1041" on="0"/>
        <pt x="804" y="861" on="0"/>
        <pt x="674" y="787" on="1"/>
        <pt x="1080" y="393" on="1"/>
        <pt x="1135" y="457" on="0"/>
        <pt x="1205" y="626" on="0"/>
        <pt x="1229" y="725" on="1"/>
        <pt x="1397" y="725" on="1"/>
        <pt x="1365" y="593" on="0"/>
        <pt x="1264" y="371" on="0"/>
        <pt x="1188" y="287" on="1"/>
        <pt x="1481" y="0" on="1"/>
        <pt x="1256" y="0" on="1"/>
        <pt x="1075" y="177" on="1"/>
        <pt x="1011" y="118" on="0"/>
        <pt x="864" y="29" on="0"/>
        <pt x="685" y="-20" on="0"/>
        <pt x="570" y="-20" on="1"/>
        <pt x="430" y="-20" on="0"/>
        <pt x="224" y="72" on="0"/>
        <pt x="111" y="250" on="0"/>
        <pt x="111" y="379" on="1"/>
        <pt x="111" y="485" on="0"/>
        <pt x="189" y="637" on="0"/>
        <pt x="333" y="755" on="0"/>
        <pt x="433" y="811" on="1"/>
        <pt x="386" y="863" on="0"/>
        <pt x="302" y="970" on="0"/>
        <pt x="250" y="1093" on="0"/>
        <pt x="250" y="1167" on="1"/>
        <pt x="250" y="1267" on="0"/>
        <pt x="341" y="1409" on="0"/>
        <pt x="508" y="1485" on="0"/>
      </contour>
      <contour>
        <pt x="533" y="706" on="1"/>
        <pt x="455" y="661" on="0"/>
        <pt x="344" y="573" on="0"/>
        <pt x="285" y="463" on="0"/>
        <pt x="285" y="385" on="1"/>
        <pt x="285" y="268" on="0"/>
        <pt x="443" y="127" on="0"/>
        <pt x="575" y="127" on="1"/>
        <pt x="711" y="127" on="0"/>
        <pt x="902" y="217" on="0"/>
        <pt x="969" y="281" on="1"/>
      </contour>
      <contour>
        <pt x="617" y="1348" on="1"/>
        <pt x="526" y="1348" on="0"/>
        <pt x="413" y="1253" on="0"/>
        <pt x="413" y="1168" on="1"/>
        <pt x="413" y="1092" on="0"/>
        <pt x="495" y="964" on="0"/>
        <pt x="571" y="886" on="1"/>
        <pt x="696" y="955" on="0"/>
        <pt x="809" y="1084" on="0"/>
        <pt x="809" y="1171" on="1"/>
        <pt x="809" y="1250" on="0"/>
        <pt x="704" y="1348" on="0"/>
      </contour>
    </TTGlyph>
    <TTGlyph name="anoteleia" xMin="150" yMin="861" xMax="388" yMax="1122">
      <component glyphName="period" x="0" y="889" flags="0x604"/>
    </TTGlyph>
    <TTGlyph name="aogonek" xMin="94" yMin="-450" xMax="1022" yMax="1114">
      <component glyphName="a" x="0" y="0" flags="0x604"/>
      <component glyphName="ogonek" x="609" y="0" flags="0x4"/>
    </TTGlyph>
    <TTGlyph name="aogonek.loclNAV" xMin="94" yMin="-450" xMax="971" yMax="1114">
      <contour>
        <pt x="609" y="-450" on="1" overlap="1"/>
        <pt x="505" y="-450" on="0"/>
        <pt x="404" y="-350" on="0"/>
        <pt x="404" y="-260" on="1"/>
        <pt x="404" y="-187" on="0"/>
        <pt x="476" y="-50" on="0"/>
        <pt x="585" y="66" on="0"/>
        <pt x="639" y="105" on="1"/>
        <pt x="731" y="75" on="1"/>
        <pt x="670" y="19" on="0"/>
        <pt x="585" y="-83" on="0"/>
        <pt x="540" y="-184" on="0"/>
        <pt x="540" y="-241" on="1"/>
        <pt x="540" y="-288" on="0"/>
        <pt x="591" y="-337" on="0"/>
        <pt x="635" y="-337" on="1"/>
        <pt x="669" y="-337" on="0"/>
        <pt x="717" y="-329" on="0"/>
        <pt x="733" y="-324" on="1"/>
        <pt x="733" y="-432" on="1"/>
        <pt x="706" y="-439" on="0"/>
        <pt x="649" y="-450" on="0"/>
      </contour>
      <contour>
        <pt x="585" y="1114" on="1"/>
        <pt x="781" y="1114" on="0"/>
        <pt x="971" y="938" on="0"/>
        <pt x="971" y="745" on="1"/>
        <pt x="971" y="0" on="1"/>
        <pt x="850" y="0" on="1"/>
        <pt x="818" y="162" on="1"/>
        <pt x="810" y="162" on="1"/>
        <pt x="764" y="102" on="0"/>
        <pt x="664" y="21" on="0"/>
        <pt x="533" y="-20" on="0"/>
        <pt x="438" y="-20" on="1"/>
        <pt x="338" y="-20" on="0"/>
        <pt x="183" y="50" on="0"/>
        <pt x="94" y="192" on="0"/>
        <pt x="94" y="301" on="1"/>
        <pt x="94" y="465" on="0"/>
        <pt x="354" y="641" on="0"/>
        <pt x="620" y="649" on="1"/>
        <pt x="809" y="657" on="1"/>
        <pt x="809" y="724" on="1"/>
        <pt x="809" y="866" on="0"/>
        <pt x="687" y="980" on="0"/>
        <pt x="576" y="980" on="1"/>
        <pt x="490" y="980" on="0"/>
        <pt x="334" y="930" on="0"/>
        <pt x="264" y="896" on="1"/>
        <pt x="213" y="1022" on="1"/>
        <pt x="287" y="1060" on="0"/>
        <pt x="479" y="1114" on="0"/>
      </contour>
      <contour>
        <pt x="807" y="540" on="1"/>
        <pt x="640" y="533" on="1"/>
        <pt x="435" y="525" on="0"/>
        <pt x="267" y="407" on="0"/>
        <pt x="267" y="299" on="1"/>
        <pt x="267" y="205" on="0"/>
        <pt x="381" y="115" on="0"/>
        <pt x="475" y="115" on="1"/>
        <pt x="621" y="115" on="0"/>
        <pt x="807" y="277" on="0"/>
        <pt x="807" y="439" on="1"/>
      </contour>
    </TTGlyph>
    <TTGlyph name="approxequal" xMin="103" yMin="398" xMax="1065" yMax="1051">
      <component glyphName="asciitilde" x="0" y="200" flags="0x604"/>
      <component glyphName="asciitilde" x="0" y="-195" flags="0x204"/>
    </TTGlyph>
    <TTGlyph name="aring" xMin="94" yMin="-20" xMax="971" yMax="1672">
      <component glyphName="a" x="0" y="0" flags="0x604"/>
      <component glyphName="ring" x="266" y="0" flags="0x4"/>
    </TTGlyph>
    <TTGlyph name="aringacute" xMin="94" yMin="-20" xMax="971" yMax="1960">
      <contour>
        <pt x="585" y="1114" on="1" overlap="1"/>
        <pt x="781" y="1114" on="0"/>
        <pt x="971" y="938" on="0"/>
        <pt x="971" y="745" on="1"/>
        <pt x="971" y="0" on="1"/>
        <pt x="850" y="0" on="1"/>
        <pt x="818" y="162" on="1"/>
        <pt x="810" y="162" on="1"/>
        <pt x="764" y="102" on="0"/>
        <pt x="664" y="21" on="0"/>
        <pt x="533" y="-20" on="0"/>
        <pt x="438" y="-20" on="1"/>
        <pt x="338" y="-20" on="0"/>
        <pt x="183" y="50" on="0"/>
        <pt x="94" y="192" on="0"/>
        <pt x="94" y="301" on="1"/>
        <pt x="94" y="465" on="0"/>
        <pt x="354" y="641" on="0"/>
        <pt x="620" y="649" on="1"/>
        <pt x="809" y="657" on="1"/>
        <pt x="809" y="724" on="1"/>
        <pt x="809" y="866" on="0"/>
        <pt x="687" y="980" on="0"/>
        <pt x="576" y="980" on="1"/>
        <pt x="490" y="980" on="0"/>
        <pt x="334" y="930" on="0"/>
        <pt x="264" y="896" on="1"/>
        <pt x="213" y="1022" on="1"/>
        <pt x="287" y="1060" on="0"/>
        <pt x="479" y="1114" on="0"/>
      </contour>
      <contour>
        <pt x="807" y="540" on="1"/>
        <pt x="640" y="533" on="1"/>
        <pt x="435" y="525" on="0"/>
        <pt x="267" y="407" on="0"/>
        <pt x="267" y="299" on="1"/>
        <pt x="267" y="205" on="0"/>
        <pt x="381" y="115" on="0"/>
        <pt x="475" y="115" on="1"/>
        <pt x="621" y="115" on="0"/>
        <pt x="807" y="277" on="0"/>
        <pt x="807" y="439" on="1"/>
      </contour>
      <contour>
        <pt x="580" y="1569" on="1"/>
        <pt x="528" y="1569" on="0"/>
        <pt x="460" y="1505" on="0"/>
        <pt x="460" y="1450" on="1"/>
        <pt x="460" y="1395" on="0"/>
        <pt x="523" y="1330" on="0"/>
        <pt x="580" y="1330" on="1"/>
        <pt x="632" y="1330" on="0"/>
        <pt x="698" y="1395" on="0"/>
        <pt x="698" y="1450" on="1"/>
        <pt x="698" y="1505" on="0"/>
        <pt x="630" y="1569" on="0"/>
      </contour>
      <contour>
        <pt x="580" y="1664" on="1"/>
        <pt x="644" y="1664" on="0"/>
        <pt x="745" y="1612" on="0"/>
        <pt x="804" y="1517" on="0"/>
        <pt x="804" y="1451" on="1"/>
        <pt x="804" y="1349" on="0"/>
        <pt x="677" y="1234" on="0"/>
        <pt x="580" y="1234" on="1"/>
        <pt x="482" y="1234" on="0"/>
        <pt x="358" y="1348" on="0"/>
        <pt x="358" y="1450" on="1"/>
        <pt x="358" y="1550" on="0"/>
        <pt x="482" y="1664" on="0"/>
      </contour>
      <contour>
        <pt x="897" y="1960" on="1"/>
        <pt x="897" y="1948" on="1"/>
        <pt x="874" y="1922" on="0"/>
        <pt x="763" y="1845" on="0"/>
        <pt x="636" y="1768" on="0"/>
        <pt x="589" y="1742" on="1"/>
        <pt x="469" y="1742" on="1"/>
        <pt x="469" y="1757" on="1"/>
        <pt x="499" y="1785" on="0"/>
        <pt x="567" y="1856" on="0"/>
        <pt x="629" y="1929" on="0"/>
        <pt x="651" y="1960" on="1"/>
      </contour>
    </TTGlyph>
    <TTGlyph name="asciicircum" xMin="80" yMin="549" xMax="1092" yMax="1473">
      <contour>
        <pt x="80" y="549" on="1" overlap="1"/>
        <pt x="519" y="1473" on="1"/>
        <pt x="615" y="1473" on="1"/>
        <pt x="1092" y="549" on="1"/>
        <pt x="943" y="549" on="1"/>
        <pt x="569" y="1295" on="1"/>
        <pt x="229" y="549" on="1"/>
      </contour>
    </TTGlyph>
    <TTGlyph name="asciitilde" xMin="103" yMin="593" xMax="1065" yMax="851">
      <contour>
        <pt x="554" y="658" on="1" overlap="1"/>
        <pt x="483" y="690" on="0"/>
        <pt x="385" y="715" on="0"/>
        <pt x="338" y="715" on="1"/>
        <pt x="281" y="715" on="0"/>
        <pt x="154" y="647" on="0"/>
        <pt x="103" y="595" on="1"/>
        <pt x="103" y="744" on="1"/>
        <pt x="153" y="797" on="0"/>
        <pt x="276" y="851" on="0"/>
        <pt x="349" y="851" on="1"/>
        <pt x="411" y="851" on="0"/>
        <pt x="528" y="824" on="0"/>
        <pt x="616" y="786" on="1"/>
        <pt x="689" y="755" on="0"/>
        <pt x="785" y="729" on="0"/>
        <pt x="830" y="729" on="1"/>
        <pt x="889" y="729" on="0"/>
        <pt x="1015" y="797" on="0"/>
        <pt x="1065" y="849" on="1"/>
        <pt x="1065" y="702" on="1"/>
        <pt x="1017" y="650" on="0"/>
        <pt x="895" y="593" on="0"/>
        <pt x="821" y="593" on="1"/>
        <pt x="761" y="593" on="0"/>
        <pt x="643" y="619" on="0"/>
      </contour>
    </TTGlyph>
    <TTGlyph name="asterisk" xMin="89" yMin="646" xMax="1034" yMax="1556">
      <contour>
        <pt x="651" y="1556" on="1" overlap="1"/>
        <pt x="613" y="1159" on="1"/>
        <pt x="1008" y="1274" on="1"/>
        <pt x="1034" y="1099" on="1"/>
        <pt x="656" y="1060" on="1"/>
        <pt x="900" y="735" on="1"/>
        <pt x="738" y="646" on="1"/>
        <pt x="557" y="1002" on="1"/>
        <pt x="391" y="646" on="1"/>
        <pt x="223" y="735" on="1"/>
        <pt x="465" y="1060" on="1"/>
        <pt x="89" y="1099" on="1"/>
        <pt x="117" y="1274" on="1"/>
        <pt x="506" y="1159" on="1"/>
        <pt x="467" y="1556" on="1"/>
      </contour>
    </TTGlyph>
    <TTGlyph name="at" xMin="118" yMin="-185" xMax="1719" yMax="1460">
      <contour>
        <pt x="1719" y="730" on="1" overlap="1"/>
        <pt x="1719" y="635" on="0"/>
        <pt x="1676" y="454" on="0"/>
        <pt x="1588" y="309" on="0"/>
        <pt x="1457" y="223" on="0"/>
        <pt x="1368" y="223" on="1"/>
        <pt x="1275" y="223" on="0"/>
        <pt x="1165" y="331" on="0"/>
        <pt x="1154" y="405" on="1"/>
        <pt x="1145" y="405" on="1"/>
        <pt x="1107" y="326" on="0"/>
        <pt x="960" y="223" on="0"/>
        <pt x="853" y="223" on="1"/>
        <pt x="697" y="223" on="0"/>
        <pt x="528" y="430" on="0"/>
        <pt x="528" y="602" on="1"/>
        <pt x="528" y="736" on="0"/>
        <pt x="635" y="943" on="0"/>
        <pt x="830" y="1062" on="0"/>
        <pt x="963" y="1062" on="1"/>
        <pt x="1052" y="1062" on="0"/>
        <pt x="1220" y="1032" on="0"/>
        <pt x="1270" y="1014" on="1"/>
        <pt x="1250" y="611" on="1"/>
        <pt x="1249" y="574" on="0"/>
        <pt x="1247" y="535" on="0"/>
        <pt x="1247" y="524" on="1"/>
        <pt x="1247" y="416" on="0"/>
        <pt x="1324" y="341" on="0"/>
        <pt x="1379" y="341" on="1"/>
        <pt x="1446" y="341" on="0"/>
        <pt x="1537" y="446" on="0"/>
        <pt x="1585" y="623" on="0"/>
        <pt x="1585" y="731" on="1"/>
        <pt x="1585" y="922" on="0"/>
        <pt x="1431" y="1192" on="0"/>
        <pt x="1160" y="1334" on="0"/>
        <pt x="984" y="1334" on="1"/>
        <pt x="809" y="1334" on="0"/>
        <pt x="538" y="1224" on="0"/>
        <pt x="351" y="1023" on="0"/>
        <pt x="255" y="747" on="0"/>
        <pt x="255" y="580" on="1"/>
        <pt x="255" y="376" on="0"/>
        <pt x="400" y="90" on="0"/>
        <pt x="681" y="-59" on="0"/>
        <pt x="883" y="-59" on="1"/>
        <pt x="1005" y="-59" on="0"/>
        <pt x="1231" y="-5" on="0"/>
        <pt x="1320" y="29" on="1"/>
        <pt x="1320" y="-101" on="1"/>
        <pt x="1232" y="-138" on="0"/>
        <pt x="1014" y="-185" on="0"/>
        <pt x="883" y="-185" on="1"/>
        <pt x="642" y="-185" on="0"/>
        <pt x="300" y="-4" on="0"/>
        <pt x="118" y="336" on="0"/>
        <pt x="118" y="574" on="1"/>
        <pt x="118" y="767" on="0"/>
        <pt x="237" y="1091" on="0"/>
        <pt x="462" y="1329" on="0"/>
        <pt x="783" y="1460" on="0"/>
        <pt x="984" y="1460" on="1"/>
        <pt x="1199" y="1460" on="0"/>
        <pt x="1530" y="1283" on="0"/>
        <pt x="1719" y="956" on="0"/>
      </contour>
      <contour>
        <pt x="677" y="598" on="1"/>
        <pt x="677" y="465" on="0"/>
        <pt x="783" y="341" on="0"/>
        <pt x="877" y="341" on="1"/>
        <pt x="993" y="341" on="0"/>
        <pt x="1102" y="515" on="0"/>
        <pt x="1110" y="658" on="1"/>
        <pt x="1122" y="919" on="1"/>
        <pt x="1093" y="928" on="0"/>
        <pt x="1010" y="941" on="0"/>
        <pt x="965" y="941" on="1"/>
        <pt x="862" y="941" on="0"/>
        <pt x="735" y="843" on="0"/>
        <pt x="677" y="687" on="0"/>
      </contour>
    </TTGlyph>
    <TTGlyph name="atilde" xMin="94" yMin="-20" xMax="971" yMax="1501">
      <component glyphName="a" x="0" y="0" flags="0x604"/>
      <component glyphName="tilde" x="109" y="0" flags="0x4"/>
    </TTGlyph>
    <TTGlyph name="b" xMin="175" yMin="-20" xMax="1139" yMax="1556">
      <contour>
        <pt x="341" y="1556" on="1" overlap="1"/>
        <pt x="341" y="1167" on="1"/>
        <pt x="341" y="1100" on="0"/>
        <pt x="334" y="974" on="0"/>
        <pt x="332" y="939" on="1"/>
        <pt x="341" y="939" on="1"/>
        <pt x="386" y="1013" on="0"/>
        <pt x="556" y="1115" on="0"/>
        <pt x="688" y="1115" on="1"/>
        <pt x="894" y="1115" on="0"/>
        <pt x="1139" y="830" on="0"/>
        <pt x="1139" y="549" on="1"/>
        <pt x="1139" y="364" on="0"/>
        <pt x="1027" y="110" on="0"/>
        <pt x="823" y="-20" on="0"/>
        <pt x="684" y="-20" on="1"/>
        <pt x="554" y="-20" on="0"/>
        <pt x="387" y="77" on="0"/>
        <pt x="342" y="147" on="1"/>
        <pt x="329" y="147" on="1"/>
        <pt x="295" y="0" on="1"/>
        <pt x="175" y="0" on="1"/>
        <pt x="175" y="1556" on="1"/>
      </contour>
      <contour>
        <pt x="661" y="976" on="1"/>
        <pt x="542" y="976" on="0"/>
        <pt x="402" y="883" on="0"/>
        <pt x="341" y="696" on="0"/>
        <pt x="341" y="553" on="1"/>
        <pt x="341" y="544" on="1"/>
        <pt x="341" y="337" on="0"/>
        <pt x="479" y="118" on="0"/>
        <pt x="661" y="118" on="1"/>
        <pt x="814" y="118" on="0"/>
        <pt x="967" y="342" on="0"/>
        <pt x="967" y="550" on="1"/>
        <pt x="967" y="762" on="0"/>
        <pt x="816" y="976" on="0"/>
      </contour>
    </TTGlyph>
    <TTGlyph name="backslash" xMin="21" yMin="0" xMax="731" yMax="1462">
      <contour>
        <pt x="185" y="1462" on="1" overlap="1"/>
        <pt x="731" y="0" on="1"/>
        <pt x="566" y="0" on="1"/>
        <pt x="21" y="1462" on="1"/>
      </contour>
    </TTGlyph>
    <TTGlyph name="bar" xMin="492" yMin="-496" xMax="631" yMax="1557">
      <contour>
        <pt x="492" y="1557" on="1" overlap="1"/>
        <pt x="631" y="1557" on="1"/>
        <pt x="631" y="-496" on="1"/>
        <pt x="492" y="-496" on="1"/>
      </contour>
    </TTGlyph>
    <TTGlyph name="beta" xMin="175" yMin="-492" xMax="1190" yMax="1567">
      <contour>
        <pt x="662" y="1567" on="1" overlap="1"/>
        <pt x="798" y="1567" on="0"/>
        <pt x="1007" y="1480" on="0"/>
        <pt x="1126" y="1307" on="0"/>
        <pt x="1126" y="1178" on="1"/>
        <pt x="1126" y="1031" on="0"/>
        <pt x="968" y="856" on="0"/>
        <pt x="819" y="831" on="1"/>
        <pt x="819" y="823" on="1"/>
        <pt x="1001" y="802" on="0"/>
        <pt x="1190" y="602" on="0"/>
        <pt x="1190" y="417" on="1"/>
        <pt x="1190" y="278" on="0"/>
        <pt x="1071" y="83" on="0"/>
        <pt x="849" y="-19" on="0"/>
        <pt x="692" y="-19" on="1"/>
        <pt x="575" y="-19" on="0"/>
        <pt x="411" y="21" on="0"/>
        <pt x="342" y="56" on="1"/>
        <pt x="342" y="-492" on="1"/>
        <pt x="175" y="-492" on="1"/>
        <pt x="175" y="1097" on="1"/>
        <pt x="175" y="1259" on="0"/>
        <pt x="300" y="1467" on="0"/>
        <pt x="520" y="1567" on="0"/>
      </contour>
      <contour>
        <pt x="658" y="1428" on="1"/>
        <pt x="571" y="1428" on="0"/>
        <pt x="427" y="1365" on="0"/>
        <pt x="342" y="1217" on="0"/>
        <pt x="342" y="1088" on="1"/>
        <pt x="342" y="206" on="1"/>
        <pt x="415" y="166" on="0"/>
        <pt x="573" y="118" on="0"/>
        <pt x="678" y="118" on="1"/>
        <pt x="857" y="118" on="0"/>
        <pt x="1024" y="280" on="0"/>
        <pt x="1024" y="428" on="1"/>
        <pt x="1024" y="536" on="0"/>
        <pt x="935" y="677" on="0"/>
        <pt x="773" y="745" on="0"/>
        <pt x="661" y="745" on="1"/>
        <pt x="551" y="745" on="1"/>
        <pt x="551" y="886" on="1"/>
        <pt x="642" y="886" on="1"/>
        <pt x="803" y="886" on="0"/>
        <pt x="955" y="1040" on="0"/>
        <pt x="955" y="1170" on="1"/>
        <pt x="955" y="1298" on="0"/>
        <pt x="795" y="1428" on="0"/>
      </contour>
    </TTGlyph>
    <TTGlyph name="braceleft" xMin="57" yMin="-324" xMax="702" yMax="1462">
      <contour>
        <pt x="702" y="-324" on="1" overlap="1"/>
        <pt x="578" y="-323" on="0"/>
        <pt x="399" y="-252" on="0"/>
        <pt x="304" y="-110" on="0"/>
        <pt x="304" y="-3" on="1"/>
        <pt x="304" y="303" on="1"/>
        <pt x="304" y="374" on="0"/>
        <pt x="248" y="461" on="0"/>
        <pt x="138" y="501" on="0"/>
        <pt x="57" y="501" on="1"/>
        <pt x="57" y="639" on="1"/>
        <pt x="138" y="640" on="0"/>
        <pt x="248" y="679" on="0"/>
        <pt x="304" y="765" on="0"/>
        <pt x="304" y="836" on="1"/>
        <pt x="304" y="1144" on="1"/>
        <pt x="304" y="1251" on="0"/>
        <pt x="404" y="1392" on="0"/>
        <pt x="583" y="1462" on="0"/>
        <pt x="702" y="1462" on="1"/>
        <pt x="702" y="1326" on="1"/>
        <pt x="628" y="1324" on="0"/>
        <pt x="523" y="1282" on="0"/>
        <pt x="468" y="1196" on="0"/>
        <pt x="468" y="1128" on="1"/>
        <pt x="468" y="827" on="1"/>
        <pt x="468" y="723" on="0"/>
        <pt x="362" y="597" on="0"/>
        <pt x="252" y="577" on="1"/>
        <pt x="252" y="565" on="1"/>
        <pt x="364" y="546" on="0"/>
        <pt x="468" y="420" on="0"/>
        <pt x="468" y="315" on="1"/>
        <pt x="468" y="8" on="1"/>
        <pt x="468" y="-60" on="0"/>
        <pt x="522" y="-145" on="0"/>
        <pt x="627" y="-185" on="0"/>
        <pt x="702" y="-186" on="1"/>
      </contour>
    </TTGlyph>
    <TTGlyph name="braceright" xMin="67" yMin="-324" xMax="712" yMax="1462">
      <contour>
        <pt x="67" y="-324" on="1" overlap="1"/>
        <pt x="67" y="-186" on="1"/>
        <pt x="141" y="-184" on="0"/>
        <pt x="245" y="-143" on="0"/>
        <pt x="300" y="-58" on="0"/>
        <pt x="300" y="10" on="1"/>
        <pt x="300" y="313" on="1"/>
        <pt x="300" y="418" on="0"/>
        <pt x="407" y="544" on="0"/>
        <pt x="516" y="563" on="1"/>
        <pt x="516" y="575" on="1"/>
        <pt x="405" y="595" on="0"/>
        <pt x="300" y="721" on="0"/>
        <pt x="300" y="825" on="1"/>
        <pt x="300" y="1129" on="1"/>
        <pt x="300" y="1198" on="0"/>
        <pt x="246" y="1284" on="0"/>
        <pt x="142" y="1325" on="0"/>
        <pt x="67" y="1326" on="1"/>
        <pt x="67" y="1462" on="1"/>
        <pt x="191" y="1461" on="0"/>
        <pt x="369" y="1391" on="0"/>
        <pt x="464" y="1250" on="0"/>
        <pt x="464" y="1142" on="1"/>
        <pt x="464" y="838" on="1"/>
        <pt x="464" y="766" on="0"/>
        <pt x="520" y="679" on="0"/>
        <pt x="631" y="639" on="0"/>
        <pt x="712" y="639" on="1"/>
        <pt x="712" y="501" on="1"/>
        <pt x="631" y="501" on="0"/>
        <pt x="520" y="461" on="0"/>
        <pt x="464" y="375" on="0"/>
        <pt x="464" y="305" on="1"/>
        <pt x="464" y="-5" on="1"/>
        <pt x="464" y="-111" on="0"/>
        <pt x="364" y="-253" on="0"/>
        <pt x="186" y="-324" on="0"/>
      </contour>
    </TTGlyph>
    <TTGlyph name="bracketleft" xMin="166" yMin="-324" xMax="619" yMax="1462">
      <contour>
        <pt x="619" y="-324" on="1" overlap="1"/>
        <pt x="166" y="-324" on="1"/>
        <pt x="166" y="1462" on="1"/>
        <pt x="619" y="1462" on="1"/>
        <pt x="619" y="1326" on="1"/>
        <pt x="328" y="1326" on="1"/>
        <pt x="328" y="-186" on="1"/>
        <pt x="619" y="-186" on="1"/>
      </contour>
    </TTGlyph>
    <TTGlyph name="bracketright" xMin="51" yMin="-324" xMax="505" yMax="1462">
      <contour>
        <pt x="51" y="-186" on="1" overlap="1"/>
        <pt x="342" y="-186" on="1"/>
        <pt x="342" y="1326" on="1"/>
        <pt x="51" y="1326" on="1"/>
        <pt x="51" y="1462" on="1"/>
        <pt x="505" y="1462" on="1"/>
        <pt x="505" y="-324" on="1"/>
        <pt x="51" y="-324" on="1"/>
      </contour>
    </TTGlyph>
    <TTGlyph name="breve" xMin="82" yMin="1241" xMax="704" yMax="1511">
      <contour>
        <pt x="704" y="1511" on="1" overlap="1"/>
        <pt x="697" y="1430" on="0"/>
        <pt x="620" y="1309" on="0"/>
        <pt x="484" y="1241" on="0"/>
        <pt x="388" y="1241" on="1"/>
        <pt x="241" y="1241" on="0"/>
        <pt x="90" y="1387" on="0"/>
        <pt x="82" y="1511" on="1"/>
        <pt x="186" y="1511" on="1"/>
        <pt x="192" y="1455" on="0"/>
        <pt x="242" y="1397" on="0"/>
        <pt x="330" y="1376" on="0"/>
        <pt x="392" y="1376" on="1"/>
        <pt x="447" y="1376" on="0"/>
        <pt x="535" y="1399" on="0"/>
        <pt x="591" y="1458" on="0"/>
        <pt x="598" y="1511" on="1"/>
      </contour>
    </TTGlyph>
    <TTGlyph name="breveacutecomb" xMin="-907" yMin="1241" xMax="-312" yMax="1730">
      <contour>
        <pt x="-312" y="1505" on="1" overlap="1"/>
        <pt x="-323" y="1383" on="0"/>
        <pt x="-472" y="1241" on="0"/>
        <pt x="-612" y="1241" on="1"/>
        <pt x="-755" y="1241" on="0"/>
        <pt x="-899" y="1380" on="0"/>
        <pt x="-907" y="1505" on="1"/>
        <pt x="-805" y="1505" on="1"/>
        <pt x="-797" y="1420" on="0"/>
        <pt x="-698" y="1367" on="0"/>
        <pt x="-610" y="1367" on="1"/>
        <pt x="-531" y="1367" on="0"/>
        <pt x="-424" y="1424" on="0"/>
        <pt x="-414" y="1505" on="1"/>
      </contour>
      <contour>
        <pt x="-381" y="1730" on="1"/>
        <pt x="-381" y="1709" on="1"/>
        <pt x="-410" y="1671" on="0"/>
        <pt x="-476" y="1596" on="0"/>
        <pt x="-547" y="1530" on="0"/>
        <pt x="-583" y="1502" on="1"/>
        <pt x="-676" y="1502" on="1"/>
        <pt x="-676" y="1524" on="1"/>
        <pt x="-637" y="1574" on="0"/>
        <pt x="-577" y="1666" on="0"/>
        <pt x="-547" y="1730" on="1"/>
      </contour>
    </TTGlyph>
    <TTGlyph name="brevegravecomb" xMin="-907" yMin="1241" xMax="-312" yMax="1730">
      <contour>
        <pt x="-312" y="1505" on="1" overlap="1"/>
        <pt x="-323" y="1383" on="0"/>
        <pt x="-471" y="1241" on="0"/>
        <pt x="-612" y="1241" on="1"/>
        <pt x="-755" y="1241" on="0"/>
        <pt x="-898" y="1380" on="0"/>
        <pt x="-907" y="1505" on="1"/>
        <pt x="-805" y="1505" on="1"/>
        <pt x="-797" y="1420" on="0"/>
        <pt x="-698" y="1367" on="0"/>
        <pt x="-610" y="1367" on="1"/>
        <pt x="-530" y="1367" on="0"/>
        <pt x="-424" y="1423" on="0"/>
        <pt x="-414" y="1505" on="1"/>
      </contour>
      <contour>
        <pt x="-684" y="1730" on="1"/>
        <pt x="-653" y="1666" on="0"/>
        <pt x="-596" y="1574" on="0"/>
        <pt x="-556" y="1524" on="1"/>
        <pt x="-556" y="1502" on="1"/>
        <pt x="-647" y="1502" on="1"/>
        <pt x="-682" y="1530" on="0"/>
        <pt x="-754" y="1596" on="0"/>
        <pt x="-820" y="1671" on="0"/>
        <pt x="-849" y="1709" on="1"/>
        <pt x="-849" y="1730" on="1"/>
      </contour>
    </TTGlyph>
    <TTGlyph name="brevehookcomb" xMin="-907" yMin="1241" xMax="-312" yMax="1798">
      <contour>
        <pt x="-312" y="1505" on="1" overlap="1"/>
        <pt x="-323" y="1383" on="0"/>
        <pt x="-471" y="1241" on="0"/>
        <pt x="-612" y="1241" on="1"/>
        <pt x="-755" y="1241" on="0"/>
        <pt x="-898" y="1380" on="0"/>
        <pt x="-907" y="1505" on="1"/>
        <pt x="-805" y="1505" on="1"/>
        <pt x="-797" y="1420" on="0"/>
        <pt x="-698" y="1367" on="0"/>
        <pt x="-610" y="1367" on="1"/>
        <pt x="-530" y="1367" on="0"/>
        <pt x="-424" y="1423" on="0"/>
        <pt x="-414" y="1505" on="1"/>
      </contour>
      <contour>
        <pt x="-651" y="1798" on="1"/>
        <pt x="-560" y="1798" on="0"/>
        <pt x="-463" y="1730" on="0"/>
        <pt x="-463" y="1659" on="1"/>
        <pt x="-463" y="1601" on="0"/>
        <pt x="-537" y="1542" on="0"/>
        <pt x="-590" y="1531" on="1"/>
        <pt x="-596" y="1486" on="1"/>
        <pt x="-675" y="1486" on="1"/>
        <pt x="-684" y="1580" on="1"/>
        <pt x="-625" y="1589" on="0"/>
        <pt x="-563" y="1621" on="0"/>
        <pt x="-563" y="1657" on="1"/>
        <pt x="-563" y="1692" on="0"/>
        <pt x="-618" y="1720" on="0"/>
        <pt x="-662" y="1720" on="1"/>
        <pt x="-685" y="1720" on="0"/>
        <pt x="-725" y="1715" on="0"/>
        <pt x="-738" y="1713" on="1"/>
        <pt x="-738" y="1789" on="1"/>
        <pt x="-723" y="1794" on="0"/>
        <pt x="-680" y="1798" on="0"/>
      </contour>
    </TTGlyph>
    <TTGlyph name="brevetildecomb" xMin="-921" yMin="1241" xMax="-282" yMax="1802">
      <contour>
        <pt x="-312" y="1502" on="1" overlap="1"/>
        <pt x="-323" y="1381" on="0"/>
        <pt x="-471" y="1241" on="0"/>
        <pt x="-612" y="1241" on="1"/>
        <pt x="-755" y="1241" on="0"/>
        <pt x="-898" y="1378" on="0"/>
        <pt x="-907" y="1502" on="1"/>
        <pt x="-805" y="1502" on="1"/>
        <pt x="-797" y="1418" on="0"/>
        <pt x="-698" y="1367" on="0"/>
        <pt x="-610" y="1367" on="1"/>
        <pt x="-530" y="1367" on="0"/>
        <pt x="-424" y="1420" on="0"/>
        <pt x="-414" y="1502" on="1"/>
      </contour>
      <contour>
        <pt x="-282" y="1802" on="1"/>
        <pt x="-288" y="1739" on="0"/>
        <pt x="-335" y="1642" on="0"/>
        <pt x="-414" y="1587" on="0"/>
        <pt x="-468" y="1587" on="1"/>
        <pt x="-505" y="1587" on="0"/>
        <pt x="-576" y="1617" on="0"/>
        <pt x="-642" y="1657" on="0"/>
        <pt x="-705" y="1687" on="0"/>
        <pt x="-734" y="1687" on="1"/>
        <pt x="-775" y="1687" on="0"/>
        <pt x="-819" y="1638" on="0"/>
        <pt x="-833" y="1585" on="1"/>
        <pt x="-921" y="1585" on="1"/>
        <pt x="-910" y="1680" on="0"/>
        <pt x="-814" y="1800" on="0"/>
        <pt x="-733" y="1800" on="1"/>
        <pt x="-695" y="1800" on="0"/>
        <pt x="-623" y="1770" on="0"/>
        <pt x="-556" y="1731" on="0"/>
        <pt x="-494" y="1701" on="0"/>
        <pt x="-466" y="1701" on="1"/>
        <pt x="-425" y="1701" on="0"/>
        <pt x="-381" y="1751" on="0"/>
        <pt x="-370" y="1802" on="1"/>
      </contour>
    </TTGlyph>
    <TTGlyph name="brokenbar" xMin="492" yMin="-496" xMax="631" yMax="1557">
      <contour>
        <pt x="492" y="1557" on="1" overlap="1"/>
        <pt x="631" y="1557" on="1"/>
        <pt x="631" y="780" on="1"/>
        <pt x="492" y="780" on="1"/>
      </contour>
      <contour>
        <pt x="492" y="282" on="1"/>
        <pt x="631" y="282" on="1"/>
        <pt x="631" y="-496" on="1"/>
        <pt x="492" y="-496" on="1"/>
      </contour>
    </TTGlyph>
    <TTGlyph name="bullet" xMin="171" yMin="507" xMax="599" yMax="988">
      <contour>
        <pt x="171" y="748" on="1" overlap="1"/>
        <pt x="171" y="835" on="0"/>
        <pt x="227" y="940" on="0"/>
        <pt x="324" y="988" on="0"/>
        <pt x="385" y="988" on="1"/>
        <pt x="446" y="988" on="0"/>
        <pt x="543" y="940" on="0"/>
        <pt x="599" y="834" on="0"/>
        <pt x="599" y="748" on="1"/>
        <pt x="599" y="664" on="0"/>
        <pt x="543" y="557" on="0"/>
        <pt x="446" y="507" on="0"/>
        <pt x="385" y="507" on="1"/>
        <pt x="324" y="507" on="0"/>
        <pt x="227" y="557" on="0"/>
        <pt x="171" y="663" on="0"/>
      </contour>
    </TTGlyph>
    <TTGlyph name="c" xMin="114" yMin="-20" xMax="914" yMax="1116">
      <contour>
        <pt x="614" y="-20" on="1" overlap="1"/>
        <pt x="466" y="-20" on="0"/>
        <pt x="240" y="102" on="0"/>
        <pt x="114" y="352" on="0"/>
        <pt x="114" y="542" on="1"/>
        <pt x="114" y="741" on="0"/>
        <pt x="247" y="994" on="0"/>
        <pt x="481" y="1116" on="0"/>
        <pt x="630" y="1116" on="1"/>
        <pt x="712" y="1116" on="0"/>
        <pt x="865" y="1083" on="0"/>
        <pt x="914" y="1058" on="1"/>
        <pt x="864" y="919" on="1"/>
        <pt x="814" y="939" on="0"/>
        <pt x="683" y="971" on="0"/>
        <pt x="626" y="971" on="1"/>
        <pt x="512" y="971" on="0"/>
        <pt x="361" y="873" on="0"/>
        <pt x="286" y="683" on="0"/>
        <pt x="286" y="544" on="1"/>
        <pt x="286" y="411" on="0"/>
        <pt x="359" y="223" on="0"/>
        <pt x="504" y="124" on="0"/>
        <pt x="613" y="124" on="1"/>
        <pt x="700" y="124" on="0"/>
        <pt x="840" y="161" on="0"/>
        <pt x="897" y="186" on="1"/>
        <pt x="897" y="38" on="1"/>
        <pt x="842" y="10" on="0"/>
        <pt x="707" y="-20" on="0"/>
      </contour>
    </TTGlyph>
    <TTGlyph name="cacute" xMin="114" yMin="-20" xMax="914" yMax="1569">
      <component glyphName="c" x="0" y="0" flags="0x604"/>
      <component glyphName="acute" x="385" y="0" flags="0x4"/>
    </TTGlyph>
    <TTGlyph name="caron" xMin="82" yMin="1241" xMax="755" yMax="1568">
      <contour>
        <pt x="332" y="1241" on="1" overlap="1"/>
        <pt x="306" y="1287" on="0"/>
        <pt x="216" y="1397" on="0"/>
        <pt x="119" y="1504" on="0"/>
        <pt x="82" y="1543" on="1"/>
        <pt x="82" y="1568" on="1"/>
        <pt x="196" y="1568" on="1"/>
        <pt x="250" y="1531" on="0"/>
        <pt x="365" y="1428" on="0"/>
        <pt x="415" y="1372" on="1"/>
        <pt x="469" y="1428" on="0"/>
        <pt x="583" y="1531" on="0"/>
        <pt x="637" y="1568" on="1"/>
        <pt x="755" y="1568" on="1"/>
        <pt x="755" y="1543" on="1"/>
        <pt x="716" y="1504" on="0"/>
        <pt x="616" y="1397" on="0"/>
        <pt x="526" y="1287" on="0"/>
        <pt x="501" y="1241" on="1"/>
      </contour>
    </TTGlyph>
    <TTGlyph name="caroncommaaccent" xMin="393" yMin="1229" xMax="629" yMax="1556">
      <contour>
        <pt x="629" y="1556" on="1" overlap="1"/>
        <pt x="629" y="1539" on="1"/>
        <pt x="620" y="1500" on="0"/>
        <pt x="574" y="1389" on="0"/>
        <pt x="515" y="1275" on="0"/>
        <pt x="484" y="1229" on="1"/>
        <pt x="393" y="1229" on="1"/>
        <pt x="393" y="1252" on="1"/>
        <pt x="404" y="1281" on="0"/>
        <pt x="425" y="1357" on="0"/>
        <pt x="445" y="1442" on="0"/>
        <pt x="460" y="1523" on="0"/>
        <pt x="464" y="1556" on="1"/>
      </contour>
    </TTGlyph>
    <TTGlyph name="ccaron" xMin="114" yMin="-20" xMax="918" yMax="1568">
      <component glyphName="c" x="0" y="0" flags="0x604"/>
      <component glyphName="caron" x="163" y="0" flags="0x4"/>
    </TTGlyph>
    <TTGlyph name="ccedilla" xMin="114" yMin="-492" xMax="914" yMax="1116">
      <component glyphName="c" x="0" y="0" flags="0x604"/>
      <component glyphName="cedilla" x="350" y="0" flags="0x4"/>
    </TTGlyph>
    <TTGlyph name="ccircumflex" xMin="114" yMin="-20" xMax="922" yMax="1568">
      <component glyphName="c" x="0" y="0" flags="0x604"/>
      <component glyphName="circumflex" x="167" y="0" flags="0x4"/>
    </TTGlyph>
    <TTGlyph name="cdot" xMin="114" yMin="-20" xMax="914" yMax="1506">
      <component glyphName="c" x="0" y="0" flags="0x604"/>
      <component glyphName="dotaccent" x="402" y="0" flags="0x4"/>
    </TTGlyph>
    <TTGlyph name="cedilla" xMin="28" yMin="-492" xMax="427" yMax="0">
      <contour>
        <pt x="427" y="-286" on="1" overlap="1"/>
        <pt x="427" y="-383" on="0"/>
        <pt x="277" y="-492" on="0"/>
        <pt x="132" y="-492" on="1"/>
        <pt x="101" y="-492" on="0"/>
        <pt x="45" y="-485" on="0"/>
        <pt x="28" y="-481" on="1"/>
        <pt x="28" y="-376" on="1"/>
        <pt x="47" y="-380" on="0"/>
        <pt x="107" y="-386" on="0"/>
        <pt x="137" y="-386" on="1"/>
        <pt x="212" y="-386" on="0"/>
        <pt x="292" y="-342" on="0"/>
        <pt x="292" y="-290" on="1"/>
        <pt x="292" y="-235" on="0"/>
        <pt x="185" y="-185" on="0"/>
        <pt x="102" y="-176" on="1"/>
        <pt x="191" y="0" on="1"/>
        <pt x="302" y="0" on="1"/>
        <pt x="248" y="-112" on="1"/>
        <pt x="298" y="-122" on="0"/>
        <pt x="379" y="-164" on="0"/>
        <pt x="427" y="-234" on="0"/>
      </contour>
    </TTGlyph>
    <TTGlyph name="cent" xMin="185" yMin="-20" xMax="989" yMax="1483">
      <contour>
        <pt x="720" y="1483" on="1" overlap="1"/>
        <pt x="720" y="1318" on="1"/>
        <pt x="797" y="1315" on="0"/>
        <pt x="938" y="1283" on="0"/>
        <pt x="989" y="1260" on="1"/>
        <pt x="941" y="1121" on="1"/>
        <pt x="886" y="1142" on="0"/>
        <pt x="753" y="1173" on="0"/>
        <pt x="697" y="1173" on="1"/>
        <pt x="582" y="1173" on="0"/>
        <pt x="430" y="1077" on="0"/>
        <pt x="355" y="886" on="0"/>
        <pt x="355" y="743" on="1"/>
        <pt x="355" y="601" on="0"/>
        <pt x="429" y="416" on="0"/>
        <pt x="576" y="325" on="0"/>
        <pt x="686" y="325" on="1"/>
        <pt x="774" y="325" on="0"/>
        <pt x="910" y="359" on="0"/>
        <pt x="972" y="385" on="1"/>
        <pt x="972" y="240" on="1"/>
        <pt x="917" y="213" on="0"/>
        <pt x="798" y="181" on="0"/>
        <pt x="718" y="179" on="1"/>
        <pt x="718" y="-20" on="1"/>
        <pt x="590" y="-20" on="1"/>
        <pt x="590" y="184" on="1"/>
        <pt x="465" y="202" on="0"/>
        <pt x="283" y="327" on="0"/>
        <pt x="185" y="561" on="0"/>
        <pt x="185" y="741" on="1"/>
        <pt x="185" y="924" on="0"/>
        <pt x="285" y="1163" on="0"/>
        <pt x="467" y="1292" on="0"/>
        <pt x="590" y="1310" on="1"/>
        <pt x="590" y="1483" on="1"/>
      </contour>
    </TTGlyph>
    <TTGlyph name="chi" xMin="-16" yMin="-492" xMax="1102" yMax="1104">
      <contour>
        <pt x="176" y="1104" on="1" overlap="1"/>
        <pt x="240" y="1104" on="0"/>
        <pt x="322" y="1049" on="0"/>
        <pt x="382" y="944" on="0"/>
        <pt x="411" y="867" on="1"/>
        <pt x="561" y="488" on="1"/>
        <pt x="880" y="1096" on="1"/>
        <pt x="1057" y="1096" on="1"/>
        <pt x="632" y="328" on="1"/>
        <pt x="827" y="-166" on="1"/>
        <pt x="852" y="-230" on="0"/>
        <pt x="900" y="-313" on="0"/>
        <pt x="964" y="-354" on="0"/>
        <pt x="1012" y="-354" on="1"/>
        <pt x="1038" y="-354" on="0"/>
        <pt x="1084" y="-349" on="0"/>
        <pt x="1102" y="-346" on="1"/>
        <pt x="1102" y="-475" on="1"/>
        <pt x="1080" y="-481" on="0"/>
        <pt x="1022" y="-492" on="0"/>
        <pt x="981" y="-492" on="1"/>
        <pt x="894" y="-492" on="0"/>
        <pt x="782" y="-428" on="0"/>
        <pt x="708" y="-307" on="0"/>
        <pt x="676" y="-222" on="1"/>
        <pt x="522" y="180" on="1"/>
        <pt x="162" y="-492" on="1"/>
        <pt x="-16" y="-492" on="1"/>
        <pt x="446" y="346" on="1"/>
        <pt x="269" y="801" on="1"/>
        <pt x="240" y="881" on="0"/>
        <pt x="173" y="968" on="0"/>
        <pt x="122" y="968" on="1"/>
        <pt x="103" y="968" on="0"/>
        <pt x="68" y="962" on="0"/>
        <pt x="54" y="956" on="1"/>
        <pt x="54" y="1087" on="1"/>
        <pt x="75" y="1094" on="0"/>
        <pt x="135" y="1104" on="0"/>
      </contour>
    </TTGlyph>
    <TTGlyph name="circumflex" xMin="82" yMin="1241" xMax="755" yMax="1568">
      <contour>
        <pt x="501" y="1568" on="1" overlap="1"/>
        <pt x="526" y="1523" on="0"/>
        <pt x="616" y="1410" on="0"/>
        <pt x="716" y="1302" on="0"/>
        <pt x="755" y="1263" on="1"/>
        <pt x="755" y="1241" on="1"/>
        <pt x="637" y="1241" on="1"/>
        <pt x="583" y="1276" on="0"/>
        <pt x="469" y="1378" on="0"/>
        <pt x="415" y="1433" on="1"/>
        <pt x="361" y="1378" on="0"/>
        <pt x="250" y="1277" on="0"/>
        <pt x="196" y="1241" on="1"/>
        <pt x="82" y="1241" on="1"/>
        <pt x="82" y="1263" on="1"/>
        <pt x="120" y="1303" on="0"/>
        <pt x="217" y="1411" on="0"/>
        <pt x="306" y="1523" on="0"/>
        <pt x="332" y="1568" on="1"/>
      </contour>
    </TTGlyph>
    <TTGlyph name="circumflexacutecomb" xMin="-912" yMin="1241" xMax="-83" yMax="1663">
      <contour>
        <pt x="-301" y="1241" on="1" overlap="1"/>
        <pt x="-395" y="1241" on="1"/>
        <pt x="-446" y="1276" on="0"/>
        <pt x="-555" y="1362" on="0"/>
        <pt x="-606" y="1411" on="1"/>
        <pt x="-659" y="1362" on="0"/>
        <pt x="-766" y="1276" on="0"/>
        <pt x="-817" y="1241" on="1"/>
        <pt x="-912" y="1241" on="1"/>
        <pt x="-912" y="1265" on="1"/>
        <pt x="-877" y="1303" on="0"/>
        <pt x="-799" y="1389" on="0"/>
        <pt x="-723" y="1481" on="0"/>
        <pt x="-692" y="1526" on="1"/>
        <pt x="-520" y="1526" on="1"/>
        <pt x="-489" y="1481" on="0"/>
        <pt x="-414" y="1389" on="0"/>
        <pt x="-336" y="1303" on="0"/>
        <pt x="-301" y="1265" on="1"/>
      </contour>
      <contour>
        <pt x="-380" y="1459" on="1"/>
        <pt x="-339" y="1509" on="0"/>
        <pt x="-282" y="1599" on="0"/>
        <pt x="-250" y="1663" on="1"/>
        <pt x="-83" y="1663" on="1"/>
        <pt x="-83" y="1642" on="1"/>
        <pt x="-126" y="1584" on="0"/>
        <pt x="-231" y="1479" on="0"/>
        <pt x="-284" y="1436" on="1"/>
        <pt x="-380" y="1436" on="1"/>
      </contour>
    </TTGlyph>
    <TTGlyph name="circumflexgravecomb" xMin="-1124" yMin="1241" xMax="-295" yMax="1663">
      <contour>
        <pt x="-908" y="1241" on="1" overlap="1"/>
        <pt x="-908" y="1263" on="1"/>
        <pt x="-874" y="1301" on="0"/>
        <pt x="-796" y="1387" on="0"/>
        <pt x="-719" y="1479" on="0"/>
        <pt x="-688" y="1524" on="1"/>
        <pt x="-514" y="1524" on="1"/>
        <pt x="-482" y="1479" on="0"/>
        <pt x="-407" y="1387" on="0"/>
        <pt x="-330" y="1301" on="0"/>
        <pt x="-295" y="1263" on="1"/>
        <pt x="-295" y="1241" on="1"/>
        <pt x="-391" y="1241" on="1"/>
        <pt x="-443" y="1276" on="0"/>
        <pt x="-549" y="1362" on="0"/>
        <pt x="-602" y="1411" on="1"/>
        <pt x="-654" y="1362" on="0"/>
        <pt x="-762" y="1276" on="0"/>
        <pt x="-814" y="1241" on="1"/>
      </contour>
      <contour>
        <pt x="-920" y="1436" on="1"/>
        <pt x="-977" y="1479" on="0"/>
        <pt x="-1080" y="1584" on="0"/>
        <pt x="-1124" y="1642" on="1"/>
        <pt x="-1124" y="1663" on="1"/>
        <pt x="-959" y="1663" on="1"/>
        <pt x="-927" y="1599" on="0"/>
        <pt x="-869" y="1508" on="0"/>
        <pt x="-829" y="1457" on="1"/>
        <pt x="-829" y="1436" on="1"/>
      </contour>
    </TTGlyph>
    <TTGlyph name="circumflexhookcomb" xMin="-912" yMin="1241" xMax="-127" yMax="1783">
      <contour>
        <pt x="-520" y="1526" on="1" overlap="1"/>
        <pt x="-489" y="1481" on="0"/>
        <pt x="-414" y="1389" on="0"/>
        <pt x="-336" y="1303" on="0"/>
        <pt x="-301" y="1265" on="1"/>
        <pt x="-301" y="1241" on="1"/>
        <pt x="-395" y="1241" on="1"/>
        <pt x="-446" y="1276" on="0"/>
        <pt x="-555" y="1362" on="0"/>
        <pt x="-606" y="1411" on="1"/>
        <pt x="-659" y="1362" on="0"/>
        <pt x="-766" y="1276" on="0"/>
        <pt x="-817" y="1241" on="1"/>
        <pt x="-912" y="1241" on="1"/>
        <pt x="-912" y="1265" on="1"/>
        <pt x="-877" y="1303" on="0"/>
        <pt x="-799" y="1389" on="0"/>
        <pt x="-723" y="1481" on="0"/>
        <pt x="-692" y="1526" on="1"/>
      </contour>
      <contour>
        <pt x="-318" y="1783" on="1"/>
        <pt x="-227" y="1783" on="0"/>
        <pt x="-127" y="1714" on="0"/>
        <pt x="-127" y="1643" on="1"/>
        <pt x="-127" y="1585" on="0"/>
        <pt x="-202" y="1525" on="0"/>
        <pt x="-256" y="1513" on="1"/>
        <pt x="-262" y="1432" on="1"/>
        <pt x="-341" y="1432" on="1"/>
        <pt x="-350" y="1561" on="1"/>
        <pt x="-290" y="1570" on="0"/>
        <pt x="-227" y="1602" on="0"/>
        <pt x="-227" y="1639" on="1"/>
        <pt x="-227" y="1675" on="0"/>
        <pt x="-282" y="1703" on="0"/>
        <pt x="-328" y="1703" on="1"/>
        <pt x="-350" y="1703" on="0"/>
        <pt x="-389" y="1699" on="0"/>
        <pt x="-402" y="1696" on="1"/>
        <pt x="-402" y="1775" on="1"/>
        <pt x="-388" y="1779" on="0"/>
        <pt x="-346" y="1783" on="0"/>
      </contour>
    </TTGlyph>
    <TTGlyph name="circumflextildecomb" xMin="-919" yMin="1241" xMax="-281" yMax="1808">
      <contour>
        <pt x="-518" y="1523" on="1" overlap="1"/>
        <pt x="-486" y="1478" on="0"/>
        <pt x="-410" y="1386" on="0"/>
        <pt x="-332" y="1301" on="0"/>
        <pt x="-297" y="1263" on="1"/>
        <pt x="-297" y="1241" on="1"/>
        <pt x="-389" y="1241" on="1"/>
        <pt x="-442" y="1276" on="0"/>
        <pt x="-549" y="1360" on="0"/>
        <pt x="-602" y="1409" on="1"/>
        <pt x="-654" y="1360" on="0"/>
        <pt x="-765" y="1276" on="0"/>
        <pt x="-816" y="1241" on="1"/>
        <pt x="-908" y="1241" on="1"/>
        <pt x="-908" y="1263" on="1"/>
        <pt x="-874" y="1301" on="0"/>
        <pt x="-795" y="1386" on="0"/>
        <pt x="-718" y="1478" on="0"/>
        <pt x="-687" y="1523" on="1"/>
      </contour>
      <contour>
        <pt x="-281" y="1808" on="1"/>
        <pt x="-287" y="1744" on="0"/>
        <pt x="-334" y="1645" on="0"/>
        <pt x="-413" y="1590" on="0"/>
        <pt x="-467" y="1590" on="1"/>
        <pt x="-504" y="1590" on="0"/>
        <pt x="-574" y="1620" on="0"/>
        <pt x="-640" y="1659" on="0"/>
        <pt x="-703" y="1689" on="0"/>
        <pt x="-732" y="1689" on="1"/>
        <pt x="-773" y="1689" on="0"/>
        <pt x="-818" y="1640" on="0"/>
        <pt x="-831" y="1587" on="1"/>
        <pt x="-919" y="1587" on="1"/>
        <pt x="-908" y="1682" on="0"/>
        <pt x="-812" y="1806" on="0"/>
        <pt x="-732" y="1806" on="1"/>
        <pt x="-694" y="1806" on="0"/>
        <pt x="-622" y="1776" on="0"/>
        <pt x="-555" y="1736" on="0"/>
        <pt x="-493" y="1706" on="0"/>
        <pt x="-465" y="1706" on="1"/>
        <pt x="-424" y="1706" on="0"/>
        <pt x="-380" y="1756" on="0"/>
        <pt x="-368" y="1808" on="1"/>
      </contour>
    </TTGlyph>
    <TTGlyph name="colon" xMin="150" yMin="-28" xMax="388" yMax="1122">
      <contour>
        <pt x="150" y="104" on="1" overlap="1"/>
        <pt x="150" y="174" on="0"/>
        <pt x="218" y="233" on="0"/>
        <pt x="267" y="233" on="1"/>
        <pt x="318" y="233" on="0"/>
        <pt x="388" y="174" on="0"/>
        <pt x="388" y="104" on="1"/>
        <pt x="388" y="35" on="0"/>
        <pt x="318" y="-28" on="0"/>
        <pt x="267" y="-28" on="1"/>
        <pt x="218" y="-28" on="0"/>
        <pt x="150" y="35" on="0"/>
      </contour>
      <contour>
        <pt x="150" y="991" on="1"/>
        <pt x="150" y="1063" on="0"/>
        <pt x="218" y="1122" on="0"/>
        <pt x="267" y="1122" on="1"/>
        <pt x="318" y="1122" on="0"/>
        <pt x="388" y="1063" on="0"/>
        <pt x="388" y="991" on="1"/>
        <pt x="388" y="923" on="0"/>
        <pt x="318" y="861" on="0"/>
        <pt x="267" y="861" on="1"/>
        <pt x="218" y="861" on="0"/>
        <pt x="150" y="923" on="0"/>
      </contour>
    </TTGlyph>
    <TTGlyph name="comma" xMin="83" yMin="-264" xMax="378" yMax="238">
      <contour>
        <pt x="365" y="238" on="1" overlap="1"/>
        <pt x="378" y="215" on="1"/>
        <pt x="360" y="142" on="0"/>
        <pt x="305" y="-24" on="0"/>
        <pt x="240" y="-191" on="0"/>
        <pt x="207" y="-264" on="1"/>
        <pt x="83" y="-264" on="1"/>
        <pt x="104" y="-184" on="0"/>
        <pt x="144" y="-7" on="0"/>
        <pt x="177" y="166" on="0"/>
        <pt x="187" y="238" on="1"/>
      </contour>
    </TTGlyph>
    <TTGlyph name="commaaccent2" xMin="372" yMin="-453" xMax="622" yMax="-125">
      <contour>
        <pt x="622" y="-125" on="1" overlap="1"/>
        <pt x="622" y="-142" on="1"/>
        <pt x="612" y="-181" on="0"/>
        <pt x="564" y="-293" on="0"/>
        <pt x="499" y="-408" on="0"/>
        <pt x="463" y="-453" on="1"/>
        <pt x="372" y="-453" on="1"/>
        <pt x="372" y="-429" on="1"/>
        <pt x="387" y="-395" on="0"/>
        <pt x="422" y="-286" on="0"/>
        <pt x="452" y="-169" on="0"/>
        <pt x="457" y="-125" on="1"/>
      </contour>
    </TTGlyph>
    <TTGlyph name="commaaccentrotate" xMin="385" yMin="1240" xMax="637" yMax="1568">
      <contour>
        <pt x="637" y="1568" on="1" overlap="1"/>
        <pt x="637" y="1545" on="1"/>
        <pt x="621" y="1511" on="0"/>
        <pt x="585" y="1401" on="0"/>
        <pt x="556" y="1284" on="0"/>
        <pt x="550" y="1240" on="1"/>
        <pt x="385" y="1240" on="1"/>
        <pt x="385" y="1259" on="1"/>
        <pt x="396" y="1297" on="0"/>
        <pt x="443" y="1408" on="0"/>
        <pt x="508" y="1523" on="0"/>
        <pt x="545" y="1568" on="1"/>
      </contour>
    </TTGlyph>
    <TTGlyph name="copyright" xMin="100" yMin="-20" xMax="1604" yMax="1483">
      <contour>
        <pt x="852" y="-20" on="1" overlap="1"/>
        <pt x="689" y="-20" on="0"/>
        <pt x="414" y="92" on="0"/>
        <pt x="211" y="294" on="0"/>
        <pt x="100" y="569" on="0"/>
        <pt x="100" y="731" on="1"/>
        <pt x="100" y="894" on="0"/>
        <pt x="212" y="1169" on="0"/>
        <pt x="415" y="1371" on="0"/>
        <pt x="690" y="1483" on="0"/>
        <pt x="852" y="1483" on="1"/>
        <pt x="1009" y="1483" on="0"/>
        <pt x="1282" y="1370" on="0"/>
        <pt x="1488" y="1167" on="0"/>
        <pt x="1604" y="893" on="0"/>
        <pt x="1604" y="731" on="1"/>
        <pt x="1604" y="569" on="0"/>
        <pt x="1492" y="294" on="0"/>
        <pt x="1289" y="92" on="0"/>
        <pt x="1014" y="-20" on="0"/>
      </contour>
      <contour>
        <pt x="884" y="274" on="1"/>
        <pt x="682" y="274" on="0"/>
        <pt x="478" y="523" on="0"/>
        <pt x="478" y="731" on="1"/>
        <pt x="478" y="864" on="0"/>
        <pt x="575" y="1069" on="0"/>
        <pt x="760" y="1186" on="0"/>
        <pt x="892" y="1186" on="1"/>
        <pt x="958" y="1186" on="0"/>
        <pt x="1088" y="1154" on="0"/>
        <pt x="1145" y="1125" on="1"/>
        <pt x="1089" y="1009" on="1"/>
        <pt x="1039" y="1035" on="0"/>
        <pt x="941" y="1062" on="0"/>
        <pt x="894" y="1062" on="1"/>
        <pt x="767" y="1062" on="0"/>
        <pt x="627" y="885" on="0"/>
        <pt x="627" y="731" on="1"/>
        <pt x="627" y="571" on="0"/>
        <pt x="754" y="399" on="0"/>
        <pt x="891" y="399" on="1"/>
        <pt x="941" y="399" on="0"/>
        <pt x="1056" y="425" on="0"/>
        <pt x="1108" y="446" on="1"/>
        <pt x="1108" y="324" on="1"/>
        <pt x="1059" y="302" on="0"/>
        <pt x="955" y="274" on="0"/>
      </contour>
      <contour>
        <pt x="852" y="82" on="1"/>
        <pt x="985" y="82" on="0"/>
        <pt x="1218" y="178" on="0"/>
        <pt x="1394" y="353" on="0"/>
        <pt x="1494" y="590" on="0"/>
        <pt x="1494" y="731" on="1"/>
        <pt x="1494" y="865" on="0"/>
        <pt x="1399" y="1099" on="0"/>
        <pt x="1227" y="1279" on="0"/>
        <pt x="992" y="1380" on="0"/>
        <pt x="852" y="1380" on="1"/>
        <pt x="712" y="1380" on="0"/>
        <pt x="477" y="1284" on="0"/>
        <pt x="304" y="1109" on="0"/>
        <pt x="209" y="872" on="0"/>
        <pt x="209" y="731" on="1"/>
        <pt x="209" y="597" on="0"/>
        <pt x="303" y="362" on="0"/>
        <pt x="476" y="183" on="0"/>
        <pt x="711" y="82" on="0"/>
      </contour>
    </TTGlyph>
    <TTGlyph name="currency" xMin="121" yMin="262" xMax="1047" yMax="1185">
      <contour>
        <pt x="183" y="723" on="1" overlap="1"/>
        <pt x="183" y="786" on="0"/>
        <pt x="224" y="905" on="0"/>
        <pt x="258" y="954" on="1"/>
        <pt x="121" y="1095" on="1"/>
        <pt x="213" y="1185" on="1"/>
        <pt x="351" y="1051" on="1"/>
        <pt x="400" y="1086" on="0"/>
        <pt x="520" y="1125" on="0"/>
        <pt x="586" y="1125" on="1"/>
        <pt x="650" y="1125" on="0"/>
        <pt x="766" y="1086" on="0"/>
        <pt x="816" y="1051" on="1"/>
        <pt x="955" y="1185" on="1"/>
        <pt x="1047" y="1095" on="1"/>
        <pt x="912" y="955" on="1"/>
        <pt x="945" y="907" on="0"/>
        <pt x="988" y="788" on="0"/>
        <pt x="988" y="723" on="1"/>
        <pt x="988" y="659" on="0"/>
        <pt x="949" y="538" on="0"/>
        <pt x="912" y="489" on="1"/>
        <pt x="1045" y="351" on="1"/>
        <pt x="955" y="262" on="1"/>
        <pt x="816" y="396" on="1"/>
        <pt x="768" y="362" on="0"/>
        <pt x="650" y="323" on="0"/>
        <pt x="586" y="323" on="1"/>
        <pt x="520" y="323" on="0"/>
        <pt x="398" y="362" on="0"/>
        <pt x="351" y="398" on="1"/>
        <pt x="213" y="263" on="1"/>
        <pt x="122" y="352" on="1"/>
        <pt x="258" y="491" on="1"/>
        <pt x="224" y="540" on="0"/>
        <pt x="183" y="659" on="0"/>
      </contour>
      <contour>
        <pt x="311" y="723" on="1"/>
        <pt x="311" y="646" on="0"/>
        <pt x="384" y="521" on="0"/>
        <pt x="509" y="448" on="0"/>
        <pt x="585" y="448" on="1"/>
        <pt x="663" y="448" on="0"/>
        <pt x="789" y="522" on="0"/>
        <pt x="863" y="647" on="0"/>
        <pt x="863" y="723" on="1"/>
        <pt x="863" y="801" on="0"/>
        <pt x="789" y="927" on="0"/>
        <pt x="663" y="1002" on="0"/>
        <pt x="586" y="1002" on="1"/>
        <pt x="509" y="1002" on="0"/>
        <pt x="384" y="927" on="0"/>
        <pt x="311" y="801" on="0"/>
      </contour>
    </TTGlyph>
    <TTGlyph name="cyrillic_otmark" xMin="181" yMin="1246" xMax="999" yMax="1444">
      <contour>
        <pt x="999" y="1444" on="1" overlap="1"/>
        <pt x="999" y="1412" on="1"/>
        <pt x="923" y="1246" on="1"/>
        <pt x="891" y="1246" on="1"/>
        <pt x="845" y="1348" on="1"/>
        <pt x="650" y="1348" on="1"/>
        <pt x="604" y="1246" on="1"/>
        <pt x="571" y="1246" on="1"/>
        <pt x="525" y="1348" on="1"/>
        <pt x="333" y="1348" on="1"/>
        <pt x="287" y="1246" on="1"/>
        <pt x="255" y="1246" on="1"/>
        <pt x="181" y="1412" on="1"/>
        <pt x="181" y="1444" on="1"/>
      </contour>
    </TTGlyph>
    <TTGlyph name="cyrillicbighookUC" xMin="29" yMin="-399" xMax="377" yMax="152">
      <contour>
        <pt x="147" y="-399" on="1" overlap="1"/>
        <pt x="110" y="-399" on="0"/>
        <pt x="48" y="-382" on="0"/>
        <pt x="29" y="-375" on="1"/>
        <pt x="29" y="-236" on="1"/>
        <pt x="46" y="-243" on="0"/>
        <pt x="99" y="-255" on="0"/>
        <pt x="130" y="-255" on="1"/>
        <pt x="161" y="-255" on="0"/>
        <pt x="204" y="-232" on="0"/>
        <pt x="227" y="-183" on="0"/>
        <pt x="227" y="-146" on="1"/>
        <pt x="227" y="0" on="1"/>
        <pt x="203" y="0" on="1"/>
        <pt x="203" y="152" on="1"/>
        <pt x="377" y="152" on="1"/>
        <pt x="377" y="-137" on="1"/>
        <pt x="377" y="-221" on="0"/>
        <pt x="327" y="-338" on="0"/>
        <pt x="226" y="-399" on="0"/>
      </contour>
    </TTGlyph>
    <TTGlyph name="cyrillicbreve" xMin="217" yMin="1241" xMax="962" yMax="1547">
      <contour>
        <pt x="962" y="1547" on="1" overlap="1"/>
        <pt x="953" y="1446" on="0"/>
        <pt x="870" y="1310" on="0"/>
        <pt x="710" y="1241" on="0"/>
        <pt x="585" y="1241" on="1"/>
        <pt x="456" y="1241" on="0"/>
        <pt x="299" y="1308" on="0"/>
        <pt x="224" y="1444" on="0"/>
        <pt x="217" y="1547" on="1"/>
        <pt x="373" y="1547" on="1"/>
        <pt x="384" y="1437" on="0"/>
        <pt x="480" y="1357" on="0"/>
        <pt x="588" y="1357" on="1"/>
        <pt x="684" y="1357" on="0"/>
        <pt x="794" y="1441" on="0"/>
        <pt x="805" y="1547" on="1"/>
      </contour>
    </TTGlyph>
    <TTGlyph name="cyrillichookleft" xMin="48" yMin="-450" xMax="366" yMax="3">
      <contour>
        <pt x="228" y="-241" on="1" overlap="1"/>
        <pt x="228" y="-183" on="0"/>
        <pt x="152" y="-64" on="0"/>
        <pt x="84" y="0" on="1"/>
        <pt x="201" y="3" on="1"/>
        <pt x="261" y="-41" on="0"/>
        <pt x="366" y="-170" on="0"/>
        <pt x="366" y="-256" on="1"/>
        <pt x="366" y="-347" on="0"/>
        <pt x="262" y="-450" on="0"/>
        <pt x="165" y="-450" on="1"/>
        <pt x="134" y="-450" on="0"/>
        <pt x="74" y="-440" on="0"/>
        <pt x="48" y="-433" on="1"/>
        <pt x="48" y="-326" on="1"/>
        <pt x="64" y="-331" on="0"/>
        <pt x="112" y="-337" on="0"/>
        <pt x="137" y="-337" on="1"/>
        <pt x="176" y="-337" on="0"/>
        <pt x="228" y="-287" on="0"/>
      </contour>
    </TTGlyph>
    <TTGlyph name="d" xMin="114" yMin="-20" xMax="1077" yMax="1556">
      <contour>
        <pt x="565" y="-20" on="1" overlap="1"/>
        <pt x="357" y="-20" on="0"/>
        <pt x="114" y="264" on="0"/>
        <pt x="114" y="544" on="1"/>
        <pt x="114" y="827" on="0"/>
        <pt x="362" y="1116" on="0"/>
        <pt x="568" y="1116" on="1"/>
        <pt x="655" y="1116" on="0"/>
        <pt x="785" y="1070" on="0"/>
        <pt x="879" y="993" on="0"/>
        <pt x="911" y="944" on="1"/>
        <pt x="923" y="944" on="1"/>
        <pt x="919" y="975" on="0"/>
        <pt x="911" y="1083" on="0"/>
        <pt x="911" y="1117" on="1"/>
        <pt x="911" y="1556" on="1"/>
        <pt x="1077" y="1556" on="1"/>
        <pt x="1077" y="0" on="1"/>
        <pt x="943" y="0" on="1"/>
        <pt x="918" y="156" on="1"/>
        <pt x="911" y="156" on="1"/>
        <pt x="880" y="107" on="0"/>
        <pt x="785" y="27" on="0"/>
        <pt x="654" y="-20" on="0"/>
      </contour>
      <contour>
        <pt x="591" y="118" on="1"/>
        <pt x="767" y="118" on="0"/>
        <pt x="913" y="318" on="0"/>
        <pt x="913" y="515" on="1"/>
        <pt x="913" y="545" on="1"/>
        <pt x="913" y="754" on="0"/>
        <pt x="774" y="978" on="0"/>
        <pt x="591" y="978" on="1"/>
        <pt x="438" y="978" on="0"/>
        <pt x="286" y="743" on="0"/>
        <pt x="286" y="540" on="1"/>
        <pt x="286" y="338" on="0"/>
        <pt x="437" y="118" on="0"/>
      </contour>
    </TTGlyph>
    <TTGlyph name="dagger" xMin="130" yMin="0" xMax="911" yMax="1556">
      <contour>
        <pt x="911" y="1002" on="1" overlap="1"/>
        <pt x="559" y="1031" on="1"/>
        <pt x="606" y="0" on="1"/>
        <pt x="418" y="0" on="1"/>
        <pt x="463" y="1031" on="1"/>
        <pt x="130" y="1002" on="1"/>
        <pt x="130" y="1167" on="1"/>
        <pt x="463" y="1139" on="1"/>
        <pt x="418" y="1556" on="1"/>
        <pt x="606" y="1556" on="1"/>
        <pt x="559" y="1139" on="1"/>
        <pt x="911" y="1167" on="1"/>
      </contour>
    </TTGlyph>
    <TTGlyph name="daggerdbl" xMin="121" yMin="0" xMax="918" yMax="1556">
      <contour>
        <pt x="567" y="490" on="1" overlap="1"/>
        <pt x="918" y="517" on="1"/>
        <pt x="918" y="357" on="1"/>
        <pt x="567" y="383" on="1"/>
        <pt x="612" y="0" on="1"/>
        <pt x="422" y="0" on="1"/>
        <pt x="466" y="383" on="1"/>
        <pt x="121" y="357" on="1"/>
        <pt x="121" y="517" on="1"/>
        <pt x="466" y="490" on="1"/>
        <pt x="427" y="786" on="1"/>
        <pt x="466" y="1067" on="1"/>
        <pt x="121" y="1039" on="1"/>
        <pt x="121" y="1200" on="1"/>
        <pt x="466" y="1172" on="1"/>
        <pt x="422" y="1556" on="1"/>
        <pt x="612" y="1556" on="1"/>
        <pt x="567" y="1172" on="1"/>
        <pt x="918" y="1200" on="1"/>
        <pt x="918" y="1039" on="1"/>
        <pt x="567" y="1067" on="1"/>
        <pt x="605" y="786" on="1"/>
      </contour>
    </TTGlyph>
    <TTGlyph name="dcaron" xMin="114" yMin="-20" xMax="1392" yMax="1556">
      <component glyphName="d" x="0" y="0" flags="0x604"/>
      <component glyphName="caroncommaaccent" x="763" y="0" flags="0x4"/>
    </TTGlyph>
    <TTGlyph name="dcroat" xMin="114" yMin="-20" xMax="1232" yMax="1556">
      <contour>
        <pt x="565" y="-20" on="1" overlap="1"/>
        <pt x="357" y="-20" on="0"/>
        <pt x="114" y="263" on="0"/>
        <pt x="114" y="540" on="1"/>
        <pt x="114" y="827" on="0"/>
        <pt x="362" y="1111" on="0"/>
        <pt x="567" y="1111" on="1"/>
        <pt x="654" y="1111" on="0"/>
        <pt x="784" y="1065" on="0"/>
        <pt x="879" y="987" on="0"/>
        <pt x="911" y="939" on="1"/>
        <pt x="923" y="939" on="1"/>
        <pt x="918" y="970" on="0"/>
        <pt x="911" y="1078" on="0"/>
        <pt x="911" y="1114" on="1"/>
        <pt x="911" y="1245" on="1"/>
        <pt x="468" y="1245" on="1"/>
        <pt x="468" y="1370" on="1"/>
        <pt x="911" y="1370" on="1"/>
        <pt x="911" y="1556" on="1"/>
        <pt x="1077" y="1556" on="1"/>
        <pt x="1077" y="1370" on="1"/>
        <pt x="1232" y="1370" on="1"/>
        <pt x="1232" y="1245" on="1"/>
        <pt x="1077" y="1245" on="1"/>
        <pt x="1077" y="0" on="1"/>
        <pt x="941" y="0" on="1"/>
        <pt x="917" y="156" on="1"/>
        <pt x="909" y="156" on="1"/>
        <pt x="878" y="107" on="0"/>
        <pt x="784" y="27" on="0"/>
        <pt x="653" y="-20" on="0"/>
      </contour>
      <contour>
        <pt x="592" y="118" on="1"/>
        <pt x="768" y="118" on="0"/>
        <pt x="912" y="315" on="0"/>
        <pt x="912" y="511" on="1"/>
        <pt x="912" y="543" on="1"/>
        <pt x="912" y="753" on="0"/>
        <pt x="774" y="973" on="0"/>
        <pt x="591" y="973" on="1"/>
        <pt x="438" y="973" on="0"/>
        <pt x="287" y="743" on="0"/>
        <pt x="287" y="539" on="1"/>
        <pt x="287" y="337" on="0"/>
        <pt x="437" y="118" on="0"/>
      </contour>
    </TTGlyph>
    <TTGlyph name="degree" xMin="117" yMin="859" xMax="760" yMax="1483">
      <contour>
        <pt x="438" y="859" on="1" overlap="1"/>
        <pt x="342" y="859" on="0"/>
        <pt x="198" y="937" on="0"/>
        <pt x="117" y="1078" on="0"/>
        <pt x="117" y="1170" on="1"/>
        <pt x="117" y="1263" on="0"/>
        <pt x="196" y="1404" on="0"/>
        <pt x="340" y="1483" on="0"/>
        <pt x="438" y="1483" on="1"/>
        <pt x="533" y="1483" on="0"/>
        <pt x="678" y="1404" on="0"/>
        <pt x="760" y="1263" on="0"/>
        <pt x="760" y="1170" on="1"/>
        <pt x="760" y="1078" on="0"/>
        <pt x="678" y="937" on="0"/>
        <pt x="533" y="859" on="0"/>
      </contour>
      <contour>
        <pt x="440" y="973" on="1"/>
        <pt x="538" y="973" on="0"/>
        <pt x="636" y="1082" on="0"/>
        <pt x="636" y="1170" on="1"/>
        <pt x="636" y="1262" on="0"/>
        <pt x="535" y="1371" on="0"/>
        <pt x="440" y="1371" on="1"/>
        <pt x="339" y="1371" on="0"/>
        <pt x="241" y="1262" on="0"/>
        <pt x="241" y="1170" on="1"/>
        <pt x="241" y="1082" on="0"/>
        <pt x="338" y="973" on="0"/>
      </contour>
    </TTGlyph>
    <TTGlyph name="delta" xMin="112" yMin="-20" xMax="1117" yMax="1558">
      <contour>
        <pt x="651" y="1558" on="1" overlap="1"/>
        <pt x="787" y="1558" on="0"/>
        <pt x="985" y="1491" on="0"/>
        <pt x="1067" y="1450" on="1"/>
        <pt x="995" y="1319" on="1"/>
        <pt x="917" y="1363" on="0"/>
        <pt x="747" y="1421" on="0"/>
        <pt x="644" y="1421" on="1"/>
        <pt x="547" y="1421" on="0"/>
        <pt x="454" y="1333" on="0"/>
        <pt x="454" y="1271" on="1"/>
        <pt x="454" y="1219" on="0"/>
        <pt x="508" y="1138" on="0"/>
        <pt x="630" y="1054" on="0"/>
        <pt x="730" y="999" on="1"/>
        <pt x="852" y="932" on="0"/>
        <pt x="1025" y="784" on="0"/>
        <pt x="1117" y="601" on="0"/>
        <pt x="1117" y="480" on="1"/>
        <pt x="1117" y="319" on="0"/>
        <pt x="992" y="96" on="0"/>
        <pt x="765" y="-20" on="0"/>
        <pt x="611" y="-20" on="1"/>
        <pt x="465" y="-20" on="0"/>
        <pt x="240" y="87" on="0"/>
        <pt x="112" y="292" on="0"/>
        <pt x="112" y="437" on="1"/>
        <pt x="112" y="567" on="0"/>
        <pt x="222" y="764" on="0"/>
        <pt x="417" y="900" on="0"/>
        <pt x="543" y="937" on="1"/>
        <pt x="464" y="982" on="0"/>
        <pt x="349" y="1079" on="0"/>
        <pt x="286" y="1197" on="0"/>
        <pt x="286" y="1273" on="1"/>
        <pt x="286" y="1413" on="0"/>
        <pt x="494" y="1558" on="0"/>
      </contour>
      <contour>
        <pt x="676" y="863" on="1"/>
        <pt x="586" y="841" on="0"/>
        <pt x="405" y="746" on="0"/>
        <pt x="285" y="574" on="0"/>
        <pt x="285" y="436" on="1"/>
        <pt x="285" y="342" on="0"/>
        <pt x="363" y="198" on="0"/>
        <pt x="509" y="118" on="0"/>
        <pt x="611" y="118" on="1"/>
        <pt x="718" y="118" on="0"/>
        <pt x="867" y="202" on="0"/>
        <pt x="945" y="363" on="0"/>
        <pt x="945" y="478" on="1"/>
        <pt x="945" y="620" on="0"/>
        <pt x="802" y="798" on="0"/>
      </contour>
    </TTGlyph>
    <TTGlyph name="dieresis" xMin="310" yMin="1296" xMax="875" yMax="1490">
      <contour>
        <pt x="310" y="1394" on="1" overlap="1"/>
        <pt x="310" y="1444" on="0"/>
        <pt x="362" y="1490" on="0"/>
        <pt x="400" y="1490" on="1"/>
        <pt x="439" y="1490" on="0"/>
        <pt x="492" y="1444" on="0"/>
        <pt x="492" y="1394" on="1"/>
        <pt x="492" y="1345" on="0"/>
        <pt x="439" y="1296" on="0"/>
        <pt x="400" y="1296" on="1"/>
        <pt x="362" y="1296" on="0"/>
        <pt x="310" y="1345" on="0"/>
      </contour>
      <contour>
        <pt x="694" y="1394" on="1"/>
        <pt x="694" y="1444" on="0"/>
        <pt x="746" y="1490" on="0"/>
        <pt x="783" y="1490" on="1"/>
        <pt x="821" y="1490" on="0"/>
        <pt x="875" y="1444" on="0"/>
        <pt x="875" y="1394" on="1"/>
        <pt x="875" y="1345" on="0"/>
        <pt x="821" y="1296" on="0"/>
        <pt x="783" y="1296" on="1"/>
        <pt x="746" y="1296" on="0"/>
        <pt x="694" y="1345" on="0"/>
      </contour>
    </TTGlyph>
    <TTGlyph name="dieresistonos" xMin="288" yMin="1296" xMax="912" yMax="1716">
      <contour>
        <pt x="798" y="1716" on="1" overlap="1"/>
        <pt x="798" y="1696" on="1"/>
        <pt x="778" y="1653" on="0"/>
        <pt x="715" y="1546" on="0"/>
        <pt x="641" y="1435" on="0"/>
        <pt x="604" y="1387" on="1"/>
        <pt x="523" y="1387" on="1"/>
        <pt x="523" y="1410" on="1"/>
        <pt x="539" y="1452" on="0"/>
        <pt x="574" y="1558" on="0"/>
        <pt x="606" y="1669" on="0"/>
        <pt x="615" y="1716" on="1"/>
      </contour>
      <contour>
        <pt x="377" y="1490" on="1"/>
        <pt x="415" y="1490" on="0"/>
        <pt x="466" y="1444" on="0"/>
        <pt x="466" y="1394" on="1"/>
        <pt x="466" y="1345" on="0"/>
        <pt x="415" y="1296" on="0"/>
        <pt x="377" y="1296" on="1"/>
        <pt x="339" y="1296" on="0"/>
        <pt x="288" y="1345" on="0"/>
        <pt x="288" y="1394" on="1"/>
        <pt x="288" y="1444" on="0"/>
        <pt x="339" y="1490" on="0"/>
      </contour>
      <contour>
        <pt x="822" y="1490" on="1"/>
        <pt x="858" y="1490" on="0"/>
        <pt x="912" y="1444" on="0"/>
        <pt x="912" y="1394" on="1"/>
        <pt x="912" y="1345" on="0"/>
        <pt x="858" y="1296" on="0"/>
        <pt x="822" y="1296" on="1"/>
        <pt x="782" y="1296" on="0"/>
        <pt x="733" y="1345" on="0"/>
        <pt x="733" y="1394" on="1"/>
        <pt x="733" y="1444" on="0"/>
        <pt x="782" y="1490" on="0"/>
      </contour>
    </TTGlyph>
    <TTGlyph name="divide" xMin="103" yMin="253" xMax="1066" yMax="1189">
      <contour>
        <pt x="103" y="654" on="1" overlap="1"/>
        <pt x="103" y="790" on="1"/>
        <pt x="1066" y="790" on="1"/>
        <pt x="1066" y="654" on="1"/>
      </contour>
      <contour>
        <pt x="584" y="253" on="1"/>
        <pt x="538" y="253" on="0"/>
        <pt x="476" y="310" on="0"/>
        <pt x="476" y="371" on="1"/>
        <pt x="476" y="436" on="0"/>
        <pt x="538" y="488" on="0"/>
        <pt x="584" y="488" on="1"/>
        <pt x="628" y="488" on="0"/>
        <pt x="690" y="436" on="0"/>
        <pt x="690" y="371" on="1"/>
        <pt x="690" y="310" on="0"/>
        <pt x="628" y="253" on="0"/>
      </contour>
      <contour>
        <pt x="584" y="955" on="1"/>
        <pt x="538" y="955" on="0"/>
        <pt x="476" y="1012" on="0"/>
        <pt x="476" y="1073" on="1"/>
        <pt x="476" y="1137" on="0"/>
        <pt x="538" y="1189" on="0"/>
        <pt x="584" y="1189" on="1"/>
        <pt x="628" y="1189" on="0"/>
        <pt x="690" y="1137" on="0"/>
        <pt x="690" y="1073" on="1"/>
        <pt x="690" y="1012" on="0"/>
        <pt x="628" y="955" on="0"/>
      </contour>
    </TTGlyph>
    <TTGlyph name="dollar" xMin="127" yMin="-119" xMax="1047" yMax="1554">
      <contour>
        <pt x="518" y="-119" on="1" overlap="1"/>
        <pt x="518" y="91" on="1"/>
        <pt x="403" y="93" on="0"/>
        <pt x="194" y="129" on="0"/>
        <pt x="128" y="158" on="1"/>
        <pt x="128" y="320" on="1"/>
        <pt x="197" y="288" on="0"/>
        <pt x="413" y="240" on="0"/>
        <pt x="518" y="238" on="1"/>
        <pt x="518" y="678" on="1"/>
        <pt x="386" y="715" on="0"/>
        <pt x="213" y="810" on="0"/>
        <pt x="127" y="948" on="0"/>
        <pt x="127" y="1046" on="1"/>
        <pt x="127" y="1148" on="0"/>
        <pt x="224" y="1293" on="0"/>
        <pt x="400" y="1375" on="0"/>
        <pt x="518" y="1381" on="1"/>
        <pt x="518" y="1554" on="1"/>
        <pt x="640" y="1554" on="1"/>
        <pt x="640" y="1383" on="1"/>
        <pt x="747" y="1380" on="0"/>
        <pt x="923" y="1339" on="0"/>
        <pt x="998" y="1307" on="1"/>
        <pt x="946" y="1168" on="1"/>
        <pt x="878" y="1195" on="0"/>
        <pt x="720" y="1233" on="0"/>
        <pt x="640" y="1240" on="1"/>
        <pt x="640" y="803" on="1"/>
        <pt x="774" y="764" on="0"/>
        <pt x="955" y="676" on="0"/>
        <pt x="1047" y="546" on="0"/>
        <pt x="1047" y="443" on="1"/>
        <pt x="1047" y="297" on="0"/>
        <pt x="833" y="118" on="0"/>
        <pt x="640" y="99" on="1"/>
        <pt x="640" y="-119" on="1"/>
      </contour>
      <contour>
        <pt x="640" y="247" on="1"/>
        <pt x="763" y="259" on="0"/>
        <pt x="884" y="354" on="0"/>
        <pt x="884" y="432" on="1"/>
        <pt x="884" y="488" on="0"/>
        <pt x="837" y="560" on="0"/>
        <pt x="731" y="613" on="0"/>
        <pt x="640" y="637" on="1"/>
      </contour>
      <contour>
        <pt x="518" y="845" on="1"/>
        <pt x="518" y="1236" on="1"/>
        <pt x="443" y="1231" on="0"/>
        <pt x="341" y="1185" on="0"/>
        <pt x="290" y="1111" on="0"/>
        <pt x="290" y="1060" on="1"/>
        <pt x="290" y="1001" on="0"/>
        <pt x="335" y="922" on="0"/>
        <pt x="436" y="867" on="0"/>
      </contour>
    </TTGlyph>
    <TTGlyph name="dotaccent" xMin="82" yMin="1288" xMax="282" yMax="1506">
      <contour>
        <pt x="182" y="1506" on="1" overlap="1"/>
        <pt x="223" y="1506" on="0"/>
        <pt x="282" y="1453" on="0"/>
        <pt x="282" y="1397" on="1"/>
        <pt x="282" y="1342" on="0"/>
        <pt x="223" y="1288" on="0"/>
        <pt x="182" y="1288" on="1"/>
        <pt x="139" y="1288" on="0"/>
        <pt x="82" y="1342" on="0"/>
        <pt x="82" y="1397" on="1"/>
        <pt x="82" y="1453" on="0"/>
        <pt x="139" y="1506" on="0"/>
      </contour>
    </TTGlyph>
    <TTGlyph name="dotbelowcomb" xMin="-710" yMin="-351" xMax="-509" yMax="-133">
      <contour>
        <pt x="-610" y="-351" on="1" overlap="1"/>
        <pt x="-652" y="-351" on="0"/>
        <pt x="-710" y="-297" on="0"/>
        <pt x="-710" y="-242" on="1"/>
        <pt x="-710" y="-186" on="0"/>
        <pt x="-652" y="-133" on="0"/>
        <pt x="-610" y="-133" on="1"/>
        <pt x="-567" y="-133" on="0"/>
        <pt x="-509" y="-186" on="0"/>
        <pt x="-509" y="-242" on="1"/>
        <pt x="-509" y="-297" on="0"/>
        <pt x="-567" y="-351" on="0"/>
      </contour>
    </TTGlyph>
    <TTGlyph name="dotlessi" xMin="175" yMin="0" xMax="341" yMax="1096">
      <contour>
        <pt x="341" y="0" on="1" overlap="1"/>
        <pt x="175" y="0" on="1"/>
        <pt x="175" y="1096" on="1"/>
        <pt x="341" y="1096" on="1"/>
      </contour>
    </TTGlyph>
    <TTGlyph name="e" xMin="114" yMin="-20" xMax="1043" yMax="1116">
      <contour>
        <pt x="597" y="1116" on="1" overlap="1"/>
        <pt x="737" y="1116" on="0"/>
        <pt x="937" y="992" on="0"/>
        <pt x="1043" y="769" on="0"/>
        <pt x="1043" y="620" on="1"/>
        <pt x="1043" y="517" on="1"/>
        <pt x="286" y="517" on="1"/>
        <pt x="289" y="324" on="0"/>
        <pt x="475" y="122" on="0"/>
        <pt x="644" y="122" on="1"/>
        <pt x="748" y="122" on="0"/>
        <pt x="908" y="160" on="0"/>
        <pt x="994" y="197" on="1"/>
        <pt x="994" y="51" on="1"/>
        <pt x="911" y="14" on="0"/>
        <pt x="748" y="-20" on="0"/>
        <pt x="637" y="-20" on="1"/>
        <pt x="479" y="-20" on="0"/>
        <pt x="244" y="109" on="0"/>
        <pt x="114" y="359" on="0"/>
        <pt x="114" y="540" on="1"/>
        <pt x="114" y="717" on="0"/>
        <pt x="233" y="976" on="0"/>
        <pt x="450" y="1116" on="0"/>
      </contour>
      <contour>
        <pt x="595" y="980" on="1"/>
        <pt x="462" y="980" on="0"/>
        <pt x="304" y="806" on="0"/>
        <pt x="289" y="650" on="1"/>
        <pt x="869" y="650" on="1"/>
        <pt x="868" y="748" on="0"/>
        <pt x="809" y="897" on="0"/>
        <pt x="689" y="980" on="0"/>
      </contour>
    </TTGlyph>
    <TTGlyph name="eacute" xMin="114" yMin="-20" xMax="1043" yMax="1569">
      <component glyphName="e" x="0" y="0" flags="0x604"/>
      <component glyphName="acute" x="385" y="0" flags="0x4"/>
    </TTGlyph>
    <TTGlyph name="ebreve" xMin="114" yMin="-20" xMax="1043" yMax="1511">
      <component glyphName="e" x="0" y="0" flags="0x604"/>
      <component glyphName="breve" x="198" y="0" flags="0x4"/>
    </TTGlyph>
    <TTGlyph name="ecaron" xMin="114" yMin="-20" xMax="1043" yMax="1568">
      <component glyphName="e" x="0" y="0" flags="0x604"/>
      <component glyphName="caron" x="164" y="0" flags="0x4"/>
    </TTGlyph>
    <TTGlyph name="ecircumflex" xMin="114" yMin="-20" xMax="1043" yMax="1568">
      <component glyphName="e" x="0" y="0" flags="0x604"/>
      <component glyphName="circumflex" x="168" y="0" flags="0x4"/>
    </TTGlyph>
    <TTGlyph name="edieresis" xMin="114" yMin="-20" xMax="1043" yMax="1490">
      <component glyphName="e" x="0" y="0" flags="0x604"/>
      <component glyphName="dieresis" x="-10" y="0" flags="0x4"/>
    </TTGlyph>
    <TTGlyph name="edotaccent" xMin="114" yMin="-20" xMax="1043" yMax="1506">
      <component glyphName="e" x="0" y="0" flags="0x604"/>
      <component glyphName="dotaccent" x="403" y="0" flags="0x4"/>
    </TTGlyph>
    <TTGlyph name="egrave" xMin="114" yMin="-20" xMax="1043" yMax="1569">
      <component glyphName="e" x="0" y="0" flags="0x604"/>
      <component glyphName="grave" x="234" y="0" flags="0x4"/>
    </TTGlyph>
    <TTGlyph name="eight" xMin="103" yMin="-20" xMax="1065" yMax="1483">
      <contour>
        <pt x="584" y="1483" on="1" overlap="1"/>
        <pt x="711" y="1483" on="0"/>
        <pt x="907" y="1403" on="0"/>
        <pt x="1018" y="1248" on="0"/>
        <pt x="1018" y="1135" on="1"/>
        <pt x="1018" y="1046" on="0"/>
        <pt x="941" y="913" on="0"/>
        <pt x="811" y="814" on="0"/>
        <pt x="732" y="775" on="1"/>
        <pt x="826" y="732" on="0"/>
        <pt x="977" y="624" on="0"/>
        <pt x="1065" y="478" on="0"/>
        <pt x="1065" y="378" on="1"/>
        <pt x="1065" y="255" on="0"/>
        <pt x="946" y="76" on="0"/>
        <pt x="732" y="-20" on="0"/>
        <pt x="588" y="-20" on="1"/>
        <pt x="433" y="-20" on="0"/>
        <pt x="216" y="73" on="0"/>
        <pt x="103" y="248" on="0"/>
        <pt x="103" y="371" on="1"/>
        <pt x="103" y="472" on="0"/>
        <pt x="189" y="621" on="0"/>
        <pt x="331" y="729" on="0"/>
        <pt x="415" y="766" on="1"/>
        <pt x="342" y="806" on="0"/>
        <pt x="221" y="908" on="0"/>
        <pt x="150" y="1045" on="0"/>
        <pt x="150" y="1136" on="1"/>
        <pt x="150" y="1247" on="0"/>
        <pt x="263" y="1402" on="0"/>
        <pt x="460" y="1483" on="0"/>
      </contour>
      <contour>
        <pt x="266" y="370" on="1"/>
        <pt x="266" y="258" on="0"/>
        <pt x="424" y="113" on="0"/>
        <pt x="584" y="113" on="1"/>
        <pt x="736" y="113" on="0"/>
        <pt x="902" y="258" on="0"/>
        <pt x="902" y="376" on="1"/>
        <pt x="902" y="449" on="0"/>
        <pt x="826" y="560" on="0"/>
        <pt x="686" y="648" on="0"/>
        <pt x="591" y="684" on="1"/>
        <pt x="555" y="697" on="1"/>
        <pt x="463" y="659" on="0"/>
        <pt x="334" y="566" on="0"/>
        <pt x="266" y="448" on="0"/>
      </contour>
      <contour>
        <pt x="582" y="1347" on="1"/>
        <pt x="464" y="1347" on="0"/>
        <pt x="314" y="1234" on="0"/>
        <pt x="314" y="1128" on="1"/>
        <pt x="314" y="1052" on="0"/>
        <pt x="387" y="947" on="0"/>
        <pt x="513" y="872" on="0"/>
        <pt x="591" y="840" on="1"/>
        <pt x="667" y="872" on="0"/>
        <pt x="785" y="949" on="0"/>
        <pt x="853" y="1055" on="0"/>
        <pt x="853" y="1129" on="1"/>
        <pt x="853" y="1235" on="0"/>
        <pt x="704" y="1347" on="0"/>
      </contour>
    </TTGlyph>
    <TTGlyph name="eight.dnom" xMin="52" yMin="-15" xMax="660" yMax="892">
      <component glyphName="uni2078" x="0" y="-852" flags="0x604"/>
    </TTGlyph>
    <TTGlyph name="eight.lf" xMin="122" yMin="-20" xMax="1082" yMax="1483">
      <contour>
        <pt x="606" y="-20" on="1" overlap="1"/>
        <pt x="451" y="-20" on="0"/>
        <pt x="235" y="73" on="0"/>
        <pt x="122" y="248" on="0"/>
        <pt x="122" y="371" on="1"/>
        <pt x="122" y="472" on="0"/>
        <pt x="207" y="621" on="0"/>
        <pt x="349" y="729" on="0"/>
        <pt x="434" y="766" on="1"/>
        <pt x="360" y="806" on="0"/>
        <pt x="240" y="908" on="0"/>
        <pt x="169" y="1045" on="0"/>
        <pt x="169" y="1136" on="1"/>
        <pt x="169" y="1247" on="0"/>
        <pt x="282" y="1402" on="0"/>
        <pt x="477" y="1483" on="0"/>
        <pt x="601" y="1483" on="1"/>
        <pt x="729" y="1483" on="0"/>
        <pt x="925" y="1403" on="0"/>
        <pt x="1035" y="1248" on="0"/>
        <pt x="1035" y="1135" on="1"/>
        <pt x="1035" y="1046" on="0"/>
        <pt x="958" y="913" on="0"/>
        <pt x="830" y="814" on="0"/>
        <pt x="751" y="775" on="1"/>
        <pt x="844" y="732" on="0"/>
        <pt x="994" y="624" on="0"/>
        <pt x="1082" y="478" on="0"/>
        <pt x="1082" y="378" on="1"/>
        <pt x="1082" y="255" on="0"/>
        <pt x="964" y="76" on="0"/>
        <pt x="750" y="-20" on="0"/>
      </contour>
      <contour>
        <pt x="602" y="113" on="1"/>
        <pt x="704" y="113" on="0"/>
        <pt x="846" y="179" on="0"/>
        <pt x="920" y="297" on="0"/>
        <pt x="920" y="376" on="1"/>
        <pt x="920" y="449" on="0"/>
        <pt x="844" y="560" on="0"/>
        <pt x="705" y="648" on="0"/>
        <pt x="609" y="684" on="1"/>
        <pt x="573" y="697" on="1"/>
        <pt x="481" y="659" on="0"/>
        <pt x="352" y="566" on="0"/>
        <pt x="285" y="448" on="0"/>
        <pt x="285" y="370" on="1"/>
        <pt x="285" y="296" on="0"/>
        <pt x="355" y="179" on="0"/>
        <pt x="496" y="113" on="0"/>
      </contour>
      <contour>
        <pt x="609" y="840" on="1"/>
        <pt x="683" y="871" on="0"/>
        <pt x="802" y="947" on="0"/>
        <pt x="871" y="1054" on="0"/>
        <pt x="871" y="1129" on="1"/>
        <pt x="871" y="1235" on="0"/>
        <pt x="723" y="1347" on="0"/>
        <pt x="599" y="1347" on="1"/>
        <pt x="482" y="1347" on="0"/>
        <pt x="332" y="1234" on="0"/>
        <pt x="332" y="1128" on="1"/>
        <pt x="332" y="1052" on="0"/>
        <pt x="406" y="947" on="0"/>
        <pt x="531" y="872" on="0"/>
      </contour>
    </TTGlyph>
    <TTGlyph name="eight.numr" xMin="52" yMin="571" xMax="660" yMax="1478">
      <component glyphName="uni2078" x="0" y="-266" flags="0x604"/>
    </TTGlyph>
    <TTGlyph name="eight.osf" xMin="103" yMin="-20" xMax="1065" yMax="1483">
      <contour>
        <pt x="584" y="1483" on="1" overlap="1"/>
        <pt x="712" y="1483" on="0"/>
        <pt x="907" y="1403" on="0"/>
        <pt x="1018" y="1248" on="0"/>
        <pt x="1018" y="1135" on="1"/>
        <pt x="1018" y="1046" on="0"/>
        <pt x="941" y="913" on="0"/>
        <pt x="811" y="814" on="0"/>
        <pt x="732" y="775" on="1"/>
        <pt x="826" y="732" on="0"/>
        <pt x="977" y="624" on="0"/>
        <pt x="1065" y="478" on="0"/>
        <pt x="1065" y="378" on="1"/>
        <pt x="1065" y="255" on="0"/>
        <pt x="946" y="76" on="0"/>
        <pt x="732" y="-20" on="0"/>
        <pt x="588" y="-20" on="1"/>
        <pt x="433" y="-20" on="0"/>
        <pt x="216" y="73" on="0"/>
        <pt x="103" y="248" on="0"/>
        <pt x="103" y="371" on="1"/>
        <pt x="103" y="472" on="0"/>
        <pt x="189" y="621" on="0"/>
        <pt x="331" y="729" on="0"/>
        <pt x="415" y="766" on="1"/>
        <pt x="342" y="806" on="0"/>
        <pt x="221" y="908" on="0"/>
        <pt x="150" y="1045" on="0"/>
        <pt x="150" y="1136" on="1"/>
        <pt x="150" y="1247" on="0"/>
        <pt x="263" y="1402" on="0"/>
        <pt x="460" y="1483" on="0"/>
      </contour>
      <contour>
        <pt x="266" y="370" on="1"/>
        <pt x="266" y="296" on="0"/>
        <pt x="336" y="179" on="0"/>
        <pt x="478" y="113" on="0"/>
        <pt x="584" y="113" on="1"/>
        <pt x="685" y="113" on="0"/>
        <pt x="827" y="179" on="0"/>
        <pt x="902" y="297" on="0"/>
        <pt x="902" y="376" on="1"/>
        <pt x="902" y="449" on="0"/>
        <pt x="829" y="559" on="0"/>
        <pt x="676" y="652" on="0"/>
        <pt x="555" y="697" on="1"/>
        <pt x="463" y="659" on="0"/>
        <pt x="334" y="566" on="0"/>
        <pt x="266" y="448" on="0"/>
      </contour>
      <contour>
        <pt x="582" y="1347" on="1"/>
        <pt x="464" y="1347" on="0"/>
        <pt x="314" y="1234" on="0"/>
        <pt x="314" y="1128" on="1"/>
        <pt x="314" y="1052" on="0"/>
        <pt x="387" y="947" on="0"/>
        <pt x="513" y="872" on="0"/>
        <pt x="591" y="840" on="1"/>
        <pt x="665" y="871" on="0"/>
        <pt x="783" y="947" on="0"/>
        <pt x="853" y="1054" on="0"/>
        <pt x="853" y="1129" on="1"/>
        <pt x="853" y="1235" on="0"/>
        <pt x="704" y="1347" on="0"/>
      </contour>
    </TTGlyph>
    <TTGlyph name="eight.tosf" xMin="76" yMin="-20" xMax="1038" yMax="1483">
      <component glyphName="eight.osf" x="-27" y="0" flags="0x404"/>
    </TTGlyph>
    <TTGlyph name="ellipsis" xMin="150" yMin="-28" xMax="1443" yMax="233">
      <component glyphName="period" x="0" y="0" flags="0x404"/>
      <component glyphName="period" x="529" y="0" flags="0x4"/>
      <component glyphName="period" x="1055" y="0" flags="0x4"/>
    </TTGlyph>
    <TTGlyph name="emacron" xMin="114" yMin="-20" xMax="1043" yMax="1377">
      <component glyphName="e" x="0" y="0" flags="0x604"/>
      <component glyphName="macron" x="201" y="0" flags="0x4"/>
    </TTGlyph>
    <TTGlyph name="emdash" xMin="82" yMin="476" xMax="1966" yMax="624">
      <contour>
        <pt x="82" y="476" on="1" overlap="1"/>
        <pt x="82" y="624" on="1"/>
        <pt x="1966" y="624" on="1"/>
        <pt x="1966" y="476" on="1"/>
      </contour>
    </TTGlyph>
    <TTGlyph name="endash" xMin="82" yMin="476" xMax="942" yMax="624">
      <contour>
        <pt x="82" y="476" on="1" overlap="1"/>
        <pt x="82" y="624" on="1"/>
        <pt x="942" y="624" on="1"/>
        <pt x="942" y="476" on="1"/>
      </contour>
    </TTGlyph>
    <TTGlyph name="eng" xMin="175" yMin="-492" xMax="1091" yMax="1116">
      <contour>
        <pt x="805" y="-492" on="1" overlap="1"/>
        <pt x="756" y="-492" on="0"/>
        <pt x="688" y="-477" on="0"/>
        <pt x="662" y="-467" on="1"/>
        <pt x="662" y="-332" on="1"/>
        <pt x="689" y="-342" on="0"/>
        <pt x="748" y="-353" on="0"/>
        <pt x="784" y="-353" on="1"/>
        <pt x="846" y="-353" on="0"/>
        <pt x="925" y="-277" on="0"/>
        <pt x="925" y="-177" on="1"/>
        <pt x="925" y="705" on="1"/>
        <pt x="925" y="842" on="0"/>
        <pt x="801" y="976" on="0"/>
        <pt x="673" y="976" on="1"/>
        <pt x="552" y="976" on="0"/>
        <pt x="406" y="884" on="0"/>
        <pt x="341" y="706" on="0"/>
        <pt x="341" y="576" on="1"/>
        <pt x="341" y="0" on="1"/>
        <pt x="175" y="0" on="1"/>
        <pt x="175" y="1096" on="1"/>
        <pt x="309" y="1096" on="1"/>
        <pt x="336" y="938" on="1"/>
        <pt x="345" y="938" on="1"/>
        <pt x="380" y="996" on="0"/>
        <pt x="485" y="1075" on="0"/>
        <pt x="618" y="1116" on="0"/>
        <pt x="693" y="1116" on="1"/>
        <pt x="826" y="1116" on="0"/>
        <pt x="1002" y="1032" on="0"/>
        <pt x="1091" y="856" on="0"/>
        <pt x="1091" y="716" on="1"/>
        <pt x="1091" y="-173" on="1"/>
        <pt x="1091" y="-273" on="0"/>
        <pt x="1028" y="-416" on="0"/>
        <pt x="902" y="-492" on="0"/>
      </contour>
    </TTGlyph>
    <TTGlyph name="eogonek" xMin="114" yMin="-450" xMax="1043" yMax="1116">
      <contour>
        <pt x="788" y="-241" on="1" overlap="1"/>
        <pt x="788" y="-288" on="0"/>
        <pt x="838" y="-337" on="0"/>
        <pt x="883" y="-337" on="1"/>
        <pt x="916" y="-337" on="0"/>
        <pt x="965" y="-328" on="0"/>
        <pt x="981" y="-324" on="1"/>
        <pt x="981" y="-432" on="1"/>
        <pt x="953" y="-439" on="0"/>
        <pt x="896" y="-450" on="0"/>
        <pt x="857" y="-450" on="1"/>
        <pt x="752" y="-450" on="0"/>
        <pt x="651" y="-350" on="0"/>
        <pt x="651" y="-260" on="1"/>
        <pt x="651" y="-202" on="0"/>
        <pt x="709" y="-93" on="0"/>
        <pt x="797" y="0" on="0"/>
        <pt x="841" y="33" on="1"/>
        <pt x="992" y="50" on="1"/>
        <pt x="912" y="-14" on="0"/>
        <pt x="823" y="-113" on="0"/>
        <pt x="788" y="-198" on="0"/>
      </contour>
      <contour>
        <pt x="597" y="1116" on="1"/>
        <pt x="737" y="1116" on="0"/>
        <pt x="937" y="992" on="0"/>
        <pt x="1043" y="769" on="0"/>
        <pt x="1043" y="620" on="1"/>
        <pt x="1043" y="517" on="1"/>
        <pt x="286" y="517" on="1"/>
        <pt x="289" y="324" on="0"/>
        <pt x="475" y="122" on="0"/>
        <pt x="644" y="122" on="1"/>
        <pt x="748" y="122" on="0"/>
        <pt x="908" y="160" on="0"/>
        <pt x="994" y="197" on="1"/>
        <pt x="994" y="51" on="1"/>
        <pt x="911" y="14" on="0"/>
        <pt x="748" y="-20" on="0"/>
        <pt x="637" y="-20" on="1"/>
        <pt x="479" y="-20" on="0"/>
        <pt x="244" y="109" on="0"/>
        <pt x="114" y="359" on="0"/>
        <pt x="114" y="540" on="1"/>
        <pt x="114" y="717" on="0"/>
        <pt x="233" y="976" on="0"/>
        <pt x="450" y="1116" on="0"/>
      </contour>
      <contour>
        <pt x="595" y="980" on="1"/>
        <pt x="462" y="980" on="0"/>
        <pt x="304" y="806" on="0"/>
        <pt x="289" y="650" on="1"/>
        <pt x="869" y="650" on="1"/>
        <pt x="868" y="748" on="0"/>
        <pt x="809" y="897" on="0"/>
        <pt x="689" y="980" on="0"/>
      </contour>
    </TTGlyph>
    <TTGlyph name="eogonek.loclNAV" xMin="114" yMin="-450" xMax="1043" yMax="1116">
      <component glyphName="e" x="0" y="0" flags="0x604"/>
      <component glyphName="ogonek" x="365" y="0" flags="0x4"/>
    </TTGlyph>
    <TTGlyph name="epsilon" xMin="89" yMin="-20" xMax="908" yMax="1116">
      <contour>
        <pt x="718" y="640" on="1" overlap="1"/>
        <pt x="718" y="504" on="1"/>
        <pt x="572" y="504" on="1"/>
        <pt x="466" y="504" on="0"/>
        <pt x="325" y="460" on="0"/>
        <pt x="255" y="372" on="0"/>
        <pt x="255" y="306" on="1"/>
        <pt x="255" y="238" on="0"/>
        <pt x="332" y="154" on="0"/>
        <pt x="466" y="116" on="0"/>
        <pt x="551" y="116" on="1"/>
        <pt x="663" y="116" on="0"/>
        <pt x="836" y="168" on="0"/>
        <pt x="904" y="200" on="1"/>
        <pt x="904" y="53" on="1"/>
        <pt x="842" y="21" on="0"/>
        <pt x="666" y="-20" on="0"/>
        <pt x="542" y="-20" on="1"/>
        <pt x="311" y="-20" on="0"/>
        <pt x="89" y="161" on="0"/>
        <pt x="89" y="297" on="1"/>
        <pt x="89" y="419" on="0"/>
        <pt x="232" y="540" on="0"/>
        <pt x="332" y="568" on="1"/>
        <pt x="332" y="578" on="1"/>
        <pt x="238" y="606" on="0"/>
        <pt x="128" y="729" on="0"/>
        <pt x="128" y="826" on="1"/>
        <pt x="128" y="920" on="0"/>
        <pt x="235" y="1049" on="0"/>
        <pt x="423" y="1116" on="0"/>
        <pt x="543" y="1116" on="1"/>
        <pt x="659" y="1116" on="0"/>
        <pt x="827" y="1077" on="0"/>
        <pt x="908" y="1040" on="1"/>
        <pt x="846" y="907" on="1"/>
        <pt x="779" y="938" on="0"/>
        <pt x="636" y="978" on="0"/>
        <pt x="542" y="978" on="1"/>
        <pt x="415" y="978" on="0"/>
        <pt x="287" y="894" on="0"/>
        <pt x="287" y="814" on="1"/>
        <pt x="287" y="721" on="0"/>
        <pt x="458" y="640" on="0"/>
        <pt x="604" y="640" on="1"/>
      </contour>
    </TTGlyph>
    <TTGlyph name="epsilontonos" xMin="89" yMin="-20" xMax="908" yMax="1649">
      <component glyphName="epsilon" x="0" y="0" flags="0x604"/>
      <component glyphName="tonos" x="-54" y="0" flags="0x4"/>
    </TTGlyph>
    <TTGlyph name="equal" xMin="115" yMin="449" xMax="1053" yMax="993">
      <contour>
        <pt x="115" y="858" on="1" overlap="1"/>
        <pt x="115" y="993" on="1"/>
        <pt x="1053" y="993" on="1"/>
        <pt x="1053" y="858" on="1"/>
      </contour>
      <contour>
        <pt x="115" y="449" on="1"/>
        <pt x="115" y="584" on="1"/>
        <pt x="1053" y="584" on="1"/>
        <pt x="1053" y="449" on="1"/>
      </contour>
    </TTGlyph>
    <TTGlyph name="estimated" xMin="102" yMin="-35" xMax="1163" yMax="1096">
      <contour>
        <pt x="633" y="-35" on="1" overlap="1"/>
        <pt x="460" y="-35" on="0"/>
        <pt x="223" y="125" on="0"/>
        <pt x="102" y="383" on="0"/>
        <pt x="102" y="530" on="1"/>
        <pt x="102" y="678" on="0"/>
        <pt x="195" y="892" on="0"/>
        <pt x="351" y="1030" on="0"/>
        <pt x="539" y="1096" on="0"/>
        <pt x="633" y="1096" on="1"/>
        <pt x="784" y="1096" on="0"/>
        <pt x="1023" y="958" on="0"/>
        <pt x="1163" y="705" on="0"/>
        <pt x="1163" y="530" on="1"/>
        <pt x="336" y="530" on="1"/>
        <pt x="336" y="174" on="1"/>
        <pt x="380" y="127" on="0"/>
        <pt x="541" y="51" on="0"/>
        <pt x="633" y="51" on="1"/>
        <pt x="782" y="51" on="0"/>
        <pt x="959" y="174" on="0"/>
        <pt x="1028" y="285" on="1"/>
        <pt x="1100" y="244" on="1"/>
        <pt x="1052" y="168" on="0"/>
        <pt x="932" y="41" on="0"/>
        <pt x="760" y="-35" on="0"/>
      </contour>
      <contour>
        <pt x="932" y="616" on="1"/>
        <pt x="932" y="893" on="1"/>
        <pt x="894" y="933" on="0"/>
        <pt x="737" y="1012" on="0"/>
        <pt x="631" y="1012" on="1"/>
        <pt x="530" y="1012" on="0"/>
        <pt x="383" y="941" on="0"/>
        <pt x="336" y="895" on="1"/>
        <pt x="336" y="616" on="1"/>
      </contour>
    </TTGlyph>
    <TTGlyph name="eta" xMin="175" yMin="-492" xMax="1089" yMax="1116">
      <contour>
        <pt x="694" y="1116" on="1" overlap="1"/>
        <pt x="824" y="1116" on="0"/>
        <pt x="1000" y="1032" on="0"/>
        <pt x="1089" y="855" on="0"/>
        <pt x="1089" y="714" on="1"/>
        <pt x="1089" y="-492" on="1"/>
        <pt x="925" y="-492" on="1"/>
        <pt x="925" y="703" on="1"/>
        <pt x="925" y="840" on="0"/>
        <pt x="801" y="976" on="0"/>
        <pt x="671" y="976" on="1"/>
        <pt x="551" y="976" on="0"/>
        <pt x="406" y="884" on="0"/>
        <pt x="341" y="705" on="0"/>
        <pt x="341" y="574" on="1"/>
        <pt x="341" y="0" on="1"/>
        <pt x="175" y="0" on="1"/>
        <pt x="175" y="1096" on="1"/>
        <pt x="309" y="1096" on="1"/>
        <pt x="334" y="938" on="1"/>
        <pt x="343" y="938" on="1"/>
        <pt x="378" y="996" on="0"/>
        <pt x="486" y="1075" on="0"/>
        <pt x="620" y="1116" on="0"/>
      </contour>
    </TTGlyph>
    <TTGlyph name="etatonos" xMin="175" yMin="-492" xMax="1089" yMax="1649">
      <component glyphName="eta" x="0" y="0" flags="0x604"/>
      <component glyphName="tonos" x="66" y="0" flags="0x4"/>
    </TTGlyph>
    <TTGlyph name="eth" xMin="113" yMin="-20" xMax="1115" yMax="1565">
      <contour>
        <pt x="439" y="1565" on="1" overlap="1"/>
        <pt x="507" y="1534" on="0"/>
        <pt x="637" y="1460" on="0"/>
        <pt x="695" y="1417" on="1"/>
        <pt x="930" y="1554" on="1"/>
        <pt x="1002" y="1452" on="1"/>
        <pt x="798" y="1333" on="1"/>
        <pt x="893" y="1244" on="0"/>
        <pt x="1036" y="1011" on="0"/>
        <pt x="1115" y="727" on="0"/>
        <pt x="1115" y="562" on="1"/>
        <pt x="1115" y="372" on="0"/>
        <pt x="995" y="112" on="0"/>
        <pt x="769" y="-20" on="0"/>
        <pt x="610" y="-20" on="1"/>
        <pt x="464" y="-20" on="0"/>
        <pt x="239" y="100" on="0"/>
        <pt x="113" y="323" on="0"/>
        <pt x="113" y="475" on="1"/>
        <pt x="113" y="628" on="0"/>
        <pt x="231" y="848" on="0"/>
        <pt x="446" y="967" on="0"/>
        <pt x="591" y="967" on="1"/>
        <pt x="666" y="967" on="0"/>
        <pt x="788" y="940" on="0"/>
        <pt x="883" y="886" on="0"/>
        <pt x="915" y="845" on="1"/>
        <pt x="924" y="848" on="1"/>
        <pt x="892" y="969" on="0"/>
        <pt x="755" y="1175" on="0"/>
        <pt x="666" y="1256" on="1"/>
        <pt x="399" y="1102" on="1"/>
        <pt x="328" y="1206" on="1"/>
        <pt x="559" y="1339" on="1"/>
        <pt x="516" y="1369" on="0"/>
        <pt x="420" y="1426" on="0"/>
        <pt x="371" y="1451" on="1"/>
      </contour>
      <contour>
        <pt x="616" y="832" on="1"/>
        <pt x="501" y="832" on="0"/>
        <pt x="353" y="748" on="0"/>
        <pt x="282" y="586" on="0"/>
        <pt x="282" y="469" on="1"/>
        <pt x="282" y="365" on="0"/>
        <pt x="353" y="205" on="0"/>
        <pt x="500" y="116" on="0"/>
        <pt x="614" y="116" on="1"/>
        <pt x="785" y="116" on="0"/>
        <pt x="947" y="324" on="0"/>
        <pt x="947" y="522" on="1"/>
        <pt x="947" y="584" on="0"/>
        <pt x="908" y="695" on="0"/>
        <pt x="828" y="782" on="0"/>
        <pt x="703" y="832" on="0"/>
      </contour>
    </TTGlyph>
    <TTGlyph name="exclam" xMin="150" yMin="-28" xMax="388" yMax="1462">
      <contour>
        <pt x="325" y="406" on="1" overlap="1"/>
        <pt x="216" y="406" on="1"/>
        <pt x="170" y="1462" on="1"/>
        <pt x="371" y="1462" on="1"/>
      </contour>
      <contour>
        <pt x="150" y="104" on="1"/>
        <pt x="150" y="174" on="0"/>
        <pt x="218" y="233" on="0"/>
        <pt x="269" y="233" on="1"/>
        <pt x="319" y="233" on="0"/>
        <pt x="388" y="174" on="0"/>
        <pt x="388" y="104" on="1"/>
        <pt x="388" y="35" on="0"/>
        <pt x="319" y="-28" on="0"/>
        <pt x="269" y="-28" on="1"/>
        <pt x="218" y="-28" on="0"/>
        <pt x="150" y="35" on="0"/>
      </contour>
    </TTGlyph>
    <TTGlyph name="exclamdbl" xMin="150" yMin="-28" xMax="851" yMax="1462">
      <component glyphName="exclam" x="0" y="0" flags="0x404"/>
      <component glyphName="exclam" x="463" y="0" flags="0x4"/>
    </TTGlyph>
    <TTGlyph name="exclamdown" xMin="150" yMin="-374" xMax="388" yMax="1116">
      <contour>
        <pt x="212" y="681" on="1" overlap="1"/>
        <pt x="323" y="681" on="1"/>
        <pt x="369" y="-374" on="1"/>
        <pt x="166" y="-374" on="1"/>
      </contour>
      <contour>
        <pt x="388" y="985" on="1"/>
        <pt x="388" y="915" on="0"/>
        <pt x="319" y="856" on="0"/>
        <pt x="269" y="856" on="1"/>
        <pt x="219" y="856" on="0"/>
        <pt x="150" y="915" on="0"/>
        <pt x="150" y="985" on="1"/>
        <pt x="150" y="1053" on="0"/>
        <pt x="219" y="1116" on="0"/>
        <pt x="269" y="1116" on="1"/>
        <pt x="319" y="1116" on="0"/>
        <pt x="388" y="1053" on="0"/>
      </contour>
    </TTGlyph>
    <TTGlyph name="f" xMin="30" yMin="0" xMax="782" yMax="1567">
      <contour>
        <pt x="663" y="966" on="1" overlap="1"/>
        <pt x="390" y="966" on="1"/>
        <pt x="390" y="0" on="1"/>
        <pt x="224" y="0" on="1"/>
        <pt x="224" y="966" on="1"/>
        <pt x="30" y="966" on="1"/>
        <pt x="30" y="1046" on="1"/>
        <pt x="224" y="1101" on="1"/>
        <pt x="224" y="1174" on="1"/>
        <pt x="224" y="1312" on="0"/>
        <pt x="306" y="1485" on="0"/>
        <pt x="462" y="1567" on="0"/>
        <pt x="574" y="1567" on="1"/>
        <pt x="637" y="1567" on="0"/>
        <pt x="742" y="1545" on="0"/>
        <pt x="782" y="1531" on="1"/>
        <pt x="739" y="1400" on="1"/>
        <pt x="705" y="1411" on="0"/>
        <pt x="620" y="1430" on="0"/>
        <pt x="576" y="1430" on="1"/>
        <pt x="481" y="1430" on="0"/>
        <pt x="390" y="1307" on="0"/>
        <pt x="390" y="1176" on="1"/>
        <pt x="390" y="1096" on="1"/>
        <pt x="663" y="1096" on="1"/>
      </contour>
    </TTGlyph>
    <TTGlyph name="f_f" xMin="30" yMin="0" xMax="1471" yMax="1567">
      <component glyphName="f" x="0" y="0" flags="0x404"/>
      <component glyphName="f" x="689" y="0" flags="0x4"/>
    </TTGlyph>
    <TTGlyph name="f_f_i" xMin="30" yMin="0" xMax="1738" yMax="1567">
      <component glyphName="f" x="0" y="0" flags="0x404"/>
      <component glyphName="f" x="689" y="0" flags="0x4"/>
      <component glyphName="i" x="1378" y="0" flags="0x4"/>
    </TTGlyph>
    <TTGlyph name="f_f_l" xMin="30" yMin="0" xMax="1720" yMax="1567">
      <component glyphName="f" x="0" y="0" flags="0x404"/>
      <component glyphName="f" x="689" y="0" flags="0x4"/>
      <component glyphName="l" x="1378" y="0" flags="0x4"/>
    </TTGlyph>
    <TTGlyph name="fi" xMin="30" yMin="0" xMax="1049" yMax="1567">
      <component glyphName="f" x="0" y="0" flags="0x404"/>
      <component glyphName="i" x="689" y="0" flags="0x4"/>
    </TTGlyph>
    <TTGlyph name="five" xMin="132" yMin="-20" xMax="1053" yMax="1462">
      <contour>
        <pt x="563" y="894" on="1" overlap="1"/>
        <pt x="712" y="894" on="0"/>
        <pt x="932" y="793" on="0"/>
        <pt x="1053" y="601" on="0"/>
        <pt x="1053" y="464" on="1"/>
        <pt x="1053" y="314" on="0"/>
        <pt x="923" y="97" on="0"/>
        <pt x="679" y="-20" on="0"/>
        <pt x="509" y="-20" on="1"/>
        <pt x="395" y="-20" on="0"/>
        <pt x="199" y="20" on="0"/>
        <pt x="132" y="60" on="1"/>
        <pt x="132" y="218" on="1"/>
        <pt x="205" y="174" on="0"/>
        <pt x="413" y="122" on="0"/>
        <pt x="511" y="122" on="1"/>
        <pt x="622" y="122" on="0"/>
        <pt x="789" y="193" on="0"/>
        <pt x="882" y="338" on="0"/>
        <pt x="882" y="448" on="1"/>
        <pt x="882" y="594" on="0"/>
        <pt x="703" y="753" on="0"/>
        <pt x="510" y="753" on="1"/>
        <pt x="448" y="753" on="0"/>
        <pt x="300" y="733" on="0"/>
        <pt x="252" y="721" on="1"/>
        <pt x="168" y="776" on="1"/>
        <pt x="224" y="1462" on="1"/>
        <pt x="951" y="1462" on="1"/>
        <pt x="951" y="1310" on="1"/>
        <pt x="366" y="1310" on="1"/>
        <pt x="329" y="869" on="1"/>
        <pt x="367" y="877" on="0"/>
        <pt x="487" y="894" on="0"/>
      </contour>
    </TTGlyph>
    <TTGlyph name="five.dnom" xMin="62" yMin="-18" xMax="651" yMax="877">
      <component glyphName="uni2075" x="0" y="-852" flags="0x604"/>
    </TTGlyph>
    <TTGlyph name="five.lf" xMin="126" yMin="-20" xMax="1047" yMax="1462">
      <contour>
        <pt x="557" y="894" on="1" overlap="1"/>
        <pt x="707" y="894" on="0"/>
        <pt x="927" y="793" on="0"/>
        <pt x="1047" y="601" on="0"/>
        <pt x="1047" y="464" on="1"/>
        <pt x="1047" y="314" on="0"/>
        <pt x="917" y="97" on="0"/>
        <pt x="674" y="-20" on="0"/>
        <pt x="504" y="-20" on="1"/>
        <pt x="389" y="-20" on="0"/>
        <pt x="193" y="20" on="0"/>
        <pt x="126" y="60" on="1"/>
        <pt x="126" y="218" on="1"/>
        <pt x="199" y="174" on="0"/>
        <pt x="407" y="122" on="0"/>
        <pt x="505" y="122" on="1"/>
        <pt x="616" y="122" on="0"/>
        <pt x="783" y="193" on="0"/>
        <pt x="876" y="338" on="0"/>
        <pt x="876" y="448" on="1"/>
        <pt x="876" y="594" on="0"/>
        <pt x="697" y="753" on="0"/>
        <pt x="505" y="753" on="1"/>
        <pt x="442" y="753" on="0"/>
        <pt x="294" y="733" on="0"/>
        <pt x="247" y="721" on="1"/>
        <pt x="162" y="776" on="1"/>
        <pt x="218" y="1462" on="1"/>
        <pt x="946" y="1462" on="1"/>
        <pt x="946" y="1310" on="1"/>
        <pt x="360" y="1310" on="1"/>
        <pt x="324" y="870" on="1"/>
        <pt x="361" y="877" on="0"/>
        <pt x="482" y="894" on="0"/>
      </contour>
    </TTGlyph>
    <TTGlyph name="five.numr" xMin="62" yMin="568" xMax="651" yMax="1463">
      <component glyphName="uni2075" x="0" y="-266" flags="0x604"/>
    </TTGlyph>
    <TTGlyph name="five.osf" xMin="121" yMin="-359" xMax="1045" yMax="1096">
      <contour>
        <pt x="555" y="530" on="1" overlap="1"/>
        <pt x="701" y="530" on="0"/>
        <pt x="922" y="435" on="0"/>
        <pt x="1045" y="247" on="0"/>
        <pt x="1045" y="106" on="1"/>
        <pt x="1045" y="-48" on="0"/>
        <pt x="913" y="-255" on="0"/>
        <pt x="668" y="-359" on="0"/>
        <pt x="498" y="-359" on="1"/>
        <pt x="383" y="-359" on="0"/>
        <pt x="191" y="-315" on="0"/>
        <pt x="121" y="-275" on="1"/>
        <pt x="121" y="-122" on="1"/>
        <pt x="215" y="-169" on="0"/>
        <pt x="404" y="-221" on="0"/>
        <pt x="502" y="-221" on="1"/>
        <pt x="616" y="-221" on="0"/>
        <pt x="782" y="-152" on="0"/>
        <pt x="873" y="-12" on="0"/>
        <pt x="873" y="94" on="1"/>
        <pt x="873" y="243" on="0"/>
        <pt x="682" y="395" on="0"/>
        <pt x="510" y="395" on="1"/>
        <pt x="446" y="395" on="0"/>
        <pt x="306" y="376" on="0"/>
        <pt x="238" y="356" on="1"/>
        <pt x="161" y="402" on="1"/>
        <pt x="216" y="1096" on="1"/>
        <pt x="951" y="1096" on="1"/>
        <pt x="951" y="948" on="1"/>
        <pt x="366" y="948" on="1"/>
        <pt x="327" y="504" on="1"/>
        <pt x="390" y="516" on="0"/>
        <pt x="505" y="530" on="0"/>
      </contour>
    </TTGlyph>
    <TTGlyph name="five.tosf" xMin="96" yMin="-359" xMax="1020" yMax="1096">
      <component glyphName="five.osf" x="-25" y="0" flags="0x404"/>
    </TTGlyph>
</ttFont>
